<svg width="412" height="51" viewBox="0 0 412 51" fill="none" xmlns="http://www.w3.org/2000/svg">
<path d="M31.5357 10.8614L16.0312 42.4302C20.5825 44.2969 27.7221 41.4008 30.0977 36.3223L45.1645 5.43979C37.5624 4.34175 32.911 8.59668 31.5357 10.8614Z" fill="url(#paint0_linear_220_2)"/>
<path d="M46.2196 10.8345L30.543 42.4034C35.1448 44.27 42.3637 41.3739 44.7658 36.2955L60 5.41294C52.3133 4.31489 47.6103 8.56982 46.2196 10.8345Z" fill="url(#paint1_linear_220_2)"/>
<path d="M18.2744 30.8355C15.4011 35.6202 12.0783 32.8291 10.776 30.8355L0.595462 12.0286C-1.04613 7.26752 2.45568 5.53372 4.41179 5.26196H23.8195C29.7174 5.48195 29.0075 10.3033 27.9153 12.6865L18.2744 30.8355Z" fill="url(#paint2_linear_220_2)"/>
<path d="M70.295 34L63.19 8.8H68.65L74.53 31.865H72.815L78.065 8.8H84.19L89.37 31.865H87.69L93.605 8.8H98.82L91.715 34H85.695L80.34 11.39H81.74L76.315 34H70.295ZM112.435 34.35C110.568 34.35 108.841 34.035 107.255 33.405C105.691 32.775 104.326 31.8883 103.16 30.745C102.016 29.5783 101.118 28.2017 100.465 26.615C99.8347 25.005 99.5197 23.2317 99.5197 21.295C99.5197 18.7283 100.068 16.4883 101.165 14.575C102.261 12.6383 103.778 11.1333 105.715 10.06C107.675 8.98667 109.903 8.45 112.4 8.45C114.943 8.45 117.183 8.98667 119.12 10.06C121.056 11.1333 122.573 12.6383 123.67 14.575C124.79 16.5117 125.35 18.7633 125.35 21.33C125.35 23.2433 125.023 25.005 124.37 26.615C123.74 28.2017 122.841 29.5783 121.675 30.745C120.531 31.8883 119.166 32.775 117.58 33.405C116.016 34.035 114.301 34.35 112.435 34.35ZM112.4 30.08C113.87 30.08 115.165 29.7067 116.285 28.96C117.405 28.2133 118.28 27.1867 118.91 25.88C119.563 24.55 119.89 23.01 119.89 21.26C119.89 19.5333 119.575 18.0283 118.945 16.745C118.315 15.4617 117.44 14.47 116.32 13.77C115.2 13.07 113.893 12.72 112.4 12.72C110.93 12.72 109.635 13.07 108.515 13.77C107.395 14.47 106.52 15.4617 105.89 16.745C105.283 18.005 104.98 19.51 104.98 21.26C104.98 23.0333 105.295 24.585 105.925 25.915C106.555 27.2217 107.43 28.2483 108.55 28.995C109.67 29.7183 110.953 30.08 112.4 30.08ZM128.005 34V8.8H139.275C141.095 8.8 142.681 9.115 144.035 9.745C145.388 10.3517 146.438 11.215 147.185 12.335C147.931 13.455 148.305 14.7617 148.305 16.255C148.305 17.725 147.931 19.02 147.185 20.14C146.438 21.2367 145.388 22.1 144.035 22.73C142.681 23.3367 141.095 23.64 139.275 23.64H132.275V19.685H139.135C140.418 19.685 141.398 19.3933 142.075 18.81C142.775 18.2033 143.125 17.3633 143.125 16.29C143.125 15.1933 142.786 14.365 142.11 13.805C141.433 13.2217 140.441 12.93 139.135 12.93H133.395V34H128.005ZM142.215 34L132.1 20.91H137.805L149.495 34H142.215ZM151.523 34V8.8H156.913V34H151.523ZM154.043 34V29.87H169.023V34H154.043ZM172.168 34V8.8H177.558V34H172.168ZM174.688 34V29.87H190.928V34H174.688ZM174.688 23.15V19.09H189.703V23.15H174.688ZM174.688 12.93V8.8H190.508V12.93H174.688ZM201.921 34V23.815L192.541 8.8H199.016L206.436 22.135H203.391L210.776 8.8H216.691L207.311 23.815V34H201.921Z" fill="black"/>
<path d="M233.608 34L224.578 8.8H230.178L237.073 29.8H236.408L243.338 8.8H248.658L239.628 34H233.608ZM251.26 34V8.8H256.65V34H251.26ZM253.78 34V29.87H270.02V34H253.78ZM253.78 23.15V19.09H268.795V23.15H253.78ZM253.78 12.93V8.8H269.6V12.93H253.78ZM273.169 34V8.8H280.134L291.334 31.06L289.619 31.48V8.8H294.869V34H287.904L276.704 11.74L278.419 11.32V34H273.169ZM305.674 34V12.93H297.449V8.8H319.289V12.93H311.064V34H305.674ZM332.34 34.35C328.747 34.35 326.052 33.37 324.255 31.41C322.482 29.4267 321.595 26.545 321.595 22.765V8.8H326.985V23.71C326.985 25.9033 327.463 27.5133 328.42 28.54C329.377 29.5667 330.695 30.08 332.375 30.08C334.055 30.08 335.373 29.5667 336.33 28.54C337.287 27.5133 337.765 25.915 337.765 23.745V8.8H343.155V22.835C343.155 26.5683 342.257 29.4267 340.46 31.41C338.663 33.37 335.957 34.35 332.34 34.35ZM346.003 34V8.8H357.273C359.093 8.8 360.679 9.115 362.033 9.745C363.386 10.3517 364.436 11.215 365.183 12.335C365.929 13.455 366.303 14.7617 366.303 16.255C366.303 17.725 365.929 19.02 365.183 20.14C364.436 21.2367 363.386 22.1 362.033 22.73C360.679 23.3367 359.093 23.64 357.273 23.64H350.273V19.685H357.133C358.416 19.685 359.396 19.3933 360.073 18.81C360.773 18.2033 361.123 17.3633 361.123 16.29C361.123 15.1933 360.784 14.365 360.108 13.805C359.431 13.2217 358.439 12.93 357.133 12.93H351.393V34H346.003ZM360.213 34L350.098 20.91H355.803L367.493 34H360.213ZM369.521 34V8.8H374.911V34H369.521ZM372.041 34V29.87H388.281V34H372.041ZM372.041 23.15V19.09H387.056V23.15H372.041ZM372.041 12.93V8.8H387.861V12.93H372.041ZM400.799 34.315C397.533 34.315 394.919 33.5917 392.959 32.145C390.999 30.675 389.856 28.61 389.529 25.95H394.709C394.873 27.3033 395.526 28.3767 396.669 29.17C397.813 29.94 399.271 30.325 401.044 30.325C402.491 30.325 403.599 30.0683 404.369 29.555C405.163 29.0417 405.559 28.3533 405.559 27.49C405.559 26.6733 405.326 26.02 404.859 25.53C404.393 25.0167 403.588 24.6083 402.444 24.305L397.754 23.01C395.351 22.3333 393.589 21.4117 392.469 20.245C391.373 19.055 390.824 17.5733 390.824 15.8C390.824 14.2833 391.209 12.9767 391.979 11.88C392.773 10.76 393.881 9.90833 395.304 9.325C396.728 8.71833 398.396 8.415 400.309 8.415C403.249 8.415 405.594 9.115 407.344 10.515C409.094 11.8917 410.086 13.7233 410.319 16.01H405.139C404.906 14.7733 404.334 13.8633 403.424 13.28C402.538 12.6967 401.394 12.405 399.994 12.405C398.781 12.405 397.813 12.6383 397.089 13.105C396.366 13.5717 396.004 14.2017 396.004 14.995C396.004 15.6017 396.203 16.1617 396.599 16.675C396.996 17.165 397.824 17.585 399.084 17.935L403.774 19.23C406.248 19.9067 408.021 20.84 409.094 22.03C410.191 23.1967 410.739 24.6783 410.739 26.475C410.739 28.995 409.864 30.9317 408.114 32.285C406.364 33.6383 403.926 34.315 400.799 34.315Z" fill="#093281"/>
<path d="M75.392 47.79C75.2707 47.6313 75.168 47.4587 75.084 47.272C75 47.076 74.9113 46.8427 74.818 46.572C74.7993 46.5253 74.7433 46.3853 74.65 46.152C74.566 45.9187 74.468 45.718 74.356 45.55C73.768 45.634 73.2873 45.676 72.914 45.676C72.7087 45.676 72.48 45.6713 72.228 45.662C71.9853 45.6433 71.8033 45.634 71.682 45.634C71.2153 45.5967 70.842 45.578 70.562 45.578C70.45 45.7273 70.352 45.886 70.268 46.054C70.1933 46.222 70.0953 46.474 69.974 46.81C69.806 47.2953 69.6613 47.6407 69.54 47.846C69.456 47.986 69.2927 48.056 69.05 48.056C68.8447 48.056 68.6533 48.014 68.476 47.93C68.308 47.8367 68.224 47.7107 68.224 47.552C68.2987 47.1973 68.4153 46.824 68.574 46.432C68.742 46.0307 68.98 45.4987 69.288 44.836L69.848 43.464C70.156 42.68 70.436 42.008 70.688 41.448C70.9493 40.888 71.29 40.2253 71.71 39.46C71.766 39.348 71.8593 39.2547 71.99 39.18C72.1207 39.096 72.2653 39.054 72.424 39.054C72.6013 39.054 72.7273 39.068 72.802 39.096C72.886 39.1147 72.9513 39.152 72.998 39.208C73.0447 39.2547 73.1147 39.3573 73.208 39.516C73.5253 40.0107 73.796 40.5193 74.02 41.042C74.2533 41.5647 74.5473 42.288 74.902 43.212L75.196 43.954C75.4573 44.626 75.6813 45.1907 75.868 45.648C76.064 46.096 76.2787 46.5067 76.512 46.88C76.6613 47.1227 76.736 47.2907 76.736 47.384C76.736 47.608 76.666 47.7807 76.526 47.902C76.3953 48.014 76.2227 48.07 76.008 48.07C75.7373 48.07 75.532 47.9767 75.392 47.79ZM73.95 44.402C73.8007 44.0847 73.586 43.534 73.306 42.75C73.0167 41.91 72.7273 41.2427 72.438 40.748C72.2607 41.196 71.9993 41.7747 71.654 42.484C71.4207 42.9227 71.1547 43.5573 70.856 44.388C71.4533 44.4627 72.0973 44.5 72.788 44.5C73.2827 44.5 73.67 44.4673 73.95 44.402ZM87.9871 43.324C87.9871 43.7347 87.7771 43.94 87.3571 43.94C87.2171 43.94 87.1004 43.9073 87.0071 43.842C86.9137 43.7767 86.8111 43.6787 86.6991 43.548C86.4191 43.24 86.1764 43.086 85.9711 43.086C85.7004 43.086 85.4344 43.1653 85.1731 43.324C84.9211 43.4827 84.7157 43.7067 84.5571 43.996C84.3984 44.2853 84.3191 44.6073 84.3191 44.962C84.3191 45.354 84.3937 45.6807 84.5431 45.942C84.7017 46.2033 84.9444 46.4273 85.2711 46.614C85.3924 46.6793 85.5324 46.7307 85.6911 46.768C85.8591 46.8053 86.0037 46.824 86.1251 46.824C86.3957 46.824 86.7364 46.7167 87.1471 46.502C87.2964 46.4273 87.4224 46.3713 87.5251 46.334C87.6277 46.2967 87.7351 46.278 87.8471 46.278C87.9497 46.278 88.0664 46.3247 88.1971 46.418C88.3277 46.5113 88.3931 46.628 88.3931 46.768C88.3931 47.048 88.2624 47.286 88.0011 47.482C87.7397 47.6687 87.4177 47.8133 87.0351 47.916C86.6617 48.0093 86.3024 48.056 85.9571 48.056C85.4064 48.056 84.8931 47.93 84.4171 47.678C83.9504 47.426 83.5771 47.0807 83.2971 46.642C83.0171 46.194 82.8771 45.69 82.8771 45.13C82.8771 44.5327 83.0124 43.9867 83.2831 43.492C83.5537 42.9973 83.9177 42.61 84.3751 42.33C84.8324 42.05 85.3317 41.91 85.8731 41.91C86.1811 41.91 86.4984 41.966 86.8251 42.078C87.1517 42.19 87.4271 42.3533 87.6511 42.568C87.8751 42.7827 87.9871 43.0347 87.9871 43.324ZM99.2536 43.758C99.1136 43.758 98.9922 43.7253 98.8896 43.66C98.7962 43.5853 98.6982 43.4873 98.5956 43.366C98.4929 43.2447 98.3809 43.1653 98.2596 43.128C98.1476 43.0907 98.0169 43.072 97.8676 43.072C97.5969 43.072 97.3309 43.156 97.0696 43.324C96.8176 43.4827 96.6076 43.7067 96.4396 43.996C96.2809 44.2853 96.2016 44.6073 96.2016 44.962C96.2016 45.354 96.2762 45.6807 96.4256 45.942C96.5842 46.2033 96.8316 46.432 97.1676 46.628C97.2889 46.6933 97.4289 46.7447 97.5876 46.782C97.7556 46.8193 97.9002 46.838 98.0216 46.838C98.3109 46.838 98.6842 46.712 99.1416 46.46C99.1789 46.4413 99.2489 46.4087 99.3516 46.362C99.4636 46.306 99.5476 46.278 99.6036 46.278C99.7062 46.278 99.8229 46.3293 99.9536 46.432C100.084 46.5253 100.15 46.642 100.15 46.782C100.15 47.062 100.028 47.3 99.7856 47.496C99.5522 47.692 99.2582 47.8367 98.9036 47.93C98.5489 48.0233 98.1989 48.07 97.8536 48.07C97.3029 48.07 96.7896 47.944 96.3136 47.692C95.8376 47.44 95.4596 47.09 95.1796 46.642C94.8996 46.194 94.7596 45.69 94.7596 45.13C94.7596 44.5233 94.8949 43.9773 95.1656 43.492C95.4362 42.9973 95.8002 42.61 96.2576 42.33C96.7242 42.0407 97.2282 41.896 97.7696 41.896C98.2922 41.896 98.7729 41.9987 99.2116 42.204C99.6596 42.4093 99.8836 42.722 99.8836 43.142C99.8836 43.5527 99.6736 43.758 99.2536 43.758ZM106.325 43.282C106.25 43.282 106.18 43.254 106.115 43.198C106.059 43.1327 106.031 43.058 106.031 42.974C106.031 42.7593 106.124 42.5587 106.311 42.372C106.367 42.344 106.479 42.2973 106.647 42.232C106.815 42.1667 106.964 42.134 107.095 42.134C107.449 42.134 107.739 42.232 107.963 42.428C108.187 42.6147 108.299 42.8853 108.299 43.24C108.299 43.3427 108.28 43.562 108.243 43.898C108.205 44.29 108.187 44.5933 108.187 44.808C108.187 45.4613 108.275 45.9887 108.453 46.39C108.518 46.5207 108.621 46.6233 108.761 46.698C108.901 46.7727 109.027 46.81 109.139 46.81C109.409 46.81 109.629 46.7633 109.797 46.67C109.965 46.5767 110.147 46.4273 110.343 46.222C110.539 46.0167 110.665 45.7833 110.721 45.522C110.786 45.2607 110.833 44.9013 110.861 44.444C110.879 44.1453 110.898 43.926 110.917 43.786C110.963 43.338 110.987 42.9553 110.987 42.638C110.987 42.4327 111.043 42.2647 111.155 42.134C111.267 41.994 111.421 41.924 111.617 41.924C111.729 41.924 111.855 41.9613 111.995 42.036C112.144 42.1013 112.242 42.1807 112.289 42.274C112.345 42.3673 112.373 42.5213 112.373 42.736C112.373 42.848 112.359 42.9553 112.331 43.058C112.265 43.2913 112.233 43.5713 112.233 43.898L112.247 44.626C112.247 45.2887 112.293 45.7787 112.387 46.096C112.433 46.2453 112.499 46.3993 112.583 46.558C112.667 46.7073 112.746 46.8333 112.821 46.936C113.007 47.1413 113.129 47.286 113.185 47.37C113.241 47.4447 113.269 47.5193 113.269 47.594C113.269 47.706 113.213 47.8133 113.101 47.916C112.998 48.0093 112.886 48.056 112.765 48.056C112.419 48.056 112.121 47.9393 111.869 47.706C111.617 47.4727 111.43 47.1693 111.309 46.796C110.991 47.16 110.697 47.454 110.427 47.678C110.24 47.8087 110.011 47.9067 109.741 47.972C109.47 48.028 109.199 48.056 108.929 48.056C108.565 48.056 108.196 47.9067 107.823 47.608C107.449 47.3093 107.197 46.964 107.067 46.572C107.057 46.5533 107.029 46.4787 106.983 46.348C106.945 46.2173 106.927 46.0213 106.927 45.76C106.927 45.4147 106.945 44.9807 106.983 44.458C107.011 44.122 107.025 43.814 107.025 43.534C107.025 43.45 106.992 43.38 106.927 43.324C106.871 43.268 106.805 43.24 106.731 43.24C106.675 43.24 106.609 43.2493 106.535 43.268C106.469 43.2773 106.399 43.282 106.325 43.282ZM121.595 47.44C121.576 47.5987 121.511 47.7387 121.399 47.86C121.287 47.9813 121.142 48.042 120.965 48.042C120.685 48.042 120.48 47.9907 120.349 47.888C120.218 47.776 120.153 47.5753 120.153 47.286C120.153 46.894 120.176 46.4647 120.223 45.998C120.26 45.4567 120.279 45.0413 120.279 44.752C120.279 44.6027 120.27 44.416 120.251 44.192C120.232 43.9867 120.223 43.8327 120.223 43.73C120.195 43.5713 120.13 43.4453 120.027 43.352C119.934 43.2587 119.784 43.1793 119.579 43.114C119.495 43.0767 119.425 43.016 119.369 42.932C119.313 42.8387 119.285 42.7547 119.285 42.68C119.285 42.4653 119.369 42.302 119.537 42.19C119.705 42.078 119.91 42.022 120.153 42.022C120.424 42.022 120.657 42.1153 120.853 42.302C121.049 42.4887 121.198 42.722 121.301 43.002C121.516 42.694 121.777 42.4467 122.085 42.26C122.402 42.0733 122.71 41.98 123.009 41.98C123.392 41.98 123.714 42.0453 123.975 42.176C124.246 42.2973 124.381 42.512 124.381 42.82C124.381 42.9973 124.302 43.184 124.143 43.38C123.994 43.5667 123.84 43.66 123.681 43.66C123.56 43.66 123.415 43.604 123.247 43.492C123.182 43.4453 123.107 43.408 123.023 43.38C122.948 43.3427 122.869 43.324 122.785 43.324C122.636 43.324 122.496 43.3473 122.365 43.394C122.234 43.4407 122.146 43.4967 122.099 43.562C121.95 43.7953 121.838 44.0053 121.763 44.192C121.698 44.3787 121.665 44.5793 121.665 44.794C121.665 44.9527 121.66 45.0787 121.651 45.172L121.637 45.97L121.651 46.502C121.651 46.894 121.632 47.2067 121.595 47.44ZM135.853 48.056C135.536 48.056 135.293 48.0093 135.125 47.916C134.957 47.8133 134.775 47.6267 134.579 47.356C134.337 47.5707 133.973 47.7433 133.487 47.874C133.011 48.0047 132.601 48.07 132.255 48.07C131.686 48.07 131.224 47.916 130.869 47.608C130.524 47.2907 130.351 46.8287 130.351 46.222C130.351 45.9607 130.421 45.7227 130.561 45.508C130.711 45.284 130.902 45.088 131.135 44.92C131.397 44.7427 131.705 44.6027 132.059 44.5C132.423 44.3973 132.755 44.346 133.053 44.346C133.557 44.346 134.005 44.3927 134.397 44.486V44.472C134.397 43.968 134.271 43.6227 134.019 43.436C133.777 43.24 133.385 43.142 132.843 43.142C132.498 43.142 132.199 43.296 131.947 43.604C131.854 43.7253 131.658 43.786 131.359 43.786C131.21 43.786 131.098 43.7253 131.023 43.604C130.958 43.4733 130.925 43.3427 130.925 43.212C130.925 42.9413 131.037 42.708 131.261 42.512C131.495 42.316 131.775 42.1713 132.101 42.078C132.428 41.9753 132.731 41.924 133.011 41.924C133.282 41.924 133.604 41.98 133.977 42.092C134.351 42.204 134.654 42.3533 134.887 42.54C135.167 42.7827 135.382 43.0673 135.531 43.394C135.69 43.7113 135.769 44.0613 135.769 44.444C135.769 44.5653 135.76 44.7473 135.741 44.99C135.723 45.27 135.713 45.4987 135.713 45.676C135.713 45.76 135.704 45.8673 135.685 45.998C135.667 46.166 135.657 46.306 135.657 46.418C135.657 46.5393 135.695 46.656 135.769 46.768C135.844 46.88 135.947 46.9733 136.077 47.048C136.199 47.1133 136.278 47.1833 136.315 47.258C136.353 47.3327 136.371 47.4167 136.371 47.51C136.371 47.6033 136.311 47.72 136.189 47.86C136.077 47.9907 135.965 48.056 135.853 48.056ZM133.053 45.382C132.689 45.382 132.367 45.452 132.087 45.592C131.807 45.732 131.667 45.9793 131.667 46.334C131.667 46.5113 131.728 46.6607 131.849 46.782C131.98 46.9033 132.12 46.964 132.269 46.964C132.671 46.964 133.007 46.922 133.277 46.838C133.548 46.754 133.875 46.6 134.257 46.376C134.304 46.2267 134.332 46.0167 134.341 45.746C134.341 45.6433 134.346 45.564 134.355 45.508C133.851 45.424 133.417 45.382 133.053 45.382ZM147.714 43.324C147.714 43.7347 147.504 43.94 147.084 43.94C146.944 43.94 146.827 43.9073 146.734 43.842C146.641 43.7767 146.538 43.6787 146.426 43.548C146.146 43.24 145.903 43.086 145.698 43.086C145.427 43.086 145.161 43.1653 144.9 43.324C144.648 43.4827 144.443 43.7067 144.284 43.996C144.125 44.2853 144.046 44.6073 144.046 44.962C144.046 45.354 144.121 45.6807 144.27 45.942C144.429 46.2033 144.671 46.4273 144.998 46.614C145.119 46.6793 145.259 46.7307 145.418 46.768C145.586 46.8053 145.731 46.824 145.852 46.824C146.123 46.824 146.463 46.7167 146.874 46.502C147.023 46.4273 147.149 46.3713 147.252 46.334C147.355 46.2967 147.462 46.278 147.574 46.278C147.677 46.278 147.793 46.3247 147.924 46.418C148.055 46.5113 148.12 46.628 148.12 46.768C148.12 47.048 147.989 47.286 147.728 47.482C147.467 47.6687 147.145 47.8133 146.762 47.916C146.389 48.0093 146.029 48.056 145.684 48.056C145.133 48.056 144.62 47.93 144.144 47.678C143.677 47.426 143.304 47.0807 143.024 46.642C142.744 46.194 142.604 45.69 142.604 45.13C142.604 44.5327 142.739 43.9867 143.01 43.492C143.281 42.9973 143.645 42.61 144.102 42.33C144.559 42.05 145.059 41.91 145.6 41.91C145.908 41.91 146.225 41.966 146.552 42.078C146.879 42.19 147.154 42.3533 147.378 42.568C147.602 42.7827 147.714 43.0347 147.714 43.324ZM156.153 50.856C155.639 50.856 155.266 50.7627 155.033 50.576C154.809 50.3987 154.697 50.2027 154.697 49.988C154.697 49.6613 154.851 49.498 155.159 49.498C155.252 49.498 155.373 49.526 155.523 49.582C155.672 49.6473 155.812 49.68 155.943 49.68C156.148 49.68 156.316 49.5447 156.447 49.274C156.577 49.0033 156.708 48.5647 156.839 47.958C156.549 47.622 156.195 47.09 155.775 46.362C155.364 45.634 155.009 44.92 154.711 44.22C154.412 43.5107 154.263 43.0067 154.263 42.708C154.263 42.4747 154.342 42.302 154.501 42.19C154.669 42.078 154.86 42.022 155.075 42.022C155.243 42.022 155.373 42.0547 155.467 42.12C155.56 42.176 155.625 42.2833 155.663 42.442C155.887 43.2353 156.125 43.9307 156.377 44.528C156.638 45.1253 156.969 45.774 157.371 46.474C157.529 46.11 157.739 45.4893 158.001 44.612C158.29 43.632 158.533 42.9367 158.729 42.526C158.813 42.358 158.915 42.2227 159.037 42.12C159.167 42.0173 159.312 41.966 159.471 41.966C159.629 41.966 159.797 42.0267 159.975 42.148C160.161 42.26 160.255 42.3953 160.255 42.554C160.255 42.6473 160.222 42.7593 160.157 42.89C159.793 43.73 159.471 44.5233 159.191 45.27C158.92 46.0073 158.659 46.8193 158.407 47.706C158.257 48.2007 158.099 48.672 157.931 49.12C157.772 49.568 157.66 49.8433 157.595 49.946C157.408 50.2073 157.198 50.422 156.965 50.59C156.731 50.7673 156.461 50.856 156.153 50.856ZM175.002 43.156C174.871 43.1373 174.764 43.0813 174.68 42.988C174.605 42.8947 174.568 42.7827 174.568 42.652C174.568 42.5867 174.582 42.5167 174.61 42.442C174.647 42.3673 174.698 42.302 174.764 42.246C174.885 42.1433 175.048 42.0453 175.254 41.952C175.468 41.868 175.622 41.7653 175.716 41.644C175.809 41.5227 175.856 41.294 175.856 40.958C175.856 40.818 175.846 40.6967 175.828 40.594C175.818 40.4913 175.814 40.412 175.814 40.356C175.814 40.1507 175.888 39.9967 176.038 39.894C176.187 39.7913 176.36 39.74 176.556 39.74C176.798 39.74 176.962 39.8007 177.046 39.922C177.139 40.0433 177.186 40.2673 177.186 40.594C177.186 40.9113 177.172 41.1867 177.144 41.42C177.116 41.644 177.055 41.8447 176.962 42.022C177.092 42.022 177.307 42.0127 177.606 41.994C178.016 41.9753 178.301 41.966 178.46 41.966C178.618 41.966 178.758 42.008 178.88 42.092C179.001 42.1667 179.062 42.274 179.062 42.414C179.062 42.61 179.02 42.7547 178.936 42.848C178.852 42.9413 178.73 43.002 178.572 43.03C178.189 43.1327 177.648 43.1933 176.948 43.212C176.929 43.576 176.92 43.9727 176.92 44.402C176.92 45.1207 176.962 45.6713 177.046 46.054C177.102 46.3527 177.195 46.572 177.326 46.712C177.466 46.8427 177.671 46.908 177.942 46.908C178.082 46.908 178.194 46.8893 178.278 46.852C178.371 46.8147 178.422 46.7913 178.432 46.782C178.544 46.7167 178.646 46.684 178.74 46.684C178.87 46.684 178.964 46.726 179.02 46.81C179.085 46.894 179.118 47.006 179.118 47.146C179.118 47.4073 178.978 47.6267 178.698 47.804C178.418 47.972 178.058 48.056 177.62 48.056C177.125 48.056 176.705 47.9113 176.36 47.622C176.024 47.3233 175.823 46.9313 175.758 46.446C175.664 46.0073 175.618 45.3913 175.618 44.598C175.618 44.2527 175.636 43.7907 175.674 43.212L175.002 43.156ZM187.251 39.124C187.251 39.3667 187.247 39.6513 187.237 39.978C187.228 40.2953 187.219 40.538 187.209 40.706C187.181 41.182 187.167 41.658 187.167 42.134C187.167 42.4887 187.181 42.8573 187.209 43.24C187.499 42.82 187.811 42.512 188.147 42.316C188.483 42.12 188.889 42.022 189.365 42.022C189.711 42.022 190.033 42.176 190.331 42.484C190.63 42.792 190.821 43.1513 190.905 43.562C190.933 43.926 190.947 44.3693 190.947 44.892C190.947 45.228 190.966 45.6667 191.003 46.208C191.022 46.4133 191.073 46.6047 191.157 46.782C191.251 46.9593 191.381 47.048 191.549 47.048C191.633 47.048 191.699 47.0433 191.745 47.034C191.801 47.0247 191.853 47.02 191.899 47.02C192.03 47.02 192.119 47.0527 192.165 47.118C192.221 47.1833 192.249 47.2767 192.249 47.398C192.249 47.622 192.137 47.79 191.913 47.902C191.689 48.014 191.484 48.07 191.297 48.07C190.625 48.07 190.163 47.79 189.911 47.23C189.771 46.9127 189.683 46.502 189.645 45.998C189.608 45.4847 189.589 44.8873 189.589 44.206C189.589 43.534 189.361 43.198 188.903 43.198C188.651 43.198 188.395 43.3333 188.133 43.604C187.881 43.8653 187.671 44.2153 187.503 44.654C187.335 45.0833 187.251 45.5313 187.251 45.998L187.265 47.454C187.265 47.6593 187.186 47.8133 187.027 47.916C186.869 48.0093 186.719 48.056 186.579 48.056C186.374 48.056 186.187 47.9953 186.019 47.874C185.851 47.7433 185.767 47.5987 185.767 47.44C185.833 46.74 185.865 45.5687 185.865 43.926C185.865 43.6273 185.842 42.5213 185.795 40.608L185.753 39.32C185.753 39.1147 185.847 38.9373 186.033 38.788C186.22 38.6293 186.43 38.55 186.663 38.55C186.869 38.55 187.018 38.5967 187.111 38.69C187.205 38.7833 187.251 38.928 187.251 39.124ZM204.766 47.328C204.766 47.5333 204.654 47.706 204.43 47.846C204.206 47.986 204.001 48.056 203.814 48.056C203.469 48.056 203.189 48.014 202.974 47.93C202.769 47.8367 202.573 47.6687 202.386 47.426C202.153 47.6407 201.826 47.804 201.406 47.916C200.986 48.0187 200.599 48.07 200.244 48.07C199.666 48.07 199.185 47.916 198.802 47.608C198.429 47.2907 198.242 46.8287 198.242 46.222C198.242 45.9607 198.322 45.6993 198.48 45.438C198.639 45.1673 198.835 44.9527 199.068 44.794C199.32 44.626 199.605 44.514 199.922 44.458C200.24 44.3927 200.608 44.36 201.028 44.36C201.224 44.36 201.458 44.3973 201.728 44.472C201.999 44.5467 202.214 44.626 202.372 44.71V44.486C202.372 43.982 202.246 43.6367 201.994 43.45C201.752 43.254 201.36 43.156 200.818 43.156C200.65 43.156 200.496 43.184 200.356 43.24C200.226 43.2867 200.072 43.3567 199.894 43.45C199.726 43.5433 199.568 43.59 199.418 43.59C199.288 43.59 199.162 43.5387 199.04 43.436C198.919 43.324 198.858 43.2073 198.858 43.086C198.858 42.694 199.101 42.4093 199.586 42.232C200.081 42.0453 200.585 41.952 201.098 41.952C201.36 41.952 201.658 42.008 201.994 42.12C202.33 42.2227 202.615 42.3673 202.848 42.554C203.128 42.7873 203.343 43.0673 203.492 43.394C203.651 43.7207 203.73 44.0753 203.73 44.458C203.73 44.5793 203.721 44.7613 203.702 45.004C203.684 45.2653 203.674 45.4893 203.674 45.676L203.66 46.054C203.642 46.2593 203.632 46.4227 203.632 46.544C203.632 46.656 203.67 46.754 203.744 46.838C203.828 46.9127 203.926 46.95 204.038 46.95L204.43 46.936C204.533 46.936 204.612 46.978 204.668 47.062C204.734 47.1367 204.766 47.2253 204.766 47.328ZM200.244 46.964C200.646 46.964 200.982 46.922 201.252 46.838C201.523 46.754 201.85 46.6 202.232 46.376C202.27 46.2173 202.293 46.0073 202.302 45.746C201.789 45.5033 201.364 45.382 201.028 45.382C200.711 45.382 200.454 45.396 200.258 45.424C200.062 45.4427 199.885 45.522 199.726 45.662C199.568 45.802 199.488 46.026 199.488 46.334C199.488 46.5113 199.572 46.6607 199.74 46.782C199.918 46.9033 200.086 46.964 200.244 46.964ZM210.99 43.128C210.86 43.1093 210.752 43.058 210.668 42.974C210.594 42.8807 210.556 42.7687 210.556 42.638C210.556 42.47 210.622 42.33 210.752 42.218C210.78 42.19 210.827 42.1667 210.892 42.148C210.958 42.12 211.009 42.0967 211.046 42.078C211.252 42.0127 211.382 41.9613 211.438 41.924C211.653 41.7933 211.798 41.5787 211.872 41.28C211.947 40.9253 211.994 40.6827 212.012 40.552C212.031 40.3467 212.096 40.1927 212.208 40.09C212.33 39.978 212.479 39.922 212.656 39.922C212.89 39.922 213.053 39.9827 213.146 40.104C213.24 40.2253 213.286 40.4493 213.286 40.776C213.286 41.2053 213.184 41.6113 212.978 41.994C213.109 41.994 213.324 41.9847 213.622 41.966C214.07 41.9473 214.383 41.938 214.56 41.938C214.719 41.938 214.854 41.98 214.966 42.064C215.088 42.1387 215.148 42.2507 215.148 42.4C215.148 42.7547 214.985 42.9647 214.658 43.03C214.36 43.114 213.818 43.1653 213.034 43.184C212.969 44.0987 212.936 44.822 212.936 45.354C212.936 45.6807 212.95 45.914 212.978 46.054C213.034 46.3433 213.128 46.558 213.258 46.698C213.398 46.8287 213.604 46.894 213.874 46.894C214.005 46.894 214.201 46.8613 214.462 46.796C214.621 46.7493 214.747 46.726 214.84 46.726C214.962 46.726 215.055 46.768 215.12 46.852C215.186 46.936 215.218 47.048 215.218 47.188C215.218 47.44 215.055 47.65 214.728 47.818C214.402 47.9767 214.014 48.056 213.566 48.056C213.286 48.056 213.011 47.9907 212.74 47.86C212.47 47.72 212.241 47.552 212.054 47.356C212.017 47.3373 211.961 47.2347 211.886 47.048C211.821 46.8613 211.756 46.656 211.69 46.432C211.662 46.32 211.648 46.0493 211.648 45.62C211.648 45.2093 211.676 44.5 211.732 43.492L211.746 43.184C211.681 43.184 211.56 43.1793 211.382 43.17C211.205 43.1513 211.074 43.1373 210.99 43.128ZM235.597 39.236C235.597 39.3293 235.583 39.446 235.555 39.586C235.546 39.642 235.536 39.7027 235.527 39.768C235.518 39.8333 235.508 39.9127 235.499 40.006C235.415 40.846 235.373 41.8867 235.373 43.128C235.373 44.304 235.424 45.1767 235.527 45.746C235.63 46.3153 235.788 46.656 236.003 46.768L236.269 46.88C236.409 46.9267 236.512 46.978 236.577 47.034C236.652 47.09 236.689 47.1833 236.689 47.314C236.689 47.5007 236.591 47.664 236.395 47.804C236.199 47.9347 235.984 48 235.751 48C235.508 48 235.27 47.902 235.037 47.706C234.804 47.5007 234.612 47.244 234.463 46.936C234.304 47.272 234.024 47.5427 233.623 47.748C233.222 47.944 232.839 48.042 232.475 48.042C232.148 48.042 231.864 48 231.621 47.916C231.378 47.8227 231.126 47.6827 230.865 47.496C230.548 47.272 230.305 46.9873 230.137 46.642C229.978 46.2967 229.899 45.9187 229.899 45.508C229.899 45.0973 229.978 44.6633 230.137 44.206C230.296 43.7393 230.478 43.3567 230.683 43.058C230.926 42.7127 231.248 42.456 231.649 42.288C232.05 42.1107 232.466 42.022 232.895 42.022C233.138 42.022 233.348 42.0687 233.525 42.162C233.702 42.246 233.884 42.3673 234.071 42.526C234.071 42.0593 234.062 41.6673 234.043 41.35C234.034 41.266 234.029 41.168 234.029 41.056C234.029 40.2533 234.094 39.6187 234.225 39.152C234.328 38.76 234.575 38.564 234.967 38.564C235.182 38.564 235.34 38.6107 235.443 38.704C235.546 38.7973 235.597 38.9747 235.597 39.236ZM231.257 45.48C231.257 45.956 231.411 46.32 231.719 46.572C231.859 46.7027 231.976 46.7913 232.069 46.838C232.162 46.8847 232.279 46.908 232.419 46.908C232.69 46.908 232.946 46.8333 233.189 46.684C233.441 46.5253 233.637 46.32 233.777 46.068C233.926 45.816 234.001 45.5453 234.001 45.256L233.987 43.87C233.791 43.646 233.609 43.492 233.441 43.408C233.282 43.3147 233.114 43.268 232.937 43.268C232.34 43.268 231.929 43.4967 231.705 43.954C231.584 44.1687 231.476 44.4113 231.383 44.682C231.299 44.9527 231.257 45.2187 231.257 45.48ZM245.018 47.44C245.018 47.5987 244.958 47.7387 244.836 47.86C244.715 47.9813 244.566 48.042 244.388 48.042C244.108 48.042 243.903 47.9907 243.772 47.888C243.642 47.776 243.576 47.5753 243.576 47.286C243.576 46.9407 243.567 46.488 243.548 45.928C243.53 45.4613 243.52 45.0693 243.52 44.752C243.52 44.6027 243.53 44.4067 243.548 44.164C243.567 43.94 243.576 43.772 243.576 43.66C243.548 43.4827 243.478 43.338 243.366 43.226C243.254 43.1047 243.11 43.044 242.932 43.044C242.848 43.044 242.778 43.0067 242.722 42.932C242.666 42.848 242.638 42.764 242.638 42.68C242.638 42.4653 242.722 42.302 242.89 42.19C243.068 42.078 243.278 42.022 243.52 42.022C244.024 42.022 244.374 42.3207 244.57 42.918C244.813 42.638 245.088 42.414 245.396 42.246C245.714 42.0687 246.017 41.98 246.306 41.98C246.652 41.98 246.964 42.0733 247.244 42.26C247.534 42.4467 247.678 42.6987 247.678 43.016C247.678 43.1933 247.599 43.3753 247.44 43.562C247.291 43.7487 247.137 43.842 246.978 43.842C246.894 43.842 246.82 43.8233 246.754 43.786C246.698 43.7393 246.628 43.674 246.544 43.59C246.451 43.4967 246.372 43.4313 246.306 43.394C246.241 43.3473 246.166 43.324 246.082 43.324C245.933 43.324 245.793 43.3473 245.662 43.394C245.532 43.4407 245.443 43.4967 245.396 43.562C245.247 43.7953 245.135 44.0053 245.06 44.192C244.995 44.3787 244.962 44.5793 244.962 44.794C244.962 44.9527 244.958 45.0787 244.948 45.172L244.934 45.97C244.934 46.0913 244.939 46.2267 244.948 46.376C244.958 46.5253 244.967 46.6373 244.976 46.712C245.004 46.964 245.018 47.2067 245.018 47.44ZM254.545 39.012C254.871 39.04 255.156 39.1287 255.399 39.278C255.641 39.418 255.763 39.6327 255.763 39.922C255.763 40.1367 255.66 40.3093 255.455 40.44C255.259 40.5613 255.021 40.622 254.741 40.622C254.47 40.622 254.283 40.552 254.181 40.412C254.078 40.272 254.027 40.1273 254.027 39.978C254.027 39.698 254.055 39.4647 254.111 39.278C254.176 39.0913 254.321 39.0027 254.545 39.012ZM255.665 45.214V45.62C255.665 45.984 255.674 46.3293 255.693 46.656C255.721 46.9733 255.753 47.2953 255.791 47.622C255.781 47.7153 255.711 47.8133 255.581 47.916C255.45 48.0093 255.333 48.056 255.231 48.056C255.053 48.056 254.871 48.0233 254.685 47.958C254.507 47.8833 254.4 47.7947 254.363 47.692C254.307 47.3933 254.279 47.1273 254.279 46.894C254.279 46.1287 254.255 45.27 254.209 44.318C254.171 43.478 254.153 42.89 254.153 42.554C254.153 42.386 254.237 42.2413 254.405 42.12C254.573 41.9987 254.75 41.938 254.937 41.938C255.207 41.938 255.394 41.9987 255.497 42.12C255.609 42.2413 255.665 42.4327 255.665 42.694V45.214ZM265.981 44.402C266.009 44.3273 266.107 44.0567 266.275 43.59C266.452 43.1233 266.615 42.7687 266.765 42.526C267.007 42.1433 267.222 41.952 267.409 41.952C267.67 41.952 267.871 42.0033 268.011 42.106C268.151 42.1993 268.221 42.3347 268.221 42.512C268.221 42.596 268.183 42.7127 268.109 42.862C268.043 43.0113 268.006 43.1 267.997 43.128C267.623 43.9493 267.287 44.8313 266.989 45.774L266.695 46.866C266.583 47.2207 266.391 47.51 266.121 47.734C265.85 47.9487 265.533 48.056 265.169 48.056C264.842 48.056 264.539 47.9067 264.259 47.608C264.091 47.3467 263.913 47.0153 263.727 46.614C263.549 46.2127 263.395 45.8207 263.265 45.438L262.775 43.968C262.672 43.6787 262.588 43.4313 262.523 43.226C262.467 43.0207 262.439 42.834 262.439 42.666C262.429 42.47 262.485 42.3113 262.607 42.19C262.728 42.0687 262.896 42.008 263.111 42.008C263.353 42.008 263.526 42.0593 263.629 42.162C263.731 42.2553 263.825 42.4047 263.909 42.61C263.946 42.8247 264.049 43.2633 264.217 43.926L264.315 44.318C264.399 44.6353 264.506 44.9573 264.637 45.284C264.767 45.6107 264.898 45.9233 265.029 46.222C265.01 46.1753 265.075 46.3293 265.225 46.684C265.318 46.4133 265.425 46.082 265.547 45.69L265.981 44.402ZM274.393 44.794C274.393 44.2247 274.519 43.7533 274.771 43.38C275.023 42.9973 275.373 42.638 275.821 42.302C275.952 42.2087 276.171 42.1293 276.479 42.064C276.787 41.9893 277.058 41.952 277.291 41.952C277.571 41.952 277.865 42.0127 278.173 42.134C278.491 42.246 278.747 42.3767 278.943 42.526C279.289 42.778 279.527 43.072 279.657 43.408C279.788 43.7347 279.853 44.1267 279.853 44.584C279.853 44.78 279.741 44.9713 279.517 45.158C279.303 45.3353 279.069 45.424 278.817 45.424L278.285 45.41C278.015 45.41 277.627 45.4193 277.123 45.438L276.829 45.452C276.624 45.4707 276.47 45.48 276.367 45.48C276.218 45.48 276.013 45.4613 275.751 45.424C275.789 45.8627 275.952 46.208 276.241 46.46C276.531 46.7027 276.843 46.824 277.179 46.824C277.767 46.824 278.178 46.7073 278.411 46.474C278.607 46.334 278.738 46.2453 278.803 46.208C278.869 46.1707 278.971 46.152 279.111 46.152C279.261 46.152 279.391 46.222 279.503 46.362C279.615 46.502 279.671 46.642 279.671 46.782C279.671 46.9407 279.573 47.104 279.377 47.272C279.191 47.4307 278.934 47.5987 278.607 47.776C278.43 47.8507 278.187 47.916 277.879 47.972C277.571 48.028 277.315 48.056 277.109 48.056C276.783 48.056 276.419 47.9627 276.017 47.776C275.616 47.58 275.317 47.3653 275.121 47.132C274.925 46.8987 274.753 46.5673 274.603 46.138C274.463 45.7087 274.393 45.2607 274.393 44.794ZM277.179 44.416C277.842 44.416 278.327 44.3927 278.635 44.346C278.617 44.0753 278.533 43.856 278.383 43.688C278.234 43.5107 278.029 43.3613 277.767 43.24C277.683 43.2027 277.609 43.1747 277.543 43.156C277.478 43.1373 277.403 43.128 277.319 43.128C276.89 43.128 276.526 43.2447 276.227 43.478C275.938 43.7113 275.765 44.01 275.709 44.374C276.176 44.402 276.666 44.416 277.179 44.416ZM290.474 44.794C290.847 45.0087 291.108 45.2233 291.258 45.438C291.407 45.6433 291.482 45.914 291.482 46.25C291.482 46.586 291.384 46.8847 291.188 47.146C290.992 47.398 290.74 47.594 290.432 47.734C290.208 47.8367 289.928 47.916 289.592 47.972C289.265 48.028 289.008 48.056 288.822 48.056C288.495 48.056 288.14 47.9953 287.758 47.874C287.375 47.7527 287.048 47.58 286.778 47.356C286.516 47.132 286.386 46.8707 286.386 46.572C286.386 46.3853 286.446 46.2407 286.568 46.138C286.689 46.026 286.848 45.97 287.044 45.97C287.202 45.97 287.37 46.082 287.548 46.306C287.725 46.502 287.93 46.6513 288.164 46.754C288.406 46.8567 288.644 46.908 288.878 46.908C289.764 46.908 290.208 46.7073 290.208 46.306C290.208 46.222 290.18 46.1427 290.124 46.068C290.068 45.984 290.016 45.928 289.97 45.9C289.886 45.8347 289.769 45.7787 289.62 45.732C289.47 45.6853 289.321 45.648 289.172 45.62C289.022 45.5827 288.91 45.5547 288.836 45.536C288.761 45.5173 288.602 45.4847 288.36 45.438C288.126 45.3913 287.902 45.312 287.688 45.2C287.333 45.032 287.044 44.8267 286.82 44.584C286.605 44.3413 286.498 44.0287 286.498 43.646C286.498 43.4313 286.549 43.2167 286.652 43.002C286.764 42.778 286.913 42.61 287.1 42.498C287.38 42.3207 287.688 42.1853 288.024 42.092C288.36 41.9987 288.672 41.952 288.962 41.952C289.195 41.952 289.456 41.9753 289.746 42.022C290.044 42.0687 290.259 42.134 290.39 42.218C290.632 42.3487 290.81 42.484 290.922 42.624C291.034 42.764 291.09 42.9413 291.09 43.156C291.09 43.2587 291.066 43.3613 291.02 43.464C290.973 43.5573 290.917 43.6227 290.852 43.66C290.702 43.716 290.572 43.744 290.46 43.744C290.376 43.744 290.306 43.73 290.25 43.702C290.194 43.6647 290.142 43.6273 290.096 43.59C290.058 43.5527 290.035 43.5293 290.026 43.52C289.904 43.3893 289.769 43.2867 289.62 43.212C289.47 43.1373 289.251 43.1 288.962 43.1C288.775 43.1 288.593 43.128 288.416 43.184C288.248 43.2307 288.117 43.2913 288.024 43.366C287.949 43.422 287.898 43.4733 287.87 43.52C287.842 43.5573 287.828 43.6087 287.828 43.674C287.828 43.9353 288.089 44.1267 288.612 44.248C289.144 44.3693 289.424 44.4347 289.452 44.444C289.508 44.4627 289.662 44.5093 289.914 44.584C290.175 44.6587 290.362 44.7287 290.474 44.794ZM308.657 47.44C308.657 47.5987 308.596 47.7387 308.475 47.86C308.354 47.9813 308.204 48.042 308.027 48.042C307.747 48.042 307.542 47.9907 307.411 47.888C307.28 47.776 307.215 47.5753 307.215 47.286C307.215 46.9407 307.206 46.488 307.187 45.928C307.168 45.4613 307.159 45.0693 307.159 44.752C307.159 44.6027 307.168 44.4067 307.187 44.164C307.206 43.94 307.215 43.772 307.215 43.66C307.187 43.4827 307.117 43.338 307.005 43.226C306.893 43.1047 306.748 43.044 306.571 43.044C306.487 43.044 306.417 43.0067 306.361 42.932C306.305 42.848 306.277 42.764 306.277 42.68C306.277 42.4653 306.361 42.302 306.529 42.19C306.706 42.078 306.916 42.022 307.159 42.022C307.663 42.022 308.013 42.3207 308.209 42.918C308.452 42.638 308.727 42.414 309.035 42.246C309.352 42.0687 309.656 41.98 309.945 41.98C310.29 41.98 310.603 42.0733 310.883 42.26C311.172 42.4467 311.317 42.6987 311.317 43.016C311.317 43.1933 311.238 43.3753 311.079 43.562C310.93 43.7487 310.776 43.842 310.617 43.842C310.533 43.842 310.458 43.8233 310.393 43.786C310.337 43.7393 310.267 43.674 310.183 43.59C310.09 43.4967 310.01 43.4313 309.945 43.394C309.88 43.3473 309.805 43.324 309.721 43.324C309.572 43.324 309.432 43.3473 309.301 43.394C309.17 43.4407 309.082 43.4967 309.035 43.562C308.886 43.7953 308.774 44.0053 308.699 44.192C308.634 44.3787 308.601 44.5793 308.601 44.794C308.601 44.9527 308.596 45.0787 308.587 45.172L308.573 45.97C308.573 46.0913 308.578 46.2267 308.587 46.376C308.596 46.5253 308.606 46.6373 308.615 46.712C308.643 46.964 308.657 47.2067 308.657 47.44ZM317.358 44.836C317.358 44.5 317.418 44.1873 317.54 43.898C317.661 43.5993 317.838 43.2913 318.072 42.974C318.305 42.6567 318.627 42.4093 319.038 42.232C319.448 42.0453 319.896 41.952 320.382 41.952C320.755 41.952 321.114 42.0313 321.46 42.19C321.814 42.3393 322.132 42.526 322.412 42.75C322.449 42.8153 322.514 42.9367 322.608 43.114C322.701 43.282 322.766 43.436 322.804 43.576C322.85 43.716 322.874 43.8607 322.874 44.01C322.874 44.6353 322.645 45.0553 322.188 45.27C321.73 45.4753 321.152 45.578 320.452 45.578C319.752 45.578 319.182 45.5313 318.744 45.438C318.762 45.6153 318.809 45.7927 318.884 45.97C318.958 46.1473 319.047 46.2827 319.15 46.376C319.336 46.5533 319.518 46.67 319.696 46.726C319.882 46.7727 320.13 46.796 320.438 46.796C320.904 46.796 321.268 46.7073 321.53 46.53C321.772 46.3713 321.959 46.292 322.09 46.292C322.267 46.292 322.402 46.348 322.496 46.46C322.589 46.5627 322.636 46.698 322.636 46.866C322.636 47.2207 322.407 47.51 321.95 47.734C321.502 47.958 320.993 48.07 320.424 48.07C319.976 48.07 319.532 47.9907 319.094 47.832C318.655 47.6733 318.305 47.4493 318.044 47.16C317.866 46.8613 317.708 46.4973 317.568 46.068C317.428 45.6387 317.358 45.228 317.358 44.836ZM320.438 43.1C320.232 43.1 320.018 43.1373 319.794 43.212C319.579 43.2773 319.411 43.38 319.29 43.52C319.14 43.6787 319.028 43.8233 318.954 43.954C318.888 44.0847 318.846 44.248 318.828 44.444C318.93 44.444 319.028 44.4487 319.122 44.458C319.215 44.4673 319.304 44.4767 319.388 44.486C319.798 44.5233 320.106 44.542 320.312 44.542C320.722 44.542 321.035 44.4813 321.25 44.36C321.474 44.2387 321.586 44.0753 321.586 43.87C321.586 43.674 321.46 43.4967 321.208 43.338C320.965 43.1793 320.708 43.1 320.438 43.1ZM333.463 44.976C333.538 45.0227 333.683 45.1113 333.897 45.242C334.121 45.3633 334.271 45.508 334.345 45.676C334.42 45.844 334.457 46.0773 334.457 46.376C334.457 46.712 334.359 47.0107 334.163 47.272C333.967 47.524 333.715 47.72 333.407 47.86C333.193 47.9533 332.959 48.0093 332.707 48.028C332.465 48.0467 332.171 48.056 331.825 48.056C331.639 48.056 331.396 48.028 331.097 47.972C330.808 47.916 330.607 47.8647 330.495 47.818C330.197 47.65 329.945 47.454 329.739 47.23C329.534 47.006 329.431 46.7773 329.431 46.544C329.431 46.3573 329.492 46.208 329.613 46.096C329.735 45.984 329.893 45.928 330.089 45.928C330.192 45.928 330.29 45.956 330.383 46.012C330.486 46.0587 330.556 46.1147 330.593 46.18C330.696 46.4227 330.869 46.6047 331.111 46.726C331.354 46.8473 331.601 46.908 331.853 46.908C332.74 46.908 333.183 46.7493 333.183 46.432C333.183 46.348 333.16 46.2827 333.113 46.236C333.076 46.18 333.02 46.124 332.945 46.068C332.824 45.984 332.651 45.8953 332.427 45.802C332.213 45.7087 332.021 45.6387 331.853 45.592C331.471 45.508 331.097 45.382 330.733 45.214C330.397 45.046 330.122 44.8267 329.907 44.556C329.693 44.276 329.585 43.9353 329.585 43.534C329.585 43.2913 329.674 43.0533 329.851 42.82C330.038 42.5773 330.253 42.3953 330.495 42.274C330.663 42.2087 330.939 42.1387 331.321 42.064C331.704 41.9893 331.965 41.952 332.105 41.952C332.32 41.952 332.553 41.9753 332.805 42.022C333.057 42.0593 333.249 42.1247 333.379 42.218C333.631 42.3673 333.837 42.526 333.995 42.694C334.154 42.8527 334.233 43.0347 334.233 43.24C334.233 43.3427 334.21 43.4547 334.163 43.576C334.117 43.688 334.061 43.758 333.995 43.786C333.855 43.8513 333.692 43.884 333.505 43.884C333.421 43.884 333.351 43.8607 333.295 43.814C333.249 43.7673 333.183 43.6927 333.099 43.59C332.997 43.4313 332.899 43.338 332.805 43.31C332.693 43.282 332.53 43.2493 332.315 43.212C332.101 43.1653 331.956 43.142 331.881 43.142C331.648 43.142 331.424 43.1887 331.209 43.282C331.004 43.3753 330.901 43.5013 330.901 43.66C330.901 43.8467 331.055 44.0053 331.363 44.136C331.559 44.2293 331.774 44.3087 332.007 44.374C332.25 44.4393 332.399 44.4813 332.455 44.5C332.586 44.528 332.754 44.5933 332.959 44.696C333.174 44.7987 333.342 44.892 333.463 44.976ZM340.832 43.282C340.757 43.282 340.687 43.254 340.622 43.198C340.566 43.1327 340.538 43.058 340.538 42.974C340.538 42.7593 340.631 42.5587 340.818 42.372C340.874 42.344 340.986 42.2973 341.154 42.232C341.322 42.1667 341.471 42.134 341.602 42.134C341.956 42.134 342.246 42.232 342.47 42.428C342.694 42.6147 342.806 42.8853 342.806 43.24C342.806 43.3427 342.787 43.562 342.75 43.898C342.712 44.29 342.694 44.5933 342.694 44.808C342.694 45.4613 342.782 45.9887 342.96 46.39C343.025 46.5207 343.128 46.6233 343.268 46.698C343.408 46.7727 343.534 46.81 343.646 46.81C343.916 46.81 344.136 46.7633 344.304 46.67C344.472 46.5767 344.654 46.4273 344.85 46.222C345.046 46.0167 345.172 45.7833 345.228 45.522C345.293 45.2607 345.34 44.9013 345.368 44.444C345.386 44.1453 345.405 43.926 345.424 43.786C345.47 43.338 345.494 42.9553 345.494 42.638C345.494 42.4327 345.55 42.2647 345.662 42.134C345.774 41.994 345.928 41.924 346.124 41.924C346.236 41.924 346.362 41.9613 346.502 42.036C346.651 42.1013 346.749 42.1807 346.796 42.274C346.852 42.3673 346.88 42.5213 346.88 42.736C346.88 42.848 346.866 42.9553 346.838 43.058C346.772 43.2913 346.74 43.5713 346.74 43.898L346.754 44.626C346.754 45.2887 346.8 45.7787 346.894 46.096C346.94 46.2453 347.006 46.3993 347.09 46.558C347.174 46.7073 347.253 46.8333 347.328 46.936C347.514 47.1413 347.636 47.286 347.692 47.37C347.748 47.4447 347.776 47.5193 347.776 47.594C347.776 47.706 347.72 47.8133 347.608 47.916C347.505 48.0093 347.393 48.056 347.272 48.056C346.926 48.056 346.628 47.9393 346.376 47.706C346.124 47.4727 345.937 47.1693 345.816 46.796C345.498 47.16 345.204 47.454 344.934 47.678C344.747 47.8087 344.518 47.9067 344.248 47.972C343.977 48.028 343.706 48.056 343.436 48.056C343.072 48.056 342.703 47.9067 342.33 47.608C341.956 47.3093 341.704 46.964 341.574 46.572C341.564 46.5533 341.536 46.4787 341.49 46.348C341.452 46.2173 341.434 46.0213 341.434 45.76C341.434 45.4147 341.452 44.9807 341.49 44.458C341.518 44.122 341.532 43.814 341.532 43.534C341.532 43.45 341.499 43.38 341.434 43.324C341.378 43.268 341.312 43.24 341.238 43.24C341.182 43.24 341.116 43.2493 341.042 43.268C340.976 43.2773 340.906 43.282 340.832 43.282ZM355.724 45.83C355.724 46.1847 355.775 46.46 355.878 46.656C355.99 46.8427 356.13 46.936 356.298 46.936C356.391 46.936 356.48 46.9313 356.564 46.922C356.648 46.9033 356.732 46.894 356.816 46.894C356.909 46.894 356.989 46.9407 357.054 47.034C357.129 47.1273 357.166 47.23 357.166 47.342C357.166 47.566 357.059 47.7433 356.844 47.874C356.639 47.9953 356.359 48.056 356.004 48.056C355.752 48.056 355.495 47.9813 355.234 47.832C354.982 47.6733 354.772 47.4307 354.604 47.104C354.436 46.768 354.352 46.3527 354.352 45.858C354.352 44.794 354.371 43.8933 354.408 43.156C354.455 42.2787 354.478 41.1727 354.478 39.838C354.478 39.418 354.501 39.124 354.548 38.956C354.604 38.8253 354.693 38.7273 354.814 38.662C354.945 38.5873 355.08 38.55 355.22 38.55C355.36 38.55 355.481 38.5733 355.584 38.62C355.696 38.6667 355.771 38.7413 355.808 38.844C355.845 38.956 355.869 39.068 355.878 39.18C355.897 39.2827 355.906 39.432 355.906 39.628C355.906 40.0107 355.892 40.3793 355.864 40.734C355.845 41.1633 355.836 41.476 355.836 41.672C355.761 43.3147 355.724 44.7007 355.724 45.83ZM363.441 43.156C363.31 43.1373 363.203 43.0813 363.119 42.988C363.044 42.8947 363.007 42.7827 363.007 42.652C363.007 42.5867 363.021 42.5167 363.049 42.442C363.086 42.3673 363.138 42.302 363.203 42.246C363.324 42.1247 363.651 42.064 364.183 42.064C364.258 41.7 364.295 41.3313 364.295 40.958C364.295 40.818 364.29 40.6967 364.281 40.594C364.272 40.4913 364.267 40.412 364.267 40.356C364.267 40.1507 364.342 39.9967 364.491 39.894C364.65 39.7913 364.827 39.74 365.023 39.74C365.266 39.74 365.429 39.8007 365.513 39.922C365.606 40.0433 365.653 40.2673 365.653 40.594C365.653 41.0793 365.611 41.5553 365.527 42.022C365.676 42.022 365.882 42.0127 366.143 41.994C366.498 41.9753 366.754 41.966 366.913 41.966C367.072 41.966 367.207 42.008 367.319 42.092C367.44 42.1667 367.501 42.274 367.501 42.414C367.501 42.778 367.338 42.9927 367.011 43.058C366.666 43.142 366.129 43.1933 365.401 43.212C365.373 43.576 365.359 43.9727 365.359 44.402C365.359 45.074 365.401 45.6247 365.485 46.054C365.541 46.3527 365.634 46.572 365.765 46.712C365.905 46.8427 366.11 46.908 366.381 46.908C366.54 46.908 366.703 46.866 366.871 46.782C366.983 46.7167 367.086 46.684 367.179 46.684C367.31 46.684 367.403 46.726 367.459 46.81C367.524 46.894 367.557 47.006 367.557 47.146C367.557 47.4073 367.417 47.6267 367.137 47.804C366.857 47.972 366.498 48.056 366.059 48.056C365.788 48.056 365.513 47.9907 365.233 47.86C364.962 47.7293 364.734 47.566 364.547 47.37C364.519 47.342 364.468 47.2347 364.393 47.048C364.318 46.8613 364.253 46.6607 364.197 46.446C364.104 46.0073 364.057 45.3913 364.057 44.598C364.057 44.2527 364.076 43.7907 364.113 43.212L363.441 43.156ZM377.945 44.976C378.019 45.0227 378.164 45.1113 378.379 45.242C378.603 45.3633 378.752 45.508 378.827 45.676C378.901 45.844 378.939 46.0773 378.939 46.376C378.939 46.712 378.841 47.0107 378.645 47.272C378.449 47.524 378.197 47.72 377.889 47.86C377.674 47.9533 377.441 48.0093 377.189 48.028C376.946 48.0467 376.652 48.056 376.307 48.056C376.12 48.056 375.877 48.028 375.579 47.972C375.289 47.916 375.089 47.8647 374.977 47.818C374.678 47.65 374.426 47.454 374.221 47.23C374.015 47.006 373.913 46.7773 373.913 46.544C373.913 46.3573 373.973 46.208 374.095 46.096C374.216 45.984 374.375 45.928 374.571 45.928C374.673 45.928 374.771 45.956 374.865 46.012C374.967 46.0587 375.037 46.1147 375.075 46.18C375.177 46.4227 375.35 46.6047 375.593 46.726C375.835 46.8473 376.083 46.908 376.335 46.908C377.221 46.908 377.665 46.7493 377.665 46.432C377.665 46.348 377.641 46.2827 377.595 46.236C377.557 46.18 377.501 46.124 377.427 46.068C377.305 45.984 377.133 45.8953 376.909 45.802C376.694 45.7087 376.503 45.6387 376.335 45.592C375.952 45.508 375.579 45.382 375.215 45.214C374.879 45.046 374.603 44.8267 374.389 44.556C374.174 44.276 374.067 43.9353 374.067 43.534C374.067 43.2913 374.155 43.0533 374.333 42.82C374.519 42.5773 374.734 42.3953 374.977 42.274C375.145 42.2087 375.42 42.1387 375.803 42.064C376.185 41.9893 376.447 41.952 376.587 41.952C376.801 41.952 377.035 41.9753 377.287 42.022C377.539 42.0593 377.73 42.1247 377.861 42.218C378.113 42.3673 378.318 42.526 378.477 42.694C378.635 42.8527 378.715 43.0347 378.715 43.24C378.715 43.3427 378.691 43.4547 378.645 43.576C378.598 43.688 378.542 43.758 378.477 43.786C378.337 43.8513 378.173 43.884 377.987 43.884C377.903 43.884 377.833 43.8607 377.777 43.814C377.73 43.7673 377.665 43.6927 377.581 43.59C377.478 43.4313 377.38 43.338 377.287 43.31C377.175 43.282 377.011 43.2493 376.797 43.212C376.582 43.1653 376.437 43.142 376.363 43.142C376.129 43.142 375.905 43.1887 375.691 43.282C375.485 43.3753 375.383 43.5013 375.383 43.66C375.383 43.8467 375.537 44.0053 375.845 44.136C376.041 44.2293 376.255 44.3087 376.489 44.374C376.731 44.4393 376.881 44.4813 376.937 44.5C377.067 44.528 377.235 44.5933 377.441 44.696C377.655 44.7987 377.823 44.892 377.945 44.976ZM387.525 47.23C387.525 47.4633 387.432 47.6827 387.245 47.888C387.058 48.084 386.853 48.182 386.629 48.182C386.368 48.182 386.13 48.112 385.915 47.972C385.7 47.8227 385.593 47.636 385.593 47.412C385.593 47.0573 385.658 46.796 385.789 46.628C385.929 46.46 386.134 46.376 386.405 46.376C386.722 46.376 386.988 46.4553 387.203 46.614C387.418 46.7633 387.525 46.9687 387.525 47.23ZM396.29 47.23C396.29 47.4633 396.197 47.6827 396.01 47.888C395.824 48.084 395.618 48.182 395.394 48.182C395.133 48.182 394.895 48.112 394.68 47.972C394.466 47.8227 394.358 47.636 394.358 47.412C394.358 47.0573 394.424 46.796 394.554 46.628C394.694 46.46 394.9 46.376 395.17 46.376C395.488 46.376 395.754 46.4553 395.968 46.614C396.183 46.7633 396.29 46.9687 396.29 47.23ZM405.056 47.23C405.056 47.4633 404.962 47.6827 404.776 47.888C404.589 48.084 404.384 48.182 404.16 48.182C403.898 48.182 403.66 48.112 403.446 47.972C403.231 47.8227 403.124 47.636 403.124 47.412C403.124 47.0573 403.189 46.796 403.32 46.628C403.46 46.46 403.665 46.376 403.936 46.376C404.253 46.376 404.519 46.4553 404.734 46.614C404.948 46.7633 405.056 46.9687 405.056 47.23Z" fill="black"/>
<defs>
<linearGradient id="paint0_linear_220_2" x1="30.5979" y1="5.26196" x2="30.5979" y2="42.8479" gradientUnits="userSpaceOnUse">
<stop stop-color="#69C2FE"/>
<stop offset="1" stop-color="#2568FA"/>
</linearGradient>
<linearGradient id="paint1_linear_220_2" x1="45.2715" y1="5.23511" x2="45.2715" y2="42.8211" gradientUnits="userSpaceOnUse">
<stop stop-color="#093281"/>
<stop offset="1" stop-color="#5412CB"/>
</linearGradient>
<linearGradient id="paint2_linear_220_2" x1="14.4129" y1="5.26196" x2="14.4129" y2="33.4774" gradientUnits="userSpaceOnUse">
<stop stop-color="#093281"/>
<stop offset="1" stop-color="#3C87FC"/>
</linearGradient>
</defs>
</svg>
