<svg xmlns="http://www.w3.org/2000/svg" width="975.74" height="387.321" viewBox="0 0 975.74 387.321">
  <g id="digital-marketing-process-infographic-nitara-marketing" transform="translate(6323.741 3844.321)">
    <g id="Group_186" data-name="Group 186" transform="translate(-6398.969 -3844.321)">
      <path id="Path_1005" data-name="Path 1005" d="M180.631,607.908c-12.883,9.281-29.579,9.747-45.717,8.607-2.253-.159-4.491-.346-6.708-.547-.013,0-.031,0-.045-.006-.107-.01-.213-.02-.315-.026l-1.369-.129.107.2.336.634c-.121-.212-.241-.42-.362-.632-.036-.064-.075-.127-.111-.191-4.181-7.275-8.327-14.818-9.385-23.125-1.093-8.623,1.979-18.386,9.568-22.625a15.313,15.313,0,0,1,3.142-1.316c.454-.138.914-.25,1.379-.349a16.414,16.414,0,0,1,19.089,21.338c6.434-6.6,5.234-17.3,3.014-26.245s-4.916-18.9-.393-26.932a17.76,17.76,0,0,1,11.9-8.364c.152-.033.3-.066.457-.094a23.955,23.955,0,0,1,17.21,3.016c9.487,5.979,14.36,17.314,15.942,28.418C200.917,577.413,195.278,597.355,180.631,607.908Z" transform="translate(69.951 -231.647)" fill="#dbe1ef"/>
      <path id="Path_1006" data-name="Path 1006" d="M212.326,579.754a40.722,40.722,0,0,1-2.81,11.475,35.358,35.358,0,0,1-5.49,8.968,45.3,45.3,0,0,1-17.4,12.548A65.2,65.2,0,0,1,170.768,617c-2.253-.159-4.491-.346-6.708-.547-.013,0-.031,0-.045-.006-.107-.01-.213-.02-.315-.026l-1.369-.129.107.2.336.634c-.121-.212-.241-.42-.362-.632-.036-.064-.075-.127-.111-.191a35.725,35.725,0,0,0,3.326-47.065c.454-.138.914-.25,1.379-.349a37.69,37.69,0,0,1,3.438,5.694,36.93,36.93,0,0,1,3.186,22.975,37.758,37.758,0,0,1-9.566,18.833c.43-.03.865-.065,1.29-.1a66.2,66.2,0,0,0,23.4-5.962,42.147,42.147,0,0,0,15.789-12.955c4.425-6.1,6.375-13.444,6.71-20.9a88.222,88.222,0,0,0-2.5-23.883,100.245,100.245,0,0,0-8.423-22.945.721.721,0,0,1,.286-.951.613.613,0,0,1,.457-.094.534.534,0,0,1,.352.3c.461.9.913,1.8,1.347,2.708a101.384,101.384,0,0,1,7.937,23.805A81.62,81.62,0,0,1,212.326,579.754Z" transform="translate(34.098 -232.138)" fill="#fff"/>
      <path id="Path_1008" data-name="Path 1008" d="M372.567,406.849l-12.636-61.915L354.38,299.2l-12.3,7.955,1.7,50.4,19.627,52.214a6.842,6.842,0,1,0,9.157-2.919Z" transform="translate(-176.271 -215.806)" fill="#ffb7b7"/>
      <path id="Path_1009" data-name="Path 1009" d="M221.468,412.831l3.5-63.095-1.158-46.052,16.257,6.082,2.714,50.107-11.826,54.513a6.842,6.842,0,1,1-9.484-1.556Z" transform="translate(-143.352 -217.001)" fill="#ffb7b7"/>
      <path id="Path_1010" data-name="Path 1010" d="M152.924,505.452h8.306l3.952-32.04h-12.26Z" transform="translate(-40.76 -126.183)" fill="#ffb7b7"/>
      <path id="Path_1011" data-name="Path 1011" d="M266.049,698.9h16.36a10.426,10.426,0,0,1,10.425,10.425v.339H266.05Z" transform="translate(-156.004 -322.341)" fill="#2f2e41"/>
      <path id="Path_1012" data-name="Path 1012" d="M195.822,500.577l8.209,1.27,8.8-31.059-12.115-1.874Z" transform="translate(-52.195 -124.985)" fill="#ffb7b7"/>
      <path id="Path_1013" data-name="Path 1013" d="M308.948,693.488l16.167,2.5h0a10.426,10.426,0,0,1,8.709,11.9l-.052.335-26.47-4.095Z" transform="translate(-167 -320.9)" fill="#2f2e41"/>
      <path id="Path_1014" data-name="Path 1014" d="M254.3,603.2l-.043-.232-30.072-162.59a61.419,61.419,0,0,1,5.427-38.408l18.2-36.4,54.311,7.358,6.41,46.346,22.842,88.412-.023.072-29.265,92.96-19.18,1.262,16.99-82.98-31.109-70.659,2.194,153.6Z" transform="translate(-144.58 -233.494)" fill="#2f2e41"/>
      <path id="Path_1015" data-name="Path 1015" d="M308.279,352.656l-.358-.562c-.064-.1-6.662-10.041-24.614-3.4-18.326,6.776-32.527-6.311-32.668-6.444l-.07-.066-4.15-36.992-4.9-30.03,15.6-2.736,7.668-4.6,30.491-.543,8.024,6.311,13.173,1.436,1.206,27.363-.006.03Z" transform="translate(-149.466 -207.297)" fill="#e85a4f"/>
      <path id="Path_1016" data-name="Path 1016" d="M338.5,307.781v-23.43l3.7-6.761.151,0a11.105,11.105,0,0,1,7.673,3.486c3.726,3.786,5.414,10.093,5.017,18.747l-.007.158Z" transform="translate(-175.315 -210.045)" fill="#e85a4f"/>
      <path id="Path_1017" data-name="Path 1017" d="M243.55,305.3l-18.881-2.266-.015-.217c-.644-9.415,1-16.4,4.884-20.773a11.976,11.976,0,0,1,7.737-4.213l.109-.005,5.111,4.646Z" transform="translate(-144.935 -210.108)" fill="#e85a4f"/>
      <path id="Path_1018" data-name="Path 1018" d="M305.529,236.04H255.846a3.859,3.859,0,0,1-3.855-3.855V214.2a28.7,28.7,0,0,1,57.392,0v17.989A3.859,3.859,0,0,1,305.529,236.04Z" transform="translate(-152.257 -185.5)" fill="#2f2e41"/>
      <circle id="Ellipse_106" data-name="Ellipse 106" cx="21.039" cy="21.039" r="21.039" transform="translate(101.03 37.694) rotate(-61.337)" fill="#ffb7b7"/>
      <path id="Path_1019" data-name="Path 1019" d="M304.391,216.959H276.615a2.145,2.145,0,0,1-2.125-1.876l-.36-2.877a1.285,1.285,0,0,0-2.439-.384l-1.821,3.9a2.15,2.15,0,0,1-1.941,1.236H263.71a2.141,2.141,0,0,1-2.132-2.346l1.664-17.377a2.158,2.158,0,0,1,1.224-1.744,43.436,43.436,0,0,1,38.342.023,2.145,2.145,0,0,1,1.212,1.644l2.492,17.355a2.141,2.141,0,0,1-2.12,2.446Z" transform="translate(-154.81 -186.978)" fill="#2f2e41"/>
      <path id="Path_1020" data-name="Path 1020" d="M267.342,216.818l-1.037-1.037,45.08-45.081h87.361l44.077-44.987h86.232l43.506-43.845h542.521v1.467H573.172l-43.506,43.845H443.439l-44.077,44.987H311.993Z" transform="translate(-70.981 -21.821)" fill="#3f3d56"/>
      <circle id="Ellipse_107" data-name="Ellipse 107" cx="27.138" cy="27.138" r="27.138" transform="translate(346.173 77.747)" fill="#fff"/>
      <circle id="Ellipse_108" data-name="Ellipse 108" cx="7.335" cy="7.335" r="7.335" transform="translate(495.065 53.543)" fill="#cbcbcb"/>
      <circle id="Ellipse_109" data-name="Ellipse 109" cx="7.335" cy="7.335" r="7.335" transform="translate(1036.299 53.543)" fill="#cbcbcb"/>
      <circle id="Ellipse_110" data-name="Ellipse 110" cx="7.335" cy="7.335" r="7.335" transform="translate(748.549 53.543)" fill="#cbcbcb"/>
      <path id="Path_1021" data-name="Path 1021" d="M614.858,346.243a27.871,27.871,0,1,1,27.871-27.871A27.871,27.871,0,0,1,614.858,346.243Zm0-54.276a26.4,26.4,0,1,0,26.4,26.4A26.4,26.4,0,0,0,614.858,291.967Z" transform="translate(-241.547 -213.487)" fill="#3f3d56"/>
      <circle id="Ellipse_111" data-name="Ellipse 111" cx="19.39" cy="19.39" r="19.39" transform="translate(353.921 85.495)" fill="#bcd149"/>
      <path id="Path_1022" data-name="Path 1022" d="M504.344,148.217l-5.8-7.462,3.375-2.625,2.748,3.533,9.283-9.8,3.1,2.941Z" transform="translate(-132.881 -35.147)" fill="#fff"/>
      <circle id="Ellipse_112" data-name="Ellipse 112" cx="27.138" cy="27.138" r="27.138" transform="translate(212.683 122.488)" fill="#fff"/>
      <path id="Path_1023" data-name="Path 1023" d="M432.858,407.243a27.871,27.871,0,1,1,27.871-27.871,27.871,27.871,0,0,1-27.871,27.871Zm0-54.276a26.4,26.4,0,1,0,26.4,26.4,26.4,26.4,0,0,0-26.4-26.4Z" transform="translate(-193.037 -229.746)" fill="#3f3d56"/>
      <circle id="Ellipse_113" data-name="Ellipse 113" cx="19.39" cy="19.39" r="19.39" transform="translate(220.431 130.236)" fill="#bcd149"/>
      <path id="Path_1024" data-name="Path 1024" d="M322.344,209.217l-5.8-7.462,3.375-2.625,2.748,3.533,9.283-9.8,3.1,2.941Z" transform="translate(-84.371 -51.406)" fill="#fff"/>
    </g>
    <path id="Path_1256" data-name="Path 1256" d="M1.02,0V-10.5H4.605a6.285,6.285,0,0,1,3.038.653,4.116,4.116,0,0,1,1.77,1.83A6.218,6.218,0,0,1,9.99-5.25a6.218,6.218,0,0,1-.577,2.767,4.116,4.116,0,0,1-1.77,1.83A6.285,6.285,0,0,1,4.605,0ZM2.94-1.65H4.515A4.29,4.29,0,0,0,6.6-2.078a2.433,2.433,0,0,0,1.1-1.23,5.106,5.106,0,0,0,.33-1.942A5.119,5.119,0,0,0,7.7-7.185,2.465,2.465,0,0,0,6.6-8.43a4.228,4.228,0,0,0-2.085-.435H2.94ZM12.33-8.6a1.214,1.214,0,0,1-.863-.315,1.041,1.041,0,0,1-.337-.8,1.018,1.018,0,0,1,.337-.788,1.231,1.231,0,0,1,.863-.307,1.231,1.231,0,0,1,.862.307,1.018,1.018,0,0,1,.338.788,1.041,1.041,0,0,1-.338.8A1.214,1.214,0,0,1,12.33-8.6ZM11.37,0V-7.44h1.92V0ZM18.1-2.22a4.013,4.013,0,0,1-1-.12l-.555.555a2.653,2.653,0,0,0,.69.225q.435.09,1.41.18a3.893,3.893,0,0,1,2.16.7A1.951,1.951,0,0,1,21.48.9a2.374,2.374,0,0,1-.36,1.252,2.579,2.579,0,0,1-1.11.96,4.366,4.366,0,0,1-1.92.368,4.894,4.894,0,0,1-2.565-.593A1.945,1.945,0,0,1,14.55,1.11a2.141,2.141,0,0,1,.975-1.74,3.293,3.293,0,0,1-.517-.285,2.734,2.734,0,0,1-.382-.315v-.345l1.3-1.38a2.5,2.5,0,0,1-.87-1.965,2.611,2.611,0,0,1,.368-1.365A2.619,2.619,0,0,1,16.47-7.26,3.434,3.434,0,0,1,18.1-7.62a3.678,3.678,0,0,1,1.17.18h2.82v1.17l-1.275.09a2.663,2.663,0,0,1,.3,1.26,2.652,2.652,0,0,1-.36,1.365,2.556,2.556,0,0,1-1.042.975A3.41,3.41,0,0,1,18.1-2.22Zm0-1.47A1.471,1.471,0,0,0,19.073-4a1.1,1.1,0,0,0,.382-.9,1.1,1.1,0,0,0-.382-.9A1.471,1.471,0,0,0,18.1-6.12a1.488,1.488,0,0,0-.99.315,1.11,1.11,0,0,0-.375.9,1.11,1.11,0,0,0,.375.9A1.488,1.488,0,0,0,18.1-3.69ZM16.305.915a.893.893,0,0,0,.517.832,2.653,2.653,0,0,0,1.267.278,2.113,2.113,0,0,0,1.17-.293.9.9,0,0,0,.45-.788A.88.88,0,0,0,19.417.27a1.992,1.992,0,0,0-1.163-.33Q17.64-.105,17.115-.2a1.718,1.718,0,0,0-.622.525A1.052,1.052,0,0,0,16.305.915ZM24.18-8.6a1.214,1.214,0,0,1-.862-.315,1.041,1.041,0,0,1-.338-.8,1.018,1.018,0,0,1,.338-.788,1.231,1.231,0,0,1,.862-.307,1.231,1.231,0,0,1,.862.307,1.018,1.018,0,0,1,.338.788,1.041,1.041,0,0,1-.338.8A1.214,1.214,0,0,1,24.18-8.6ZM23.22,0V-7.44h1.92V0Zm6.9,0a2.893,2.893,0,0,1-1.875-.57,2.479,2.479,0,0,1-.7-2.025v-3.24H26.265V-7.44H27.54l.225-2H29.46v2h2.01v1.605H29.46V-2.58a.956.956,0,0,0,.233.743,1.23,1.23,0,0,0,.8.2h.93V0Zm5.22.18a3.52,3.52,0,0,1-1.575-.308,2.128,2.128,0,0,1-.915-.817,2.178,2.178,0,0,1-.3-1.125,2.047,2.047,0,0,1,.81-1.68,3.852,3.852,0,0,1,2.43-.645h1.89v-.18A1.377,1.377,0,0,0,37.245-5.7a1.637,1.637,0,0,0-1.08-.36,1.855,1.855,0,0,0-1.02.278,1.2,1.2,0,0,0-.54.818H32.73a2.617,2.617,0,0,1,.548-1.41A3.065,3.065,0,0,1,34.5-7.3a4.212,4.212,0,0,1,1.68-.323,3.691,3.691,0,0,1,2.5.8,2.821,2.821,0,0,1,.915,2.25V0H37.965l-.18-1.2a2.773,2.773,0,0,1-.923.99A2.72,2.72,0,0,1,35.34.18Zm.435-1.5a1.589,1.589,0,0,0,1.283-.54,2.622,2.622,0,0,0,.577-1.335H36a1.705,1.705,0,0,0-1.1.277.859.859,0,0,0-.33.682.786.786,0,0,0,.33.675A1.446,1.446,0,0,0,35.775-1.32ZM41.085,0V-10.8h1.92V0ZM47.9,0V-10.5h2.28L53.52-3.84l3.3-6.66H59.1V0H57.18V-7.245L54.255-1.5H52.74L49.815-7.245V0Zm15.42.18A3.52,3.52,0,0,1,61.74-.128a2.128,2.128,0,0,1-.915-.817,2.178,2.178,0,0,1-.3-1.125,2.047,2.047,0,0,1,.81-1.68,3.852,3.852,0,0,1,2.43-.645h1.89v-.18A1.377,1.377,0,0,0,65.22-5.7a1.637,1.637,0,0,0-1.08-.36,1.855,1.855,0,0,0-1.02.278,1.2,1.2,0,0,0-.54.818H60.705a2.617,2.617,0,0,1,.548-1.41A3.065,3.065,0,0,1,62.475-7.3a4.212,4.212,0,0,1,1.68-.323,3.691,3.691,0,0,1,2.505.8,2.821,2.821,0,0,1,.915,2.25V0H65.94l-.18-1.2a2.773,2.773,0,0,1-.923.99A2.72,2.72,0,0,1,63.315.18Zm.435-1.5a1.589,1.589,0,0,0,1.283-.54,2.622,2.622,0,0,0,.577-1.335H63.975a1.705,1.705,0,0,0-1.1.277.859.859,0,0,0-.33.682.786.786,0,0,0,.33.675A1.446,1.446,0,0,0,63.75-1.32ZM69.06,0V-7.44h1.71l.18,1.395a3.113,3.113,0,0,1,1.1-1.148,3.081,3.081,0,0,1,1.643-.428v2.025h-.54A3.05,3.05,0,0,0,72.03-5.4a1.515,1.515,0,0,0-.772.675A2.681,2.681,0,0,0,70.98-3.39V0Zm5.6,0V-10.8h1.92v6.375l2.64-3.015H81.5L78.45-4.05,81.99,0h-2.4L76.575-3.735V0ZM85.83.18a4.061,4.061,0,0,1-2-.48A3.474,3.474,0,0,1,82.47-1.65a3.993,3.993,0,0,1-.5-2.01,4.245,4.245,0,0,1,.488-2.055,3.539,3.539,0,0,1,1.35-1.4,3.966,3.966,0,0,1,2.033-.5,3.831,3.831,0,0,1,1.935.48,3.447,3.447,0,0,1,1.313,1.313,3.687,3.687,0,0,1,.472,1.852q0,.165-.007.345t-.022.375H83.88a1.938,1.938,0,0,0,.607,1.365,1.909,1.909,0,0,0,1.327.5,1.745,1.745,0,0,0,.983-.263,1.626,1.626,0,0,0,.592-.683h1.95a3.535,3.535,0,0,1-.7,1.283,3.439,3.439,0,0,1-1.2.908A3.794,3.794,0,0,1,85.83.18Zm.015-6.24a2.045,2.045,0,0,0-1.245.4,1.842,1.842,0,0,0-.69,1.207h3.705a1.619,1.619,0,0,0-.54-1.17A1.8,1.8,0,0,0,85.845-6.06ZM94.02,0a2.893,2.893,0,0,1-1.875-.57,2.479,2.479,0,0,1-.705-2.025v-3.24H90.165V-7.44H91.44l.225-2H93.36v2h2.01v1.605H93.36V-2.58a.956.956,0,0,0,.233.743,1.23,1.23,0,0,0,.8.2h.93V0Zm3.69-8.6a1.214,1.214,0,0,1-.863-.315,1.041,1.041,0,0,1-.338-.8,1.018,1.018,0,0,1,.338-.788,1.231,1.231,0,0,1,.863-.307,1.231,1.231,0,0,1,.862.307,1.018,1.018,0,0,1,.338.788,1.041,1.041,0,0,1-.338.8A1.214,1.214,0,0,1,97.71-8.6ZM96.75,0V-7.44h1.92V0Zm3.585,0V-7.44h1.695l.15,1.26a2.616,2.616,0,0,1,1-1.05,2.94,2.94,0,0,1,1.538-.39,2.706,2.706,0,0,1,2.145.87,3.754,3.754,0,0,1,.765,2.55V0h-1.92V-4.02a2.383,2.383,0,0,0-.39-1.47A1.432,1.432,0,0,0,104.1-6a1.712,1.712,0,0,0-1.327.57,2.28,2.28,0,0,0-.518,1.59V0ZM112.26-2.22a4.013,4.013,0,0,1-1-.12l-.555.555a2.653,2.653,0,0,0,.69.225q.435.09,1.41.18a3.893,3.893,0,0,1,2.16.7A1.951,1.951,0,0,1,115.635.9a2.374,2.374,0,0,1-.36,1.252,2.579,2.579,0,0,1-1.11.96,4.366,4.366,0,0,1-1.92.368,4.894,4.894,0,0,1-2.565-.593,1.945,1.945,0,0,1-.975-1.777,2.141,2.141,0,0,1,.975-1.74,3.294,3.294,0,0,1-.518-.285,2.734,2.734,0,0,1-.382-.315v-.345l1.305-1.38a2.5,2.5,0,0,1-.87-1.965,2.611,2.611,0,0,1,.368-1.365,2.619,2.619,0,0,1,1.042-.975,3.434,3.434,0,0,1,1.635-.36,3.678,3.678,0,0,1,1.17.18h2.82v1.17l-1.275.09a2.663,2.663,0,0,1,.3,1.26,2.652,2.652,0,0,1-.36,1.365,2.556,2.556,0,0,1-1.042.975A3.41,3.41,0,0,1,112.26-2.22Zm0-1.47A1.471,1.471,0,0,0,113.228-4a1.1,1.1,0,0,0,.382-.9,1.1,1.1,0,0,0-.382-.9,1.471,1.471,0,0,0-.967-.315,1.488,1.488,0,0,0-.99.315,1.11,1.11,0,0,0-.375.9,1.11,1.11,0,0,0,.375.9A1.488,1.488,0,0,0,112.26-3.69ZM110.46.915a.893.893,0,0,0,.518.832,2.653,2.653,0,0,0,1.268.278,2.113,2.113,0,0,0,1.17-.293.9.9,0,0,0,.45-.788.88.88,0,0,0-.293-.675,1.992,1.992,0,0,0-1.162-.33Q111.8-.105,111.27-.2a1.718,1.718,0,0,0-.623.525A1.052,1.052,0,0,0,110.46.915ZM119.9,0l3.84-10.5h2.16L129.735,0h-2.04l-.84-2.43h-4.1L121.905,0Zm3.39-3.93h3.045L124.8-8.3ZM133.335.18a2.7,2.7,0,0,1-2.152-.87,3.779,3.779,0,0,1-.758-2.55v-4.2h1.9v4.02a2.383,2.383,0,0,0,.39,1.47,1.45,1.45,0,0,0,1.23.51,1.7,1.7,0,0,0,1.313-.57,2.28,2.28,0,0,0,.518-1.59V-7.44h1.92V0h-1.7l-.15-1.26a2.616,2.616,0,0,1-1,1.05A2.911,2.911,0,0,1,133.335.18Zm9.4,0a3.493,3.493,0,0,1-1.875-.51,3.654,3.654,0,0,1-1.305-1.4,4.148,4.148,0,0,1-.48-2.01,4.1,4.1,0,0,1,.48-2,3.612,3.612,0,0,1,1.305-1.38,3.532,3.532,0,0,1,1.875-.5,3.248,3.248,0,0,1,1.47.315,2.65,2.65,0,0,1,1.02.885V-10.8h1.92V0h-1.71l-.21-1.065a3.417,3.417,0,0,1-.952.87A2.835,2.835,0,0,1,142.74.18Zm.4-1.68a2.009,2.009,0,0,0,1.522-.622,2.223,2.223,0,0,0,.592-1.6,2.223,2.223,0,0,0-.592-1.6,2.009,2.009,0,0,0-1.522-.622,2.027,2.027,0,0,0-1.515.615,2.181,2.181,0,0,0-.6,1.59,2.233,2.233,0,0,0,.6,1.6A2,2,0,0,0,143.145-1.5Zm6.645-7.1a1.214,1.214,0,0,1-.862-.315,1.041,1.041,0,0,1-.338-.8,1.018,1.018,0,0,1,.338-.788,1.231,1.231,0,0,1,.862-.307,1.231,1.231,0,0,1,.863.307,1.018,1.018,0,0,1,.338.788,1.041,1.041,0,0,1-.338.8A1.214,1.214,0,0,1,149.79-8.6ZM148.83,0V-7.44h1.92V0Zm6.9,0a2.893,2.893,0,0,1-1.875-.57,2.479,2.479,0,0,1-.7-2.025v-3.24h-1.275V-7.44h1.275l.225-2h1.7v2h2.01v1.605h-2.01V-2.58a.956.956,0,0,0,.232.743,1.23,1.23,0,0,0,.8.2h.93V0Z" transform="translate(-6176 -3645)" fill="#47536b"/>
    <path id="Path_1257" data-name="Path 1257" d="M-59.97.18A5.219,5.219,0,0,1-62.7-.5a4.554,4.554,0,0,1-1.755-1.905,6.211,6.211,0,0,1-.615-2.828,6.258,6.258,0,0,1,.615-2.835A4.594,4.594,0,0,1-62.7-9.99a5.174,5.174,0,0,1,2.73-.69,4.9,4.9,0,0,1,3.1.937A4.094,4.094,0,0,1-55.365-7.11H-57.48a2.26,2.26,0,0,0-.833-1.342A2.706,2.706,0,0,0-60-8.94a2.807,2.807,0,0,0-2.28.99,4.114,4.114,0,0,0-.825,2.715,4.083,4.083,0,0,0,.825,2.707A2.817,2.817,0,0,0-60-1.545,2.834,2.834,0,0,0-58.313-2,2.111,2.111,0,0,0-57.48-3.27h2.115A3.955,3.955,0,0,1-56.873-.735,4.987,4.987,0,0,1-59.97.18ZM-54.06,0V-10.8h1.92v4.5a2.689,2.689,0,0,1,1.013-.968,2.972,2.972,0,0,1,1.462-.353,2.683,2.683,0,0,1,2.138.87A3.779,3.779,0,0,1-46.77-4.2V0h-1.9V-4.02a2.418,2.418,0,0,0-.382-1.47A1.411,1.411,0,0,0-50.265-6a1.759,1.759,0,0,0-1.342.57,2.239,2.239,0,0,0-.533,1.59V0Zm12.39.18A4.061,4.061,0,0,1-43.665-.3,3.474,3.474,0,0,1-45.03-1.65a3.993,3.993,0,0,1-.495-2.01,4.245,4.245,0,0,1,.487-2.055,3.539,3.539,0,0,1,1.35-1.4,3.966,3.966,0,0,1,2.033-.5,3.831,3.831,0,0,1,1.935.48,3.447,3.447,0,0,1,1.313,1.313,3.687,3.687,0,0,1,.472,1.852q0,.165-.007.345t-.023.375H-43.62a1.938,1.938,0,0,0,.608,1.365,1.909,1.909,0,0,0,1.327.5,1.745,1.745,0,0,0,.982-.263,1.626,1.626,0,0,0,.593-.683h1.95a3.535,3.535,0,0,1-.7,1.283,3.439,3.439,0,0,1-1.2.908A3.794,3.794,0,0,1-41.67.18Zm.015-6.24a2.045,2.045,0,0,0-1.245.4,1.842,1.842,0,0,0-.69,1.207h3.705a1.619,1.619,0,0,0-.54-1.17A1.8,1.8,0,0,0-41.655-6.06Zm8.64,6.24a3.993,3.993,0,0,1-2.01-.5A3.6,3.6,0,0,1-36.4-1.695a4.029,4.029,0,0,1-.5-2.025,4.029,4.029,0,0,1,.5-2.025,3.6,3.6,0,0,1,1.373-1.38,3.993,3.993,0,0,1,2.01-.5,3.845,3.845,0,0,1,2.4.743A3.319,3.319,0,0,1-29.37-4.83H-31.4a1.48,1.48,0,0,0-.593-.848,1.781,1.781,0,0,0-1.042-.307,1.77,1.77,0,0,0-1.35.6,2.359,2.359,0,0,0-.555,1.665,2.359,2.359,0,0,0,.555,1.665,1.77,1.77,0,0,0,1.35.6,1.813,1.813,0,0,0,1.042-.3A1.451,1.451,0,0,0-31.4-2.61h2.025A3.393,3.393,0,0,1-30.615-.585,3.768,3.768,0,0,1-33.015.18Zm5.01-.18V-10.8h1.92v6.375l2.64-3.015h2.28L-24.21-4.05-20.67,0h-2.4l-3.015-3.735V0Zm8.175,0V-10.8h1.92V0Zm4.575-8.6a1.214,1.214,0,0,1-.863-.315,1.041,1.041,0,0,1-.337-.8,1.018,1.018,0,0,1,.337-.788,1.231,1.231,0,0,1,.863-.307,1.231,1.231,0,0,1,.862.307,1.018,1.018,0,0,1,.338.788,1.041,1.041,0,0,1-.338.8A1.214,1.214,0,0,1-15.255-8.6Zm-.96,8.6V-7.44h1.92V0Zm6.66.18A4.374,4.374,0,0,1-11.3-.142a3.006,3.006,0,0,1-1.2-.892,2.584,2.584,0,0,1-.54-1.32H-11.1a1.246,1.246,0,0,0,.488.742A1.631,1.631,0,0,0-9.585-1.3a1.383,1.383,0,0,0,.922-.255.76.76,0,0,0,.293-.585A.644.644,0,0,0-8.79-2.8a7.4,7.4,0,0,0-1.17-.338q-.48-.1-.975-.255a4.5,4.5,0,0,1-.908-.383,1.983,1.983,0,0,1-.667-.6,1.553,1.553,0,0,1-.255-.907,2.109,2.109,0,0,1,.787-1.665A3.3,3.3,0,0,1-9.765-7.62a3.333,3.333,0,0,1,2.107.615,2.493,2.493,0,0,1,.938,1.7H-8.535Q-8.7-6.135-9.78-6.135a1.412,1.412,0,0,0-.832.21.626.626,0,0,0-.293.525q0,.33.435.525a6.389,6.389,0,0,0,1.155.36q.78.18,1.432.4a2.407,2.407,0,0,1,1.043.645A1.751,1.751,0,0,1-6.45-2.25,2.089,2.089,0,0,1-6.81-1a2.487,2.487,0,0,1-1.08.87A4.055,4.055,0,0,1-9.555.18ZM-2.025,0A2.893,2.893,0,0,1-3.9-.57a2.479,2.479,0,0,1-.7-2.025v-3.24H-5.88V-7.44h1.275l.225-2h1.695v2h2.01v1.605h-2.01V-2.58a.956.956,0,0,0,.233.743,1.23,1.23,0,0,0,.8.2h.93V0Zm-106.23,18V7.5h3.585a6.285,6.285,0,0,1,3.037.653,4.116,4.116,0,0,1,1.77,1.83,6.218,6.218,0,0,1,.577,2.767,6.218,6.218,0,0,1-.577,2.767,4.116,4.116,0,0,1-1.77,1.83A6.285,6.285,0,0,1-104.67,18Zm1.92-1.65h1.575a4.29,4.29,0,0,0,2.085-.428,2.433,2.433,0,0,0,1.1-1.23,5.106,5.106,0,0,0,.33-1.943,5.119,5.119,0,0,0-.33-1.935,2.465,2.465,0,0,0-1.1-1.245,4.228,4.228,0,0,0-2.085-.435h-1.575Zm11.925,1.83a3.832,3.832,0,0,1-1.942-.5,3.634,3.634,0,0,1-1.365-1.372,4.018,4.018,0,0,1-.5-2.033,3.971,3.971,0,0,1,.51-2.033,3.689,3.689,0,0,1,1.372-1.372,3.832,3.832,0,0,1,1.942-.5,3.8,3.8,0,0,1,1.928.5A3.634,3.634,0,0,1-91.1,12.247a4.018,4.018,0,0,1,.5,2.033,4.018,4.018,0,0,1-.5,2.033,3.618,3.618,0,0,1-1.372,1.372A3.844,3.844,0,0,1-94.41,18.18Zm0-1.665a1.774,1.774,0,0,0,1.305-.563,2.288,2.288,0,0,0,.555-1.672,2.288,2.288,0,0,0-.555-1.672,1.758,1.758,0,0,0-1.29-.562,1.767,1.767,0,0,0-1.312.563,2.308,2.308,0,0,0-.548,1.672,2.308,2.308,0,0,0,.548,1.672A1.75,1.75,0,0,0-94.41,16.515Zm8.82,1.665a3.993,3.993,0,0,1-2.01-.5,3.6,3.6,0,0,1-1.372-1.38,4.029,4.029,0,0,1-.5-2.025,4.029,4.029,0,0,1,.5-2.025,3.6,3.6,0,0,1,1.372-1.38,3.993,3.993,0,0,1,2.01-.5,3.845,3.845,0,0,1,2.4.743,3.319,3.319,0,0,1,1.245,2.048H-83.97a1.48,1.48,0,0,0-.592-.847,1.781,1.781,0,0,0-1.042-.307,1.77,1.77,0,0,0-1.35.6,2.359,2.359,0,0,0-.555,1.665,2.359,2.359,0,0,0,.555,1.665,1.77,1.77,0,0,0,1.35.6,1.813,1.813,0,0,0,1.042-.3,1.451,1.451,0,0,0,.592-.855h2.025a3.393,3.393,0,0,1-1.245,2.025A3.768,3.768,0,0,1-85.59,18.18Zm7.8,0a2.7,2.7,0,0,1-2.152-.87,3.779,3.779,0,0,1-.757-2.55v-4.2h1.9v4.02a2.383,2.383,0,0,0,.39,1.47,1.45,1.45,0,0,0,1.23.51,1.7,1.7,0,0,0,1.313-.57,2.28,2.28,0,0,0,.518-1.59V10.56h1.92V18H-75.12l-.15-1.26a2.616,2.616,0,0,1-1,1.05A2.911,2.911,0,0,1-77.79,18.18Zm5.985-.18V10.56h1.695l.165,1.005a2.641,2.641,0,0,1,.952-.863,2.826,2.826,0,0,1,1.373-.323,2.55,2.55,0,0,1,2.445,1.335,2.89,2.89,0,0,1,1.087-.975,3.15,3.15,0,0,1,1.493-.36,2.846,2.846,0,0,1,2.235.87,3.705,3.705,0,0,1,.78,2.55V18H-61.5V13.98a2.493,2.493,0,0,0-.368-1.47A1.3,1.3,0,0,0-63,12a1.546,1.546,0,0,0-1.253.57,2.422,2.422,0,0,0-.472,1.59V18h-1.92V13.98a2.454,2.454,0,0,0-.375-1.47A1.339,1.339,0,0,0-68.175,12a1.53,1.53,0,0,0-1.238.57,2.422,2.422,0,0,0-.473,1.59V18Zm17.325.18a4.061,4.061,0,0,1-1.995-.48,3.474,3.474,0,0,1-1.365-1.35,3.993,3.993,0,0,1-.495-2.01,4.245,4.245,0,0,1,.487-2.055,3.539,3.539,0,0,1,1.35-1.4,3.966,3.966,0,0,1,2.033-.5,3.831,3.831,0,0,1,1.935.48,3.447,3.447,0,0,1,1.313,1.313,3.687,3.687,0,0,1,.472,1.852q0,.165-.007.345t-.023.375H-56.43a1.938,1.938,0,0,0,.608,1.365,1.909,1.909,0,0,0,1.327.495,1.745,1.745,0,0,0,.982-.262,1.626,1.626,0,0,0,.593-.683h1.95a3.535,3.535,0,0,1-.7,1.282,3.439,3.439,0,0,1-1.2.908A3.794,3.794,0,0,1-54.48,18.18Zm.015-6.24a2.045,2.045,0,0,0-1.245.4,1.842,1.842,0,0,0-.69,1.208h3.705a1.619,1.619,0,0,0-.54-1.17A1.8,1.8,0,0,0-54.465,11.94ZM-49.47,18V10.56h1.695l.15,1.26a2.616,2.616,0,0,1,1-1.05,2.94,2.94,0,0,1,1.537-.39,2.706,2.706,0,0,1,2.145.87,3.754,3.754,0,0,1,.765,2.55V18H-44.1V13.98a2.383,2.383,0,0,0-.39-1.47A1.432,1.432,0,0,0-45.7,12a1.712,1.712,0,0,0-1.328.57,2.28,2.28,0,0,0-.517,1.59V18Zm12.09,0a2.893,2.893,0,0,1-1.875-.57,2.479,2.479,0,0,1-.705-2.025v-3.24h-1.275V10.56h1.275l.225-1.995h1.695V10.56h2.01v1.605h-2.01V15.42a.956.956,0,0,0,.232.743,1.23,1.23,0,0,0,.8.2h.93V18Zm5.22.18a3.52,3.52,0,0,1-1.575-.308,2.128,2.128,0,0,1-.915-.817,2.178,2.178,0,0,1-.3-1.125,2.047,2.047,0,0,1,.81-1.68,3.852,3.852,0,0,1,2.43-.645h1.89v-.18a1.377,1.377,0,0,0-.435-1.125,1.637,1.637,0,0,0-1.08-.36,1.855,1.855,0,0,0-1.02.278,1.2,1.2,0,0,0-.54.818H-34.77a2.617,2.617,0,0,1,.548-1.41A3.065,3.065,0,0,1-33,10.7a4.212,4.212,0,0,1,1.68-.323,3.691,3.691,0,0,1,2.5.8,2.821,2.821,0,0,1,.915,2.25V18h-1.635l-.18-1.2a2.773,2.773,0,0,1-.923.99A2.72,2.72,0,0,1-32.16,18.18Zm.435-1.5a1.589,1.589,0,0,0,1.282-.54,2.622,2.622,0,0,0,.577-1.335H-31.5a1.705,1.705,0,0,0-1.1.278.859.859,0,0,0-.33.682.786.786,0,0,0,.33.675A1.446,1.446,0,0,0-31.725,16.68Zm8.52,1.32a2.893,2.893,0,0,1-1.875-.57,2.479,2.479,0,0,1-.705-2.025v-3.24H-27.06V10.56h1.275l.225-1.995h1.695V10.56h2.01v1.605h-2.01V15.42a.956.956,0,0,0,.233.743,1.23,1.23,0,0,0,.8.2h.93V18Zm3.69-8.6a1.214,1.214,0,0,1-.863-.315,1.041,1.041,0,0,1-.337-.8,1.018,1.018,0,0,1,.337-.788,1.231,1.231,0,0,1,.863-.307,1.231,1.231,0,0,1,.862.307,1.018,1.018,0,0,1,.337.788,1.041,1.041,0,0,1-.337.8A1.214,1.214,0,0,1-19.515,9.4Zm-.96,8.6V10.56h1.92V18Zm7.155.18a3.832,3.832,0,0,1-1.943-.5,3.634,3.634,0,0,1-1.365-1.372,4.018,4.018,0,0,1-.5-2.033,3.971,3.971,0,0,1,.51-2.033,3.689,3.689,0,0,1,1.372-1.372,3.832,3.832,0,0,1,1.942-.5,3.8,3.8,0,0,1,1.928.5,3.634,3.634,0,0,1,1.365,1.372,4.018,4.018,0,0,1,.5,2.033,4.018,4.018,0,0,1-.5,2.033,3.618,3.618,0,0,1-1.373,1.372A3.844,3.844,0,0,1-13.32,18.18Zm0-1.665a1.774,1.774,0,0,0,1.305-.563,2.288,2.288,0,0,0,.555-1.672,2.288,2.288,0,0,0-.555-1.672,1.758,1.758,0,0,0-1.29-.562,1.767,1.767,0,0,0-1.312.563,2.308,2.308,0,0,0-.547,1.672,2.308,2.308,0,0,0,.547,1.672A1.75,1.75,0,0,0-13.32,16.515ZM-8.145,18V10.56H-6.45l.15,1.26a2.616,2.616,0,0,1,1-1.05,2.94,2.94,0,0,1,1.537-.39,2.706,2.706,0,0,1,2.145.87A3.754,3.754,0,0,1-.855,13.8V18h-1.92V13.98a2.383,2.383,0,0,0-.39-1.47A1.432,1.432,0,0,0-4.38,12a1.712,1.712,0,0,0-1.327.57,2.28,2.28,0,0,0-.518,1.59V18Z" transform="translate(-6005 -3793)" fill="#47536b"/>
    <path id="Path_1258" data-name="Path 1258" d="M4.605.18a4.934,4.934,0,0,1-2.04-.4A3.279,3.279,0,0,1,1.17-1.357,3.2,3.2,0,0,1,.645-3.165H2.67A1.791,1.791,0,0,0,3.2-1.928a1.875,1.875,0,0,0,1.388.5A1.864,1.864,0,0,0,5.8-1.792a1.2,1.2,0,0,0,.45-.983,1.287,1.287,0,0,0-.4-1A3,3,0,0,0,4.8-4.365l-1.41-.48a4.642,4.642,0,0,1-1.852-1.08A2.419,2.419,0,0,1,.9-7.68a2.677,2.677,0,0,1,.443-1.6,3.012,3.012,0,0,1,1.252-1.035,4.317,4.317,0,0,1,1.83-.368,4.331,4.331,0,0,1,1.853.375,3.035,3.035,0,0,1,1.26,1.05A2.969,2.969,0,0,1,8.025-7.65H5.97a1.433,1.433,0,0,0-.428-.983A1.52,1.52,0,0,0,4.395-9.06a1.638,1.638,0,0,0-1.058.307,1.1,1.1,0,0,0-.427.938,1.083,1.083,0,0,0,.33.833,2.65,2.65,0,0,0,.9.517q.57.21,1.305.45a8.876,8.876,0,0,1,1.425.63,2.92,2.92,0,0,1,1.035.952A2.72,2.72,0,0,1,8.3-2.91a2.936,2.936,0,0,1-.42,1.53A3.021,3.021,0,0,1,6.63-.248,4.363,4.363,0,0,1,4.605.18ZM12.9,0a2.893,2.893,0,0,1-1.875-.57,2.479,2.479,0,0,1-.7-2.025v-3.24H9.045V-7.44H10.32l.225-2H12.24v2h2.01v1.605H12.24V-2.58a.956.956,0,0,0,.233.743,1.23,1.23,0,0,0,.8.2h.93V0Zm2.655,0V-7.44h1.71l.18,1.395a3.113,3.113,0,0,1,1.1-1.148A3.081,3.081,0,0,1,20.19-7.62v2.025h-.54a3.05,3.05,0,0,0-1.125.195,1.515,1.515,0,0,0-.772.675,2.681,2.681,0,0,0-.278,1.335V0Zm8.16.18A3.52,3.52,0,0,1,22.14-.128a2.128,2.128,0,0,1-.915-.817,2.178,2.178,0,0,1-.3-1.125,2.047,2.047,0,0,1,.81-1.68,3.852,3.852,0,0,1,2.43-.645h1.89v-.18A1.377,1.377,0,0,0,25.62-5.7a1.637,1.637,0,0,0-1.08-.36,1.855,1.855,0,0,0-1.02.278,1.2,1.2,0,0,0-.54.818H21.1a2.617,2.617,0,0,1,.548-1.41A3.065,3.065,0,0,1,22.875-7.3a4.212,4.212,0,0,1,1.68-.323,3.691,3.691,0,0,1,2.5.8,2.821,2.821,0,0,1,.915,2.25V0H26.34l-.18-1.2a2.773,2.773,0,0,1-.923.99A2.72,2.72,0,0,1,23.715.18Zm.435-1.5a1.589,1.589,0,0,0,1.282-.54,2.622,2.622,0,0,0,.577-1.335H24.375a1.705,1.705,0,0,0-1.1.277.859.859,0,0,0-.33.682.786.786,0,0,0,.33.675A1.446,1.446,0,0,0,24.15-1.32ZM32.67,0a2.893,2.893,0,0,1-1.875-.57,2.479,2.479,0,0,1-.7-2.025v-3.24H28.815V-7.44H30.09l.225-2H32.01v2h2.01v1.605H32.01V-2.58a.956.956,0,0,0,.233.743,1.23,1.23,0,0,0,.8.2h.93V0Zm6.075.18A4.061,4.061,0,0,1,36.75-.3a3.474,3.474,0,0,1-1.365-1.35,3.993,3.993,0,0,1-.495-2.01,4.245,4.245,0,0,1,.487-2.055,3.539,3.539,0,0,1,1.35-1.4,3.966,3.966,0,0,1,2.033-.5,3.831,3.831,0,0,1,1.935.48,3.447,3.447,0,0,1,1.313,1.313,3.687,3.687,0,0,1,.472,1.852q0,.165-.007.345t-.023.375H36.795A1.938,1.938,0,0,0,37.4-1.89a1.909,1.909,0,0,0,1.327.5,1.745,1.745,0,0,0,.982-.263,1.626,1.626,0,0,0,.593-.683h1.95a3.535,3.535,0,0,1-.7,1.283,3.439,3.439,0,0,1-1.2.908A3.794,3.794,0,0,1,38.745.18Zm.015-6.24a2.045,2.045,0,0,0-1.245.4,1.842,1.842,0,0,0-.69,1.207H40.53a1.619,1.619,0,0,0-.54-1.17A1.8,1.8,0,0,0,38.76-6.06Zm7.98,3.84a4.013,4.013,0,0,1-1.005-.12l-.555.555a2.653,2.653,0,0,0,.69.225q.435.09,1.41.18a3.893,3.893,0,0,1,2.16.7A1.951,1.951,0,0,1,50.115.9a2.374,2.374,0,0,1-.36,1.252,2.579,2.579,0,0,1-1.11.96,4.366,4.366,0,0,1-1.92.368,4.894,4.894,0,0,1-2.565-.593,1.945,1.945,0,0,1-.975-1.777A2.141,2.141,0,0,1,44.16-.63a3.293,3.293,0,0,1-.517-.285,2.734,2.734,0,0,1-.382-.315v-.345l1.305-1.38a2.5,2.5,0,0,1-.87-1.965,2.611,2.611,0,0,1,.368-1.365,2.619,2.619,0,0,1,1.043-.975,3.434,3.434,0,0,1,1.635-.36,3.678,3.678,0,0,1,1.17.18h2.82v1.17l-1.275.09a2.663,2.663,0,0,1,.3,1.26,2.652,2.652,0,0,1-.36,1.365,2.556,2.556,0,0,1-1.042.975A3.41,3.41,0,0,1,46.74-2.22Zm0-1.47A1.471,1.471,0,0,0,47.708-4a1.1,1.1,0,0,0,.383-.9,1.1,1.1,0,0,0-.383-.9,1.471,1.471,0,0,0-.967-.315,1.488,1.488,0,0,0-.99.315,1.11,1.11,0,0,0-.375.9,1.11,1.11,0,0,0,.375.9A1.488,1.488,0,0,0,46.74-3.69ZM44.94.915a.893.893,0,0,0,.517.832,2.653,2.653,0,0,0,1.268.278,2.113,2.113,0,0,0,1.17-.293.9.9,0,0,0,.45-.788A.88.88,0,0,0,48.053.27,1.992,1.992,0,0,0,46.89-.06Q46.275-.105,45.75-.2a1.718,1.718,0,0,0-.622.525A1.052,1.052,0,0,0,44.94.915ZM52.815-8.6a1.214,1.214,0,0,1-.862-.315,1.041,1.041,0,0,1-.337-.8,1.018,1.018,0,0,1,.337-.788,1.231,1.231,0,0,1,.862-.307,1.231,1.231,0,0,1,.863.307,1.018,1.018,0,0,1,.337.788,1.041,1.041,0,0,1-.337.8A1.214,1.214,0,0,1,52.815-8.6ZM51.855,0V-7.44h1.92V0Zm7.2.18A4.061,4.061,0,0,1,57.06-.3a3.474,3.474,0,0,1-1.365-1.35A3.993,3.993,0,0,1,55.2-3.66a4.245,4.245,0,0,1,.487-2.055,3.539,3.539,0,0,1,1.35-1.4,3.966,3.966,0,0,1,2.033-.5,3.831,3.831,0,0,1,1.935.48,3.447,3.447,0,0,1,1.313,1.313,3.687,3.687,0,0,1,.472,1.852q0,.165-.007.345t-.022.375H57.1a1.938,1.938,0,0,0,.608,1.365,1.909,1.909,0,0,0,1.327.5,1.745,1.745,0,0,0,.982-.263,1.626,1.626,0,0,0,.593-.683h1.95a3.535,3.535,0,0,1-.7,1.283,3.439,3.439,0,0,1-1.2.908A3.794,3.794,0,0,1,59.055.18Zm.015-6.24a2.045,2.045,0,0,0-1.245.4,1.842,1.842,0,0,0-.69,1.207h3.7a1.619,1.619,0,0,0-.54-1.17A1.8,1.8,0,0,0,59.07-6.06ZM67.14.18A4.374,4.374,0,0,1,65.4-.142a3.006,3.006,0,0,1-1.2-.892,2.584,2.584,0,0,1-.54-1.32H65.6a1.246,1.246,0,0,0,.487.742A1.631,1.631,0,0,0,67.11-1.3a1.383,1.383,0,0,0,.923-.255.76.76,0,0,0,.292-.585A.644.644,0,0,0,67.9-2.8a7.4,7.4,0,0,0-1.17-.338q-.48-.1-.975-.255a4.5,4.5,0,0,1-.908-.383,1.984,1.984,0,0,1-.668-.6,1.553,1.553,0,0,1-.255-.907,2.109,2.109,0,0,1,.787-1.665A3.3,3.3,0,0,1,66.93-7.62a3.333,3.333,0,0,1,2.107.615,2.493,2.493,0,0,1,.938,1.7H68.16Q68-6.135,66.915-6.135a1.412,1.412,0,0,0-.833.21.626.626,0,0,0-.292.525q0,.33.435.525a6.389,6.389,0,0,0,1.155.36q.78.18,1.433.4a2.407,2.407,0,0,1,1.043.645,1.751,1.751,0,0,1,.39,1.223A2.089,2.089,0,0,1,69.885-1a2.487,2.487,0,0,1-1.08.87A4.055,4.055,0,0,1,67.14.18ZM1.02,18V7.5H2.94V18Zm3.57,0V10.56H6.285l.165,1.005A2.641,2.641,0,0,1,7.4,10.7a2.826,2.826,0,0,1,1.373-.323,2.55,2.55,0,0,1,2.445,1.335,2.89,2.89,0,0,1,1.087-.975,3.15,3.15,0,0,1,1.493-.36,2.846,2.846,0,0,1,2.235.87,3.705,3.705,0,0,1,.78,2.55V18h-1.92V13.98a2.493,2.493,0,0,0-.367-1.47A1.3,1.3,0,0,0,13.395,12a1.546,1.546,0,0,0-1.252.57,2.422,2.422,0,0,0-.472,1.59V18H9.75V13.98a2.454,2.454,0,0,0-.375-1.47A1.339,1.339,0,0,0,8.22,12a1.53,1.53,0,0,0-1.238.57,2.422,2.422,0,0,0-.472,1.59V18ZM18.3,21.3V10.56h1.71l.21,1.065a3.417,3.417,0,0,1,.952-.87,2.835,2.835,0,0,1,1.538-.375,3.493,3.493,0,0,1,1.875.51,3.654,3.654,0,0,1,1.3,1.4,4.148,4.148,0,0,1,.48,2.01,4.1,4.1,0,0,1-.48,2,3.612,3.612,0,0,1-1.3,1.38,3.532,3.532,0,0,1-1.875.5,3.248,3.248,0,0,1-1.47-.315,2.65,2.65,0,0,1-1.02-.885V21.3Zm4-4.8a2.027,2.027,0,0,0,1.515-.615,2.181,2.181,0,0,0,.6-1.59,2.233,2.233,0,0,0-.6-1.6,2.155,2.155,0,0,0-3.037-.008,2.223,2.223,0,0,0-.593,1.6,2.223,2.223,0,0,0,.593,1.6A2.009,2.009,0,0,0,22.305,16.5Zm5.43,1.5V7.2h1.92V18Zm7.155.18A4.061,4.061,0,0,1,32.9,17.7a3.474,3.474,0,0,1-1.365-1.35,3.993,3.993,0,0,1-.495-2.01,4.245,4.245,0,0,1,.487-2.055,3.539,3.539,0,0,1,1.35-1.4,3.966,3.966,0,0,1,2.033-.5,3.831,3.831,0,0,1,1.935.48,3.447,3.447,0,0,1,1.313,1.313,3.687,3.687,0,0,1,.472,1.852q0,.165-.007.345t-.022.375H32.94a1.938,1.938,0,0,0,.608,1.365,1.909,1.909,0,0,0,1.327.495,1.745,1.745,0,0,0,.982-.262,1.626,1.626,0,0,0,.593-.683H38.4a3.535,3.535,0,0,1-.7,1.282,3.439,3.439,0,0,1-1.2.908A3.794,3.794,0,0,1,34.89,18.18Zm.015-6.24a2.045,2.045,0,0,0-1.245.4,1.842,1.842,0,0,0-.69,1.208h3.7a1.619,1.619,0,0,0-.54-1.17A1.8,1.8,0,0,0,34.9,11.94ZM39.9,18V10.56h1.7l.165,1.005a2.641,2.641,0,0,1,.952-.863,2.826,2.826,0,0,1,1.373-.323,2.55,2.55,0,0,1,2.445,1.335,2.89,2.89,0,0,1,1.088-.975,3.15,3.15,0,0,1,1.493-.36,2.846,2.846,0,0,1,2.235.87,3.705,3.705,0,0,1,.78,2.55V18H50.2V13.98a2.493,2.493,0,0,0-.367-1.47A1.3,1.3,0,0,0,48.7,12a1.546,1.546,0,0,0-1.252.57,2.422,2.422,0,0,0-.472,1.59V18H45.06V13.98a2.454,2.454,0,0,0-.375-1.47A1.339,1.339,0,0,0,43.53,12a1.53,1.53,0,0,0-1.237.57,2.422,2.422,0,0,0-.472,1.59V18Zm17.325.18a4.061,4.061,0,0,1-1.995-.48,3.474,3.474,0,0,1-1.365-1.35,3.993,3.993,0,0,1-.495-2.01,4.245,4.245,0,0,1,.487-2.055,3.539,3.539,0,0,1,1.35-1.4,3.966,3.966,0,0,1,2.033-.5,3.831,3.831,0,0,1,1.935.48,3.447,3.447,0,0,1,1.313,1.313,3.687,3.687,0,0,1,.472,1.852q0,.165-.007.345t-.022.375H55.275a1.938,1.938,0,0,0,.608,1.365,1.909,1.909,0,0,0,1.327.495,1.745,1.745,0,0,0,.982-.262,1.626,1.626,0,0,0,.593-.683h1.95a3.535,3.535,0,0,1-.7,1.282,3.439,3.439,0,0,1-1.2.908A3.794,3.794,0,0,1,57.225,18.18Zm.015-6.24a2.045,2.045,0,0,0-1.245.4,1.842,1.842,0,0,0-.69,1.208h3.7a1.619,1.619,0,0,0-.54-1.17A1.8,1.8,0,0,0,57.24,11.94ZM62.235,18V10.56h1.7l.15,1.26a2.616,2.616,0,0,1,1-1.05,2.94,2.94,0,0,1,1.537-.39,2.706,2.706,0,0,1,2.145.87,3.754,3.754,0,0,1,.765,2.55V18H67.6V13.98a2.383,2.383,0,0,0-.39-1.47A1.432,1.432,0,0,0,66,12a1.712,1.712,0,0,0-1.327.57,2.28,2.28,0,0,0-.518,1.59V18Zm12.09,0a2.893,2.893,0,0,1-1.875-.57,2.479,2.479,0,0,1-.705-2.025v-3.24H70.47V10.56h1.275l.225-1.995h1.695V10.56h2.01v1.605h-2.01V15.42a.956.956,0,0,0,.233.743,1.23,1.23,0,0,0,.8.2h.93V18Zm5.22.18a3.52,3.52,0,0,1-1.575-.308,2.128,2.128,0,0,1-.915-.817,2.178,2.178,0,0,1-.3-1.125,2.047,2.047,0,0,1,.81-1.68,3.852,3.852,0,0,1,2.43-.645h1.89v-.18A1.377,1.377,0,0,0,81.45,12.3a1.637,1.637,0,0,0-1.08-.36,1.855,1.855,0,0,0-1.02.278,1.2,1.2,0,0,0-.54.818H76.935a2.617,2.617,0,0,1,.548-1.41A3.065,3.065,0,0,1,78.7,10.7a4.212,4.212,0,0,1,1.68-.323,3.691,3.691,0,0,1,2.505.8,2.821,2.821,0,0,1,.915,2.25V18H82.17l-.18-1.2a2.773,2.773,0,0,1-.923.99A2.72,2.72,0,0,1,79.545,18.18Zm.435-1.5a1.589,1.589,0,0,0,1.283-.54,2.622,2.622,0,0,0,.577-1.335H80.2a1.705,1.705,0,0,0-1.095.278.859.859,0,0,0-.33.682.786.786,0,0,0,.33.675A1.446,1.446,0,0,0,79.98,16.68ZM88.5,18a2.893,2.893,0,0,1-1.875-.57,2.479,2.479,0,0,1-.705-2.025v-3.24H84.645V10.56H85.92l.225-1.995H87.84V10.56h2.01v1.605H87.84V15.42a.956.956,0,0,0,.233.743,1.23,1.23,0,0,0,.8.2h.93V18Zm3.69-8.6a1.214,1.214,0,0,1-.863-.315,1.041,1.041,0,0,1-.338-.8,1.018,1.018,0,0,1,.338-.788,1.363,1.363,0,0,1,1.725,0,1.018,1.018,0,0,1,.338.788,1.041,1.041,0,0,1-.338.8A1.214,1.214,0,0,1,92.19,9.4ZM91.23,18V10.56h1.92V18Zm7.155.18a3.832,3.832,0,0,1-1.942-.5,3.634,3.634,0,0,1-1.365-1.372,4.018,4.018,0,0,1-.5-2.033,3.971,3.971,0,0,1,.51-2.033,3.689,3.689,0,0,1,1.372-1.372,4.029,4.029,0,0,1,3.87,0,3.634,3.634,0,0,1,1.365,1.372,4.018,4.018,0,0,1,.5,2.033,4.018,4.018,0,0,1-.5,2.033,3.618,3.618,0,0,1-1.372,1.372A3.844,3.844,0,0,1,98.385,18.18Zm0-1.665a1.774,1.774,0,0,0,1.305-.563,2.288,2.288,0,0,0,.555-1.672,2.288,2.288,0,0,0-.555-1.672,1.786,1.786,0,0,0-2.6,0,2.308,2.308,0,0,0-.548,1.672,2.308,2.308,0,0,0,.548,1.672A1.75,1.75,0,0,0,98.385,16.515ZM103.56,18V10.56h1.695l.15,1.26a2.616,2.616,0,0,1,1-1.05,2.94,2.94,0,0,1,1.538-.39,2.706,2.706,0,0,1,2.145.87,3.754,3.754,0,0,1,.765,2.55V18h-1.92V13.98a2.383,2.383,0,0,0-.39-1.47,1.432,1.432,0,0,0-1.215-.51,1.712,1.712,0,0,0-1.327.57,2.28,2.28,0,0,0-.518,1.59V18Z" transform="translate(-5901 -3821)" fill="#47536b"/>
    <path id="Path_1259" data-name="Path 1259" d="M3.465,0V-8.955H.405V-10.5H8.46v1.545H5.385V0Zm5.3,0V-7.44h1.71l.18,1.395a3.113,3.113,0,0,1,1.1-1.148A3.081,3.081,0,0,1,13.4-7.62v2.025h-.54A3.05,3.05,0,0,0,11.73-5.4a1.515,1.515,0,0,0-.772.675A2.681,2.681,0,0,0,10.68-3.39V0Zm8.16.18a3.52,3.52,0,0,1-1.575-.308,2.128,2.128,0,0,1-.915-.817,2.178,2.178,0,0,1-.3-1.125,2.047,2.047,0,0,1,.81-1.68,3.852,3.852,0,0,1,2.43-.645h1.89v-.18A1.377,1.377,0,0,0,18.825-5.7a1.637,1.637,0,0,0-1.08-.36,1.855,1.855,0,0,0-1.02.278,1.2,1.2,0,0,0-.54.818H14.31a2.617,2.617,0,0,1,.547-1.41A3.065,3.065,0,0,1,16.08-7.3a4.212,4.212,0,0,1,1.68-.323,3.691,3.691,0,0,1,2.5.8,2.821,2.821,0,0,1,.915,2.25V0H19.545l-.18-1.2a2.773,2.773,0,0,1-.922.99A2.72,2.72,0,0,1,16.92.18Zm.435-1.5a1.589,1.589,0,0,0,1.283-.54,2.622,2.622,0,0,0,.577-1.335H17.58a1.705,1.705,0,0,0-1.095.277.859.859,0,0,0-.33.682.786.786,0,0,0,.33.675A1.446,1.446,0,0,0,17.355-1.32ZM26.31.18a3.993,3.993,0,0,1-2.01-.5,3.6,3.6,0,0,1-1.373-1.38,4.029,4.029,0,0,1-.5-2.025,4.029,4.029,0,0,1,.5-2.025A3.6,3.6,0,0,1,24.3-7.125a3.993,3.993,0,0,1,2.01-.5,3.845,3.845,0,0,1,2.4.743A3.319,3.319,0,0,1,29.955-4.83H27.93a1.48,1.48,0,0,0-.592-.848A1.781,1.781,0,0,0,26.3-5.985a1.77,1.77,0,0,0-1.35.6A2.359,2.359,0,0,0,24.39-3.72a2.359,2.359,0,0,0,.555,1.665,1.77,1.77,0,0,0,1.35.6,1.813,1.813,0,0,0,1.043-.3,1.451,1.451,0,0,0,.592-.855h2.025A3.393,3.393,0,0,1,28.71-.585,3.768,3.768,0,0,1,26.31.18ZM31.32,0V-10.8h1.92v6.375L35.88-7.44h2.28L35.115-4.05,38.655,0h-2.4L33.24-3.735V0Zm9.21-8.6a1.214,1.214,0,0,1-.862-.315,1.041,1.041,0,0,1-.337-.8,1.018,1.018,0,0,1,.337-.788,1.231,1.231,0,0,1,.862-.307,1.231,1.231,0,0,1,.863.307,1.018,1.018,0,0,1,.337.788,1.041,1.041,0,0,1-.337.8A1.214,1.214,0,0,1,40.53-8.6ZM39.57,0V-7.44h1.92V0Zm3.585,0V-7.44H44.85L45-6.18a2.616,2.616,0,0,1,1-1.05,2.94,2.94,0,0,1,1.537-.39,2.706,2.706,0,0,1,2.145.87,3.754,3.754,0,0,1,.765,2.55V0h-1.92V-4.02a2.383,2.383,0,0,0-.39-1.47A1.432,1.432,0,0,0,46.92-6a1.712,1.712,0,0,0-1.328.57,2.28,2.28,0,0,0-.517,1.59V0ZM55.08-2.22a4.013,4.013,0,0,1-1.005-.12l-.555.555a2.653,2.653,0,0,0,.69.225q.435.09,1.41.18a3.893,3.893,0,0,1,2.16.7A1.951,1.951,0,0,1,58.455.9a2.374,2.374,0,0,1-.36,1.252,2.579,2.579,0,0,1-1.11.96,4.366,4.366,0,0,1-1.92.368A4.894,4.894,0,0,1,52.5,2.887a1.945,1.945,0,0,1-.975-1.777A2.141,2.141,0,0,1,52.5-.63a3.293,3.293,0,0,1-.517-.285A2.734,2.734,0,0,1,51.6-1.23v-.345l1.305-1.38a2.5,2.5,0,0,1-.87-1.965A2.611,2.611,0,0,1,52.4-6.285a2.619,2.619,0,0,1,1.043-.975,3.434,3.434,0,0,1,1.635-.36,3.678,3.678,0,0,1,1.17.18h2.82v1.17L57.8-6.18a2.663,2.663,0,0,1,.3,1.26,2.652,2.652,0,0,1-.36,1.365,2.556,2.556,0,0,1-1.042.975A3.41,3.41,0,0,1,55.08-2.22Zm0-1.47A1.471,1.471,0,0,0,56.048-4a1.1,1.1,0,0,0,.382-.9,1.1,1.1,0,0,0-.382-.9,1.471,1.471,0,0,0-.967-.315,1.488,1.488,0,0,0-.99.315,1.11,1.11,0,0,0-.375.9,1.11,1.11,0,0,0,.375.9A1.488,1.488,0,0,0,55.08-3.69ZM53.28.915a.893.893,0,0,0,.517.832,2.653,2.653,0,0,0,1.268.278,2.113,2.113,0,0,0,1.17-.293.9.9,0,0,0,.45-.788A.88.88,0,0,0,56.393.27,1.992,1.992,0,0,0,55.23-.06Q54.615-.105,54.09-.2a1.718,1.718,0,0,0-.622.525A1.052,1.052,0,0,0,53.28.915ZM66.66,0a2.893,2.893,0,0,1-1.875-.57,2.479,2.479,0,0,1-.7-2.025v-3.24H62.805V-7.44H64.08l.225-2H66v2h2.01v1.605H66V-2.58a.956.956,0,0,0,.232.743,1.23,1.23,0,0,0,.8.2h.93V0Zm2.655,0V-10.8h1.92v4.5a2.689,2.689,0,0,1,1.013-.968A2.972,2.972,0,0,1,73.71-7.62a2.683,2.683,0,0,1,2.137.87A3.779,3.779,0,0,1,76.6-4.2V0H74.7V-4.02a2.418,2.418,0,0,0-.382-1.47A1.411,1.411,0,0,0,73.11-6a1.759,1.759,0,0,0-1.342.57,2.239,2.239,0,0,0-.533,1.59V0Zm12.39.18a4.061,4.061,0,0,1-2-.48,3.474,3.474,0,0,1-1.365-1.35,3.993,3.993,0,0,1-.5-2.01,4.245,4.245,0,0,1,.488-2.055,3.539,3.539,0,0,1,1.35-1.4,3.966,3.966,0,0,1,2.033-.5,3.831,3.831,0,0,1,1.935.48,3.447,3.447,0,0,1,1.313,1.313,3.687,3.687,0,0,1,.472,1.852q0,.165-.007.345t-.022.375H79.755a1.938,1.938,0,0,0,.607,1.365,1.909,1.909,0,0,0,1.327.5,1.745,1.745,0,0,0,.983-.263,1.626,1.626,0,0,0,.592-.683h1.95a3.535,3.535,0,0,1-.7,1.283,3.439,3.439,0,0,1-1.2.908A3.794,3.794,0,0,1,81.705.18Zm.015-6.24a2.045,2.045,0,0,0-1.245.4,1.842,1.842,0,0,0-.69,1.207H83.49a1.619,1.619,0,0,0-.54-1.17A1.8,1.8,0,0,0,81.72-6.06ZM1.02,18V7.5H4.9a4.579,4.579,0,0,1,2.085.42A2.815,2.815,0,0,1,8.22,9.075a3.361,3.361,0,0,1,.405,1.65,3.327,3.327,0,0,1-.39,1.6,2.866,2.866,0,0,1-1.215,1.17,4.454,4.454,0,0,1-2.115.442H2.94V18Zm1.92-5.625H4.785a1.99,1.99,0,0,0,1.447-.443,1.632,1.632,0,0,0,.443-1.207A1.652,1.652,0,0,0,6.232,9.5,1.99,1.99,0,0,0,4.785,9.06H2.94ZM12.975,18.18a4.061,4.061,0,0,1-2-.48,3.474,3.474,0,0,1-1.365-1.35,3.993,3.993,0,0,1-.495-2.01,4.245,4.245,0,0,1,.488-2.055,3.539,3.539,0,0,1,1.35-1.4,3.966,3.966,0,0,1,2.032-.5,3.831,3.831,0,0,1,1.935.48,3.447,3.447,0,0,1,1.313,1.313,3.687,3.687,0,0,1,.472,1.852q0,.165-.007.345t-.022.375H11.025a1.938,1.938,0,0,0,.608,1.365,1.909,1.909,0,0,0,1.328.495,1.745,1.745,0,0,0,.982-.262,1.626,1.626,0,0,0,.592-.683h1.95a3.535,3.535,0,0,1-.7,1.282,3.439,3.439,0,0,1-1.2.908A3.794,3.794,0,0,1,12.975,18.18Zm.015-6.24a2.045,2.045,0,0,0-1.245.4,1.842,1.842,0,0,0-.69,1.208h3.7a1.619,1.619,0,0,0-.54-1.17A1.8,1.8,0,0,0,12.99,11.94Zm5,6.06V10.56h1.71l.18,1.4a3.113,3.113,0,0,1,1.1-1.148,3.081,3.081,0,0,1,1.642-.428v2.025h-.54a3.05,3.05,0,0,0-1.125.195,1.515,1.515,0,0,0-.772.675,2.681,2.681,0,0,0-.278,1.335V18Zm5.94,0V12.165H22.9V10.56h1.02V9.69a2.377,2.377,0,0,1,.683-1.92A2.8,2.8,0,0,1,26.46,7.2h.825V8.835H26.76a1.025,1.025,0,0,0-.7.195.871.871,0,0,0-.21.66v.87H27.45v1.605H25.845V18Zm7.965.18a3.832,3.832,0,0,1-1.943-.5,3.634,3.634,0,0,1-1.365-1.372,4.018,4.018,0,0,1-.5-2.033,3.971,3.971,0,0,1,.51-2.033,3.689,3.689,0,0,1,1.372-1.372,4.029,4.029,0,0,1,3.87,0A3.634,3.634,0,0,1,35.2,12.247a4.018,4.018,0,0,1,.5,2.033,4.018,4.018,0,0,1-.5,2.033,3.618,3.618,0,0,1-1.372,1.372A3.844,3.844,0,0,1,31.89,18.18Zm0-1.665a1.774,1.774,0,0,0,1.305-.563,2.288,2.288,0,0,0,.555-1.672,2.288,2.288,0,0,0-.555-1.672,1.786,1.786,0,0,0-2.6,0,2.308,2.308,0,0,0-.547,1.672,2.308,2.308,0,0,0,.547,1.672A1.75,1.75,0,0,0,31.89,16.515ZM37.065,18V10.56h1.71l.18,1.4a3.113,3.113,0,0,1,1.1-1.148A3.081,3.081,0,0,1,41.7,10.38v2.025h-.54a3.05,3.05,0,0,0-1.125.195,1.515,1.515,0,0,0-.772.675,2.681,2.681,0,0,0-.278,1.335V18Zm5.6,0V10.56h1.7l.165,1.005a2.641,2.641,0,0,1,.952-.863,2.826,2.826,0,0,1,1.373-.323,2.55,2.55,0,0,1,2.445,1.335,2.89,2.89,0,0,1,1.088-.975,3.15,3.15,0,0,1,1.493-.36,2.846,2.846,0,0,1,2.235.87,3.705,3.705,0,0,1,.78,2.55V18h-1.92V13.98a2.493,2.493,0,0,0-.367-1.47A1.3,1.3,0,0,0,51.465,12a1.546,1.546,0,0,0-1.252.57,2.422,2.422,0,0,0-.472,1.59V18H47.82V13.98a2.454,2.454,0,0,0-.375-1.47A1.339,1.339,0,0,0,46.29,12a1.53,1.53,0,0,0-1.237.57,2.422,2.422,0,0,0-.472,1.59V18Zm16.275.18a3.52,3.52,0,0,1-1.575-.308,2.128,2.128,0,0,1-.915-.817,2.178,2.178,0,0,1-.3-1.125,2.047,2.047,0,0,1,.81-1.68,3.852,3.852,0,0,1,2.43-.645h1.89v-.18A1.377,1.377,0,0,0,60.84,12.3a1.637,1.637,0,0,0-1.08-.36,1.855,1.855,0,0,0-1.02.278,1.2,1.2,0,0,0-.54.818H56.325a2.617,2.617,0,0,1,.548-1.41A3.065,3.065,0,0,1,58.1,10.7a4.212,4.212,0,0,1,1.68-.323,3.691,3.691,0,0,1,2.5.8,2.821,2.821,0,0,1,.915,2.25V18H61.56l-.18-1.2a2.773,2.773,0,0,1-.923.99A2.72,2.72,0,0,1,58.935,18.18Zm.435-1.5a1.589,1.589,0,0,0,1.283-.54,2.622,2.622,0,0,0,.577-1.335H59.6a1.705,1.705,0,0,0-1.1.278.859.859,0,0,0-.33.682.786.786,0,0,0,.33.675A1.446,1.446,0,0,0,59.37,16.68ZM64.68,18V10.56h1.695l.15,1.26a2.616,2.616,0,0,1,1-1.05,2.94,2.94,0,0,1,1.538-.39,2.706,2.706,0,0,1,2.145.87,3.754,3.754,0,0,1,.765,2.55V18H70.05V13.98a2.383,2.383,0,0,0-.39-1.47A1.432,1.432,0,0,0,68.445,12a1.712,1.712,0,0,0-1.327.57,2.28,2.28,0,0,0-.518,1.59V18Zm12.42.18a3.993,3.993,0,0,1-2.01-.5,3.6,3.6,0,0,1-1.372-1.38,4.029,4.029,0,0,1-.5-2.025,4.029,4.029,0,0,1,.5-2.025,3.6,3.6,0,0,1,1.372-1.38,3.993,3.993,0,0,1,2.01-.5,3.845,3.845,0,0,1,2.4.743,3.319,3.319,0,0,1,1.245,2.048H78.72a1.48,1.48,0,0,0-.592-.847,1.86,1.86,0,0,0-2.393.292,2.359,2.359,0,0,0-.555,1.665,2.359,2.359,0,0,0,.555,1.665,1.77,1.77,0,0,0,1.35.6,1.813,1.813,0,0,0,1.042-.3,1.451,1.451,0,0,0,.592-.855h2.025A3.393,3.393,0,0,1,79.5,17.415,3.768,3.768,0,0,1,77.1,18.18Zm8.625,0a4.061,4.061,0,0,1-2-.48,3.474,3.474,0,0,1-1.365-1.35,3.993,3.993,0,0,1-.5-2.01,4.245,4.245,0,0,1,.488-2.055,3.539,3.539,0,0,1,1.35-1.4,3.966,3.966,0,0,1,2.033-.5,3.831,3.831,0,0,1,1.935.48,3.447,3.447,0,0,1,1.313,1.313,3.687,3.687,0,0,1,.472,1.852q0,.165-.007.345t-.022.375H83.775a1.938,1.938,0,0,0,.607,1.365,1.909,1.909,0,0,0,1.327.495,1.745,1.745,0,0,0,.983-.262,1.626,1.626,0,0,0,.592-.683h1.95a3.535,3.535,0,0,1-.7,1.282,3.439,3.439,0,0,1-1.2.908A3.794,3.794,0,0,1,85.725,18.18Zm.015-6.24a2.045,2.045,0,0,0-1.245.4,1.842,1.842,0,0,0-.69,1.208H87.51a1.619,1.619,0,0,0-.54-1.17A1.8,1.8,0,0,0,85.74,11.94Z" transform="translate(-5650 -3755)" fill="#47536b"/>
    <path id="Path_1260" data-name="Path 1260" d="M-110.805,0V-10.5h1.92v9h4.65V0Zm11.16.18A4.061,4.061,0,0,1-101.64-.3,3.474,3.474,0,0,1-103-1.65a3.993,3.993,0,0,1-.5-2.01,4.245,4.245,0,0,1,.488-2.055,3.539,3.539,0,0,1,1.35-1.4,3.966,3.966,0,0,1,2.033-.5,3.831,3.831,0,0,1,1.935.48,3.447,3.447,0,0,1,1.313,1.313,3.687,3.687,0,0,1,.472,1.852q0,.165-.007.345t-.022.375H-101.6a1.938,1.938,0,0,0,.607,1.365,1.909,1.909,0,0,0,1.327.5,1.745,1.745,0,0,0,.983-.263,1.626,1.626,0,0,0,.592-.683h1.95a3.535,3.535,0,0,1-.7,1.283,3.439,3.439,0,0,1-1.2.908A3.794,3.794,0,0,1-99.645.18Zm.015-6.24a2.045,2.045,0,0,0-1.245.4,1.842,1.842,0,0,0-.69,1.207h3.705a1.619,1.619,0,0,0-.54-1.17A1.8,1.8,0,0,0-99.63-6.06ZM-92.07.18a3.52,3.52,0,0,1-1.575-.308,2.128,2.128,0,0,1-.915-.817,2.178,2.178,0,0,1-.3-1.125,2.047,2.047,0,0,1,.81-1.68,3.852,3.852,0,0,1,2.43-.645h1.89v-.18A1.377,1.377,0,0,0-90.165-5.7a1.637,1.637,0,0,0-1.08-.36,1.855,1.855,0,0,0-1.02.278,1.2,1.2,0,0,0-.54.818H-94.68a2.617,2.617,0,0,1,.548-1.41A3.065,3.065,0,0,1-92.91-7.3a4.212,4.212,0,0,1,1.68-.323,3.691,3.691,0,0,1,2.505.8,2.821,2.821,0,0,1,.915,2.25V0h-1.635l-.18-1.2a2.773,2.773,0,0,1-.923.99A2.72,2.72,0,0,1-92.07.18Zm.435-1.5a1.589,1.589,0,0,0,1.283-.54,2.622,2.622,0,0,0,.577-1.335H-91.41a1.705,1.705,0,0,0-1.095.277.859.859,0,0,0-.33.682.786.786,0,0,0,.33.675A1.446,1.446,0,0,0-91.635-1.32Zm5.31,4.62V-7.44h1.71l.21,1.065a3.417,3.417,0,0,1,.953-.87,2.835,2.835,0,0,1,1.537-.375,3.493,3.493,0,0,1,1.875.51,3.654,3.654,0,0,1,1.305,1.395,4.148,4.148,0,0,1,.48,2.01,4.1,4.1,0,0,1-.48,2A3.612,3.612,0,0,1-80.04-.323a3.532,3.532,0,0,1-1.875.5,3.248,3.248,0,0,1-1.47-.315,2.65,2.65,0,0,1-1.02-.885V3.3Zm4.005-4.8a2.027,2.027,0,0,0,1.515-.615,2.181,2.181,0,0,0,.6-1.59,2.233,2.233,0,0,0-.6-1.605,2,2,0,0,0-1.515-.63,2.009,2.009,0,0,0-1.523.622,2.223,2.223,0,0,0-.592,1.6,2.223,2.223,0,0,0,.592,1.6A2.009,2.009,0,0,0-82.32-1.5Zm6.465-7.1a1.214,1.214,0,0,1-.863-.315,1.041,1.041,0,0,1-.338-.8,1.018,1.018,0,0,1,.338-.788,1.231,1.231,0,0,1,.863-.307,1.231,1.231,0,0,1,.862.307,1.018,1.018,0,0,1,.338.788,1.041,1.041,0,0,1-.338.8A1.214,1.214,0,0,1-75.855-8.6Zm-.96,8.6V-7.44h1.92V0Zm3.585,0V-7.44h1.695l.15,1.26a2.616,2.616,0,0,1,1-1.05,2.94,2.94,0,0,1,1.538-.39,2.706,2.706,0,0,1,2.145.87A3.754,3.754,0,0,1-65.94-4.2V0h-1.92V-4.02a2.383,2.383,0,0,0-.39-1.47A1.432,1.432,0,0,0-69.465-6a1.712,1.712,0,0,0-1.327.57,2.28,2.28,0,0,0-.518,1.59V0Zm11.925-2.22a4.013,4.013,0,0,1-1.005-.12l-.555.555a2.653,2.653,0,0,0,.69.225q.435.09,1.41.18a3.893,3.893,0,0,1,2.16.7A1.951,1.951,0,0,1-57.93.9a2.374,2.374,0,0,1-.36,1.252,2.579,2.579,0,0,1-1.11.96,4.366,4.366,0,0,1-1.92.368,4.894,4.894,0,0,1-2.565-.593A1.945,1.945,0,0,1-64.86,1.11a2.141,2.141,0,0,1,.975-1.74A3.294,3.294,0,0,1-64.4-.915a2.734,2.734,0,0,1-.382-.315v-.345l1.305-1.38a2.5,2.5,0,0,1-.87-1.965,2.611,2.611,0,0,1,.367-1.365A2.619,2.619,0,0,1-62.94-7.26a3.434,3.434,0,0,1,1.635-.36,3.678,3.678,0,0,1,1.17.18h2.82v1.17l-1.275.09a2.663,2.663,0,0,1,.3,1.26,2.652,2.652,0,0,1-.36,1.365,2.556,2.556,0,0,1-1.042.975A3.41,3.41,0,0,1-61.305-2.22Zm0-1.47A1.471,1.471,0,0,0-60.338-4a1.1,1.1,0,0,0,.382-.9,1.1,1.1,0,0,0-.382-.9,1.471,1.471,0,0,0-.967-.315,1.488,1.488,0,0,0-.99.315,1.11,1.11,0,0,0-.375.9A1.11,1.11,0,0,0-62.3-4,1.488,1.488,0,0,0-61.305-3.69Zm-1.8,4.605a.893.893,0,0,0,.517.832,2.653,2.653,0,0,0,1.268.278,2.113,2.113,0,0,0,1.17-.293A.9.9,0,0,0-59.7.945.88.88,0,0,0-59.993.27a1.992,1.992,0,0,0-1.162-.33Q-61.77-.105-62.3-.2a1.718,1.718,0,0,0-.622.525A1.052,1.052,0,0,0-63.105.915ZM-51.585,0-53.76-7.44h1.9l1.29,5.355,1.5-5.355h2.13l1.5,5.355L-44.13-7.44h1.905L-44.415,0H-46.41L-48-5.565-49.59,0ZM-40.32-8.6a1.214,1.214,0,0,1-.862-.315,1.041,1.041,0,0,1-.337-.8,1.018,1.018,0,0,1,.337-.788,1.231,1.231,0,0,1,.862-.307,1.231,1.231,0,0,1,.863.307,1.018,1.018,0,0,1,.337.788,1.041,1.041,0,0,1-.337.8A1.214,1.214,0,0,1-40.32-8.6ZM-41.28,0V-7.44h1.92V0Zm6.9,0a2.893,2.893,0,0,1-1.875-.57,2.479,2.479,0,0,1-.705-2.025v-3.24h-1.275V-7.44h1.275l.225-2h1.695v2h2.01v1.605h-2.01V-2.58a.956.956,0,0,0,.232.743,1.23,1.23,0,0,0,.8.2h.93V0Zm2.655,0V-10.8h1.92v4.5a2.689,2.689,0,0,1,1.013-.968A2.972,2.972,0,0,1-27.33-7.62a2.683,2.683,0,0,1,2.137.87,3.779,3.779,0,0,1,.757,2.55V0h-1.9V-4.02a2.418,2.418,0,0,0-.382-1.47A1.411,1.411,0,0,0-27.93-6a1.759,1.759,0,0,0-1.343.57,2.239,2.239,0,0,0-.532,1.59V0ZM-18.66-8.6a1.214,1.214,0,0,1-.863-.315,1.041,1.041,0,0,1-.337-.8,1.018,1.018,0,0,1,.337-.788,1.231,1.231,0,0,1,.863-.307,1.231,1.231,0,0,1,.862.307,1.018,1.018,0,0,1,.337.788,1.041,1.041,0,0,1-.337.8A1.214,1.214,0,0,1-18.66-8.6ZM-21.135,3.3V1.665h.585a1.025,1.025,0,0,0,.7-.2.871.871,0,0,0,.21-.66V-7.44h1.92V.81A2.377,2.377,0,0,1-18.4,2.73a2.8,2.8,0,0,1-1.852.57ZM-12.48.18a3.832,3.832,0,0,1-1.943-.5,3.634,3.634,0,0,1-1.365-1.373,4.018,4.018,0,0,1-.5-2.033,3.971,3.971,0,0,1,.51-2.033,3.689,3.689,0,0,1,1.373-1.372,3.832,3.832,0,0,1,1.942-.5,3.8,3.8,0,0,1,1.928.5A3.634,3.634,0,0,1-9.173-5.753a4.018,4.018,0,0,1,.5,2.033,4.018,4.018,0,0,1-.5,2.033A3.618,3.618,0,0,1-10.545-.315,3.844,3.844,0,0,1-12.48.18Zm0-1.665a1.774,1.774,0,0,0,1.305-.563A2.288,2.288,0,0,0-10.62-3.72a2.288,2.288,0,0,0-.555-1.672,1.758,1.758,0,0,0-1.29-.563,1.767,1.767,0,0,0-1.312.563,2.308,2.308,0,0,0-.547,1.672,2.308,2.308,0,0,0,.547,1.672A1.75,1.75,0,0,0-12.48-1.485ZM-7.05,3.3-5.325-.5h-.45L-8.67-7.44h2.085L-4.5-2.2-2.325-7.44h2.04L-5.01,3.3ZM-122.325,18.18a3.52,3.52,0,0,1-1.575-.308,2.128,2.128,0,0,1-.915-.817,2.178,2.178,0,0,1-.3-1.125,2.047,2.047,0,0,1,.81-1.68,3.852,3.852,0,0,1,2.43-.645h1.89v-.18a1.377,1.377,0,0,0-.435-1.125,1.637,1.637,0,0,0-1.08-.36,1.855,1.855,0,0,0-1.02.278,1.2,1.2,0,0,0-.54.818h-1.875a2.617,2.617,0,0,1,.548-1.41,3.065,3.065,0,0,1,1.222-.923,4.212,4.212,0,0,1,1.68-.323,3.691,3.691,0,0,1,2.505.8,2.821,2.821,0,0,1,.915,2.25V18H-119.7l-.18-1.2a2.773,2.773,0,0,1-.923.99A2.72,2.72,0,0,1-122.325,18.18Zm.435-1.5a1.589,1.589,0,0,0,1.283-.54,2.622,2.622,0,0,0,.577-1.335h-1.635a1.705,1.705,0,0,0-1.095.278.859.859,0,0,0-.33.682.786.786,0,0,0,.33.675A1.446,1.446,0,0,0-121.89,16.68Zm8.52,1.32a2.893,2.893,0,0,1-1.875-.57,2.479,2.479,0,0,1-.705-2.025v-3.24h-1.275V10.56h1.275l.225-1.995h1.695V10.56h2.01v1.605h-2.01V15.42a.956.956,0,0,0,.233.743,1.23,1.23,0,0,0,.8.2h.93V18Zm9.195,0a2.893,2.893,0,0,1-1.875-.57,2.479,2.479,0,0,1-.705-2.025v-3.24h-1.275V10.56h1.275l.225-1.995h1.695V10.56h2.01v1.605h-2.01V15.42a.956.956,0,0,0,.233.743,1.23,1.23,0,0,0,.8.2h.93V18Zm2.655,0V7.2h1.92v4.5a2.689,2.689,0,0,1,1.013-.968,2.972,2.972,0,0,1,1.463-.353,2.683,2.683,0,0,1,2.137.87,3.779,3.779,0,0,1,.757,2.55V18h-1.9V13.98a2.418,2.418,0,0,0-.382-1.47A1.411,1.411,0,0,0-97.725,12a1.759,1.759,0,0,0-1.342.57,2.239,2.239,0,0,0-.533,1.59V18Zm12.39.18a4.061,4.061,0,0,1-1.995-.48,3.474,3.474,0,0,1-1.365-1.35,3.993,3.993,0,0,1-.5-2.01,4.245,4.245,0,0,1,.488-2.055,3.539,3.539,0,0,1,1.35-1.4,3.966,3.966,0,0,1,2.033-.5,3.831,3.831,0,0,1,1.935.48,3.447,3.447,0,0,1,1.313,1.313,3.687,3.687,0,0,1,.472,1.852q0,.165-.007.345t-.022.375H-91.08a1.938,1.938,0,0,0,.607,1.365,1.909,1.909,0,0,0,1.327.495,1.745,1.745,0,0,0,.983-.262,1.626,1.626,0,0,0,.592-.683h1.95a3.535,3.535,0,0,1-.7,1.282,3.439,3.439,0,0,1-1.2.908A3.794,3.794,0,0,1-89.13,18.18Zm.015-6.24a2.045,2.045,0,0,0-1.245.4,1.842,1.842,0,0,0-.69,1.208h3.705a1.619,1.619,0,0,0-.54-1.17A1.8,1.8,0,0,0-89.115,11.94ZM-80.85,18V7.5h6.855V9.045H-78.93v2.88h4.485v1.5H-78.93v3.03h4.935V18Zm8.28,0V10.56h1.695l.15,1.26a2.616,2.616,0,0,1,1-1.05,2.94,2.94,0,0,1,1.538-.39,2.706,2.706,0,0,1,2.145.87,3.754,3.754,0,0,1,.765,2.55V18H-67.2V13.98a2.383,2.383,0,0,0-.39-1.47A1.432,1.432,0,0,0-68.805,12a1.712,1.712,0,0,0-1.327.57,2.28,2.28,0,0,0-.518,1.59V18Zm12.2.18a3.493,3.493,0,0,1-1.875-.51,3.654,3.654,0,0,1-1.305-1.4,4.148,4.148,0,0,1-.48-2.01,4.1,4.1,0,0,1,.48-2,3.612,3.612,0,0,1,1.305-1.38,3.532,3.532,0,0,1,1.875-.5,3.248,3.248,0,0,1,1.47.315,2.65,2.65,0,0,1,1.02.885V7.2h1.92V18h-1.71l-.21-1.065a3.417,3.417,0,0,1-.952.87A2.835,2.835,0,0,1-60.375,18.18Zm.4-1.68a2.009,2.009,0,0,0,1.522-.622,2.223,2.223,0,0,0,.593-1.6,2.223,2.223,0,0,0-.593-1.6,2.009,2.009,0,0,0-1.522-.623,2.027,2.027,0,0,0-1.515.615,2.181,2.181,0,0,0-.6,1.59,2.233,2.233,0,0,0,.6,1.6A2,2,0,0,0-59.97,16.5Zm5.445-2.04V12.855h6.285V14.46ZM-46.8,18V10.56h1.71l.18,1.4a3.113,3.113,0,0,1,1.1-1.148,3.081,3.081,0,0,1,1.643-.428v2.025h-.54a3.05,3.05,0,0,0-1.125.195,1.515,1.515,0,0,0-.772.675,2.681,2.681,0,0,0-.278,1.335V18Zm9.075.18a4.061,4.061,0,0,1-1.995-.48,3.474,3.474,0,0,1-1.365-1.35,3.993,3.993,0,0,1-.495-2.01,4.245,4.245,0,0,1,.487-2.055,3.539,3.539,0,0,1,1.35-1.4,3.966,3.966,0,0,1,2.033-.5,3.831,3.831,0,0,1,1.935.48,3.447,3.447,0,0,1,1.313,1.313,3.687,3.687,0,0,1,.472,1.852q0,.165-.007.345t-.023.375h-5.655a1.938,1.938,0,0,0,.608,1.365,1.909,1.909,0,0,0,1.327.495,1.745,1.745,0,0,0,.982-.262,1.626,1.626,0,0,0,.593-.683h1.95a3.535,3.535,0,0,1-.7,1.282,3.439,3.439,0,0,1-1.2.908A3.794,3.794,0,0,1-37.725,18.18Zm.015-6.24a2.045,2.045,0,0,0-1.245.4,1.842,1.842,0,0,0-.69,1.208h3.705a1.619,1.619,0,0,0-.54-1.17A1.8,1.8,0,0,0-37.71,11.94Zm8.07,6.24a4.374,4.374,0,0,1-1.74-.323,3.006,3.006,0,0,1-1.2-.892,2.584,2.584,0,0,1-.54-1.32h1.935a1.246,1.246,0,0,0,.488.743,1.631,1.631,0,0,0,1.028.307,1.383,1.383,0,0,0,.922-.255.76.76,0,0,0,.293-.585.644.644,0,0,0-.42-.652,7.4,7.4,0,0,0-1.17-.338q-.48-.1-.975-.255a4.5,4.5,0,0,1-.907-.383,1.983,1.983,0,0,1-.667-.6,1.553,1.553,0,0,1-.255-.908,2.109,2.109,0,0,1,.787-1.665,3.3,3.3,0,0,1,2.213-.675,3.333,3.333,0,0,1,2.108.615,2.493,2.493,0,0,1,.938,1.7H-28.62q-.165-.825-1.245-.825a1.412,1.412,0,0,0-.833.21.626.626,0,0,0-.292.525q0,.33.435.525a6.389,6.389,0,0,0,1.155.36q.78.18,1.432.4a2.407,2.407,0,0,1,1.042.645,1.751,1.751,0,0,1,.39,1.222A2.089,2.089,0,0,1-26.895,17a2.487,2.487,0,0,1-1.08.87A4.055,4.055,0,0,1-29.64,18.18Zm7.245,0a2.7,2.7,0,0,1-2.153-.87,3.779,3.779,0,0,1-.757-2.55v-4.2H-23.4v4.02a2.383,2.383,0,0,0,.39,1.47,1.45,1.45,0,0,0,1.23.51,1.7,1.7,0,0,0,1.313-.57,2.28,2.28,0,0,0,.517-1.59V10.56h1.92V18h-1.7l-.15-1.26a2.616,2.616,0,0,1-1,1.05A2.911,2.911,0,0,1-22.395,18.18ZM-16.41,18V7.2h1.92V18Zm6.855,0a2.893,2.893,0,0,1-1.875-.57,2.479,2.479,0,0,1-.7-2.025v-3.24H-13.41V10.56h1.275l.225-1.995h1.7V10.56h2.01v1.605h-2.01V15.42a.956.956,0,0,0,.233.743,1.23,1.23,0,0,0,.8.2h.93V18Zm5.73.18a4.374,4.374,0,0,1-1.74-.323,3.006,3.006,0,0,1-1.2-.892,2.584,2.584,0,0,1-.54-1.32H-5.37a1.246,1.246,0,0,0,.487.743,1.631,1.631,0,0,0,1.028.307,1.383,1.383,0,0,0,.922-.255.76.76,0,0,0,.293-.585.644.644,0,0,0-.42-.652,7.4,7.4,0,0,0-1.17-.338q-.48-.1-.975-.255a4.5,4.5,0,0,1-.908-.383,1.983,1.983,0,0,1-.667-.6,1.553,1.553,0,0,1-.255-.908,2.109,2.109,0,0,1,.787-1.665,3.3,3.3,0,0,1,2.213-.675,3.333,3.333,0,0,1,2.107.615,2.493,2.493,0,0,1,.937,1.7H-2.8q-.165-.825-1.245-.825a1.412,1.412,0,0,0-.832.21.626.626,0,0,0-.293.525q0,.33.435.525a6.389,6.389,0,0,0,1.155.36q.78.18,1.432.4a2.407,2.407,0,0,1,1.043.645A1.751,1.751,0,0,1-.72,15.75,2.089,2.089,0,0,1-1.08,17a2.487,2.487,0,0,1-1.08.87A4.055,4.055,0,0,1-3.825,18.18Z" transform="translate(-5348 -3823)" fill="#47536b"/>
  </g>
</svg>
