<svg width="508" height="355" viewBox="0 0 508 355" fill="none" xmlns="http://www.w3.org/2000/svg">
<g clip-path="url(#clip0_540_2467)">
<path d="M495.205 355C448.271 355 61.6131 355 16.1506 355C-29.3119 355 35.6427 334.661 35.6427 334.661H465.969C465.969 334.661 536.075 355 495.205 355Z" fill="#7CC2F7"/>
<path d="M108.7 300.38H74.7812V343.919H108.7V300.38Z" fill="#F5B391"/>
<path d="M108.699 343.917V300.38H128.616L128.305 343.917H108.699Z" fill="#E8976A"/>
<path d="M87.4502 310.288H92.5195V300.379H87.4502V310.288Z" fill="white"/>
<path d="M59.125 343.917V300.38H74.7797L74.5355 343.917H59.125Z" fill="#E8976A"/>
<path d="M76.6409 266.417H51.5117V300.38H76.6409V266.417Z" fill="#F5AE89"/>
<path d="M54.4443 300.38V266.417H34.6445L34.9083 300.38H54.4443Z" fill="#E8976A"/>
<path d="M66.7593 266.417H62.8047V274.146H66.7593V266.417Z" fill="white"/>
<path d="M118.477 266.417H93.3477V300.38H118.477V266.417Z" fill="#F5B391"/>
<path d="M93.3464 300.38V266.417H76.4805L76.7442 300.38H93.3464Z" fill="#E8976A"/>
<path d="M98.7346 232.816H73.6055V266.779H98.7346V232.816Z" fill="#F5B391"/>
<path d="M73.6042 266.779V232.816H56.7383L57.0008 266.779H73.6042Z" fill="#E8976A"/>
<path d="M104.799 242.543H79.6686L73.6055 232.816H98.7346L104.799 242.543Z" fill="#FAE1D4"/>
<path d="M81.6818 232.816H56.5526L50.4883 223.089H75.6174L81.6818 232.816Z" fill="#F5B391"/>
<path d="M51.2422 242.116H68.1081L73.6035 232.816H56.7376L51.2422 242.116Z" fill="#FAE1D4"/>
<path d="M29.1484 275.716H48.9482L54.4436 266.417H34.6438L29.1484 275.716Z" fill="#FAE1D4"/>
<path d="M118.473 266.417H103.398V300.38H118.473V266.417Z" fill="#E8976A"/>
<path d="M134.592 276.144H109.463L103.398 266.417H128.528L134.592 276.144Z" fill="#FAE1D4"/>
<path d="M66.1476 300.38H31.0117V343.918H66.1476V300.38Z" fill="#FABFA0"/>
<path d="M46.044 310.288H51.1133V300.379H46.044V310.288Z" fill="white"/>
<path d="M118.752 182.783H39.0173C36.2397 182.783 33.9883 180.533 33.9883 177.756V132.208C33.9883 129.431 36.2397 127.181 39.0173 127.181H118.754C121.531 127.181 123.783 129.431 123.783 132.208V177.756C123.781 180.533 121.53 182.783 118.752 182.783Z" fill="#179CFB"/>
<path d="M49.1632 141.229H55.7574V138.588C55.7574 137.708 55.0444 136.996 54.1641 136.996H44.9363V143.371C44.9363 143.753 44.7337 144.062 44.3515 144.062C43.9694 144.062 43.8192 143.753 43.8192 143.371V136.996H42.2222C41.3419 136.996 40.6289 137.708 40.6289 138.588V146.311H49.2828C49.5514 146.311 49.7969 146.505 49.8237 146.773C49.8542 147.08 49.6137 147.34 49.3121 147.34H40.6289V150.526C40.6289 151.405 41.3419 152.118 42.2222 152.118H54.1641C55.0444 152.118 55.7574 151.405 55.7574 150.526V142.279H49.1339C48.8262 142.279 48.5808 142.014 48.6126 141.7C48.6382 141.427 48.8885 141.229 49.1632 141.229Z" fill="#EDCF85"/>
<path d="M117.038 167.299H98.7461V176.526H117.038V167.299Z" fill="#EDECEB"/>
<path d="M57.6987 157.744H40.6289V162.05H57.6987V157.744Z" fill="#EDECEB"/>
<path d="M77.49 157.744H60.1016V162.05H77.49V157.744Z" fill="#EDECEB"/>
<path d="M116.937 157.744H99.1758V162.05H116.937V157.744Z" fill="#EDECEB"/>
<path d="M96.6422 157.744H80.2109V162.05H96.6422V157.744Z" fill="#EDECEB"/>
<path d="M93.3744 167.299H40.7305V172.857H93.3744V167.299Z" fill="#EDCF85"/>
<path d="M117.039 132.412H94.3906V138.892H117.039V132.412Z" fill="#EDECEB"/>
<path d="M278.254 332.231L281.499 344.923H291.762C292.299 342.728 290.595 339.985 286.227 339.389C286.227 339.389 285.333 335.984 286.562 332.633C287.792 329.283 281.498 328.779 281.498 328.779L278.254 332.231Z" fill="white"/>
<path d="M413.854 255.576C413.694 255.576 413.56 255.403 413.551 255.18C413.551 255.172 413.551 255.14 413.551 255.088C413.574 253.333 413.471 244.533 409.178 243.602C408.713 243.501 407.891 243.747 407.106 244.775C406.26 245.882 404.913 248.66 405.397 254.838C405.415 255.067 405.294 255.273 405.127 255.298C404.96 255.322 404.811 255.156 404.792 254.927C404.281 248.392 405.759 245.381 406.686 244.17C407.631 242.933 408.641 242.64 409.272 242.777C414.062 243.817 414.182 253.228 414.158 255.104V255.15C414.162 255.375 414.035 255.564 413.87 255.576C413.865 255.575 413.859 255.576 413.854 255.576Z" fill="#003459"/>
<path d="M401.006 253.035L397.703 308.086H411.103L409.484 253.035H401.006Z" fill="#30ACB3"/>
<path d="M411.534 253.035L411.102 308.086H433.1L429.845 253.035H411.534Z" fill="#9EF3F7"/>
<path d="M407.262 253.035L404.988 301.321L411.101 308.086L411.534 253.035H407.262Z" fill="#4BD5DE"/>
<path d="M404.99 301.321L397.703 308.086H411.103L404.99 301.321Z" fill="#4BD5DE"/>
<path d="M424.866 255.576C424.706 255.576 424.572 255.403 424.563 255.18C424.563 255.172 424.563 255.14 424.563 255.088C424.586 253.333 424.482 244.533 420.19 243.602C419.724 243.501 418.903 243.747 418.118 244.775C417.272 245.882 415.925 248.66 416.408 254.837C416.427 255.067 416.306 255.273 416.139 255.298C415.971 255.322 415.822 255.156 415.804 254.927C415.292 248.392 416.771 245.381 417.698 244.169C418.643 242.933 419.654 242.639 420.284 242.776C425.073 243.816 425.194 253.226 425.17 255.102V255.149C425.173 255.373 425.046 255.562 424.882 255.575C424.877 255.576 424.872 255.576 424.866 255.576Z" fill="#003459"/>
<path d="M429.848 253.035H421.649L417.918 308.086H433.103L429.848 253.035Z" fill="#45C7CF"/>
<path d="M435.307 255.576C435.147 255.576 435.013 255.403 435.004 255.18C435.004 255.172 435.004 255.14 435.004 255.088C435.028 253.333 434.924 244.533 430.631 243.602C430.166 243.501 429.344 243.747 428.559 244.775C427.713 245.882 426.366 248.66 426.85 254.838C426.868 255.067 426.747 255.273 426.58 255.298C426.413 255.322 426.264 255.156 426.245 254.927C425.734 248.392 427.212 245.381 428.139 244.17C429.084 242.933 430.094 242.64 430.725 242.777C435.515 243.817 435.636 253.228 435.611 255.104V255.15C435.615 255.375 435.488 255.564 435.323 255.576C435.318 255.575 435.312 255.576 435.307 255.576Z" fill="#003459"/>
<path d="M422.46 253.035L419.156 308.086H432.556L430.938 253.035H422.46Z" fill="#1AA371"/>
<path d="M432.988 253.035L432.555 308.086H454.555L451.3 253.035H432.988Z" fill="#24E09B"/>
<path d="M428.716 253.035L426.441 301.321L432.555 308.086L432.988 253.035H428.716Z" fill="#21CC8D"/>
<path d="M426.443 301.321L419.156 308.086H432.556L426.443 301.321Z" fill="#21CC8D"/>
<path d="M446.319 255.576C446.159 255.576 446.025 255.403 446.016 255.18C446.016 255.172 446.016 255.14 446.016 255.088C446.039 253.333 445.936 244.533 441.643 243.602C441.178 243.501 440.356 243.747 439.571 244.775C438.725 245.882 437.378 248.66 437.862 254.837C437.88 255.067 437.759 255.273 437.592 255.298C437.424 255.322 437.275 255.156 437.257 254.927C436.746 248.392 438.224 245.381 439.151 244.169C440.096 242.933 441.107 242.639 441.737 242.776C446.526 243.816 446.647 253.226 446.623 255.102V255.149C446.627 255.373 446.5 255.562 446.335 255.575C446.33 255.576 446.324 255.576 446.319 255.576Z" fill="#003459"/>
<path d="M451.146 253.07H443.555L440.418 308.121H454.401L451.146 253.07Z" fill="#1AA371"/>
<path d="M457.065 255.576C456.905 255.576 456.771 255.403 456.762 255.18C456.762 255.172 456.762 255.14 456.762 255.088C456.785 253.333 456.682 244.533 452.389 243.602C451.924 243.501 451.102 243.747 450.317 244.775C449.471 245.882 448.124 248.66 448.608 254.838C448.626 255.067 448.505 255.273 448.338 255.298C448.171 255.322 448.022 255.156 448.003 254.927C447.492 248.392 448.97 245.381 449.897 244.17C450.842 242.933 451.852 242.64 452.483 242.777C457.273 243.817 457.393 253.228 457.369 255.104V255.15C457.373 255.375 457.246 255.564 457.081 255.576C457.076 255.575 457.07 255.576 457.065 255.576Z" fill="#003459"/>
<path d="M444.289 253.113L440.914 308.086L454.385 308.164L452.767 253.113H444.289Z" fill="#30ACB3"/>
<path d="M454.816 253.113L454.383 308.164H476.382L473.128 253.113H454.816Z" fill="#9EF3F7"/>
<path d="M450.544 253.113L448.27 301.399L454.383 308.164L454.816 253.113H450.544Z" fill="#4BD5DE"/>
<path d="M448.201 301.321L440.914 308.086H454.314L448.201 301.321Z" fill="#4BD5DE"/>
<path d="M458.898 254.795C459.058 254.786 459.2 254.951 459.219 255.173C459.22 255.182 459.221 255.213 459.222 255.266C459.282 257.02 459.799 265.801 464.129 266.49C464.599 266.565 465.408 266.272 466.144 265.203C466.936 264.049 468.151 261.2 467.378 255.057C467.35 254.829 467.46 254.617 467.626 254.582C467.792 254.549 467.95 254.706 467.978 254.934C468.796 261.43 467.46 264.521 466.592 265.784C465.707 267.071 464.71 267.423 464.074 267.32C459.242 266.551 458.679 257.16 458.616 255.285L458.614 255.239C458.601 255.014 458.718 254.819 458.882 254.797C458.887 254.795 458.891 254.795 458.898 254.795Z" fill="#003459"/>
<path d="M318.553 234.373C318.553 234.373 308.089 240.649 306.205 249.435C304.322 258.221 306.004 286.564 306.004 286.564L281.5 328.78L286.564 332.634C286.564 332.634 318.763 296.711 323.157 287.507C325.405 276.629 328.388 236.884 328.388 236.884L318.553 234.373Z" fill="#004A7E"/>
<path d="M334.115 241.419L355.152 338.842C354.771 340.334 350.03 341.462 349.124 340.231C349.124 340.231 313.494 258.255 313.516 245.493C313.536 232.73 331.108 232.281 334.115 241.419Z" fill="#004A7E"/>
<path d="M349.127 340.231C359.383 339.08 359.198 332.818 365.282 335.882C365.83 337.661 360.574 345.191 349.891 345.191C348.496 342.933 349.127 340.231 349.127 340.231Z" fill="white"/>
<path d="M339.934 219.709C339.215 222.77 338.425 225.328 337.614 227.667C336.392 231.202 335.129 234.24 334.004 237.768C333.579 239.102 333.173 240.507 332.797 242.035C332.794 242.052 332.789 242.07 332.785 242.087C332.785 242.087 324.307 243.338 315.625 238.558C315.835 237.153 316.003 235.798 316.141 234.489C317.726 219.454 315.248 210.619 323.865 205.777C328.654 207.012 330.043 207.71 334.828 208.901C336.745 211.496 339.643 216.063 339.934 219.709Z" fill="#0093FB"/>
<path d="M334.827 208.9C334.787 208.609 336.374 197.069 336.374 197.069L328.511 194.248L323.863 205.775C327.535 206.755 331.183 207.821 334.827 208.9Z" fill="#FFB1A3"/>
<path d="M337.387 256.592C327.123 264.212 305.606 257.735 305.606 257.735C303.391 244.591 316.139 234.489 316.139 234.489H316.14L329.859 237.008L334.001 237.769L334.032 237.774L335.668 246.95L337.387 256.592Z" fill="#0093FB"/>
<path d="M334.031 237.773L335.667 246.949C331.876 240.463 323.074 225.397 319.172 218.718C326.171 216.387 332.878 221.96 337.612 227.665C336.389 231.201 335.127 234.239 334.001 237.767L334.031 237.773Z" fill="#0076C9"/>
<path d="M338.27 202.215C332.809 204.057 324.989 197.427 324.133 190.891C323.276 184.351 327.214 178.447 332.928 177.7C335.855 177.317 338.432 178.26 340.366 180.148C342.21 181.95 343.47 184.609 343.887 187.799C343.945 188.232 343.987 188.666 344.014 189.098C344.422 195.177 342.099 200.924 338.27 202.215Z" fill="#FFB1A3"/>
<path d="M327.569 186.356C328.083 186.832 328.629 187.242 329.201 187.599C329.651 187.796 330.111 187.968 330.577 188.122C331.315 188.29 332.063 188.419 332.812 188.523C335.007 188.827 337.234 188.846 339.436 188.612C340.925 188.454 342.418 188.181 343.888 187.803C343.888 187.802 343.888 187.801 343.888 187.799C343.47 184.609 342.212 181.95 340.367 180.148C338.291 179.505 336.199 179.281 334.805 179.711C330.863 180.933 326.477 183.657 326.99 186.175C327.182 186.143 327.387 186.187 327.569 186.356Z" fill="#E68E7E"/>
<path d="M328.629 174.694C334.987 173.591 340.768 175.511 343.698 180.737C348.313 188.964 328.093 187.459 328.093 187.459C328.093 187.459 324.149 198.538 334.876 203.753C334.876 203.753 323.161 207.408 318.111 200.444C312.406 185.694 318.112 176.519 328.629 174.694Z" fill="#003459"/>
<path d="M329.448 191.72C329.5 190.287 328.535 189.088 327.294 189.044C326.053 188.999 325.005 190.125 324.953 191.558C324.901 192.992 325.866 194.19 327.107 194.235C328.348 194.279 329.396 193.154 329.448 191.72Z" fill="#FFB1A3"/>
<path d="M369.826 237.303L364.625 239.583C363.931 243.485 371.916 245.995 372.95 242.325C373.741 239.517 369.826 237.303 369.826 237.303Z" fill="#FFB1A3"/>
<path d="M364.41 242.902C364.41 242.902 365.389 244.962 367.039 245.33C368.027 245.55 370.589 246.211 370.039 243.583C369.255 239.833 364.986 241.471 364.41 242.902Z" fill="#FFB1A3"/>
<path d="M407.756 344.966C411.427 343.446 413.171 339.239 411.65 335.569C410.129 331.899 405.92 330.156 402.249 331.676C398.578 333.197 396.834 337.404 398.355 341.074C399.876 344.743 404.085 346.486 407.756 344.966Z" fill="#4D4E4E"/>
<path d="M409.29 339.017C409.675 336.649 408.066 334.418 405.697 334.034C403.328 333.65 401.096 335.258 400.712 337.626C400.327 339.994 401.936 342.225 404.305 342.609C406.674 342.993 408.906 341.385 409.29 339.017Z" fill="#98C5E3"/>
<path d="M405.806 336.811L401.481 334.657V328.306H395.359V335.617L404.002 339.936C406.703 340.896 407.904 337.777 405.806 336.811Z" fill="#003459"/>
<path d="M475.102 343.407C477.912 340.599 477.912 336.045 475.102 333.236C472.293 330.428 467.737 330.428 464.927 333.236C462.118 336.045 462.118 340.599 464.927 343.407C467.737 346.216 472.293 346.216 475.102 343.407Z" fill="#4D4E4E"/>
<path d="M474.321 339.017C474.706 336.649 473.097 334.418 470.728 334.033C468.359 333.649 466.127 335.257 465.743 337.625C465.359 339.993 466.967 342.224 469.336 342.608C471.705 342.993 473.937 341.385 474.321 339.017Z" fill="#98C5E3"/>
<path d="M470.837 336.811L466.512 334.657V328.306H460.391V335.617L469.034 339.936C471.734 340.896 472.934 337.777 470.837 336.811Z" fill="#003459"/>
<path d="M372.915 244.017C373.253 242.584 372.366 241.148 370.932 240.809C369.498 240.471 368.061 241.358 367.722 242.792C367.384 244.225 368.272 245.661 369.706 246C371.139 246.338 372.576 245.451 372.915 244.017Z" fill="#003459"/>
<path d="M478.008 309.323L391.224 309.283C390.961 309.283 390.793 309.171 390.793 308.996L390.969 259.902C390.969 259.747 391.101 259.563 391.316 259.416C391.53 259.27 391.799 259.181 392.026 259.182L490.678 259.517C490.994 259.518 491.172 259.664 491.119 259.88L479.139 308.678C479.101 308.83 478.949 308.995 478.727 309.122C478.586 309.201 478.43 309.261 478.275 309.294C478.183 309.313 478.093 309.324 478.008 309.323ZM392.429 260.188L392.241 308.324L477.702 308.313L489.395 260.576L392.429 260.188Z" fill="#003459"/>
<path d="M486.035 276.865L486.476 276.239L391.834 275.454L391.449 276.046L486.035 276.865Z" fill="#003459"/>
<path d="M481.972 293.445L482.397 292.829L391.761 292.162L391.391 292.747L481.972 293.445Z" fill="#003459"/>
<path d="M470.539 308.968C470.673 308.94 470.792 308.854 470.813 308.773L482.789 259.967C482.811 259.878 482.712 259.83 482.569 259.859C482.426 259.888 482.292 259.984 482.271 260.073L470.308 308.862C470.287 308.947 470.382 308.997 470.522 308.973C470.529 308.97 470.533 308.969 470.539 308.968Z" fill="#003459"/>
<path d="M463.336 308.967C463.469 308.939 463.588 308.852 463.607 308.77L474.495 259.934C474.515 259.846 474.416 259.8 474.273 259.829C474.132 259.858 474.001 259.955 473.98 260.042L463.104 308.862C463.085 308.947 463.182 308.995 463.321 308.97C463.327 308.968 463.331 308.967 463.336 308.967Z" fill="#003459"/>
<path d="M456.127 308.964C456.26 308.935 456.38 308.848 456.396 308.767L466.194 259.901C466.211 259.814 466.111 259.768 465.97 259.8C465.829 259.831 465.702 259.926 465.683 260.013L455.896 308.862C455.879 308.946 455.977 308.994 456.115 308.967C456.121 308.965 456.124 308.965 456.127 308.964Z" fill="#003459"/>
<path d="M448.908 308.963C449.041 308.934 449.161 308.846 449.176 308.764L457.881 259.869C457.897 259.782 457.795 259.738 457.656 259.771C457.519 259.801 457.391 259.9 457.375 259.985L448.681 308.863C448.666 308.946 448.765 308.992 448.902 308.965C448.903 308.964 448.906 308.963 448.908 308.963Z" fill="#003459"/>
<path d="M441.68 308.96C441.814 308.931 441.932 308.842 441.945 308.76L449.555 259.836C449.568 259.751 449.467 259.708 449.329 259.741C449.188 259.773 449.068 259.87 449.054 259.956L441.454 308.863C441.442 308.946 441.541 308.99 441.676 308.962C441.678 308.962 441.679 308.96 441.68 308.96Z" fill="#003459"/>
<path d="M434.448 308.959C434.582 308.93 434.7 308.84 434.711 308.758L441.223 259.804C441.234 259.72 441.133 259.679 440.995 259.713C440.995 259.713 440.995 259.713 440.994 259.713C440.857 259.747 440.737 259.842 440.726 259.926L434.223 308.863C434.212 308.945 434.314 308.989 434.448 308.959Z" fill="#003459"/>
<path d="M427.208 308.957C427.21 308.957 427.21 308.957 427.211 308.957C427.344 308.926 427.46 308.836 427.468 308.755L432.881 259.771C432.891 259.688 432.788 259.648 432.654 259.682C432.652 259.682 432.652 259.682 432.651 259.682C432.516 259.717 432.398 259.813 432.389 259.897L426.985 308.864C426.976 308.945 427.075 308.986 427.208 308.957Z" fill="#003459"/>
<path d="M419.961 308.956C419.962 308.956 419.964 308.955 419.966 308.955C420.097 308.924 420.211 308.834 420.218 308.752L424.527 259.739C424.534 259.656 424.437 259.618 424.296 259.653C424.162 259.689 424.047 259.785 424.04 259.868L419.739 308.864C419.732 308.944 419.831 308.984 419.961 308.956Z" fill="#003459"/>
<path d="M412.704 308.953C412.707 308.952 412.71 308.952 412.713 308.951C412.845 308.919 412.955 308.829 412.96 308.748L416.163 259.706C416.168 259.624 416.062 259.586 415.931 259.624C415.798 259.66 415.686 259.757 415.681 259.839L412.485 308.864C412.48 308.942 412.577 308.981 412.704 308.953Z" fill="#003459"/>
<path d="M405.441 308.952C405.445 308.951 405.449 308.951 405.452 308.95C405.583 308.917 405.69 308.826 405.694 308.747L407.79 259.674C407.794 259.593 407.69 259.556 407.558 259.595C407.427 259.632 407.317 259.728 407.313 259.809L405.223 308.865C405.219 308.942 405.317 308.979 405.441 308.952Z" fill="#003459"/>
<path d="M398.168 308.95C398.173 308.948 398.178 308.947 398.183 308.946C398.312 308.913 398.417 308.821 398.42 308.743L399.406 259.641C399.407 259.56 399.302 259.526 399.173 259.565C399.042 259.603 398.935 259.699 398.934 259.78L397.953 308.865C397.951 308.941 398.046 308.978 398.168 308.95Z" fill="#003459"/>
<path d="M474.499 328.306H393.409C390.807 328.306 388.363 327.292 386.526 325.45C384.69 323.609 383.683 321.162 383.691 318.561C383.709 313.221 388.068 308.878 393.41 308.878H478.307C478.879 308.878 479.343 309.34 479.343 309.913C479.343 310.485 478.88 310.948 478.307 310.948H393.41C389.206 310.948 385.774 314.366 385.762 318.568C385.756 320.615 386.548 322.541 387.994 323.991C389.44 325.441 391.363 326.239 393.411 326.239H474.502C475.073 326.239 475.537 326.701 475.537 327.274C475.535 327.844 475.071 328.306 474.499 328.306Z" fill="#003459"/>
<path d="M390.793 311.348C390.221 311.348 389.757 310.885 389.757 310.313V249.25C389.757 246.581 387.585 244.409 384.914 244.409H370.313C369.741 244.409 369.277 243.946 369.277 243.374C369.277 242.801 369.74 242.339 370.313 242.339H384.914C388.726 242.339 391.827 245.439 391.827 249.249V310.312C391.828 310.885 391.364 311.348 390.793 311.348Z" fill="#003459"/>
<path d="M329.82 246.814L329.472 246.758C329.528 246.41 334.996 211.923 326.591 209.067C324.58 208.384 322.911 208.492 321.49 209.4C317.107 212.197 316.058 221.995 315.045 231.471C314.556 236.028 314.096 240.333 313.277 243.735L312.934 243.652C313.747 240.272 314.207 235.978 314.693 231.433C315.716 221.874 316.773 211.991 321.299 209.102C322.796 208.147 324.614 208.024 326.703 208.733C330.371 209.979 332.006 216.78 331.562 228.951C331.238 237.962 329.835 246.726 329.82 246.814Z" fill="#8A5046"/>
<path d="M328.935 258.613C325.771 260.455 311.472 257.949 309.539 255.214C309.891 250.67 311.049 246.796 312.927 243.519C318.738 243.35 324.329 244.38 329.727 246.463C330.471 249.879 330.134 255.151 328.935 258.613Z" fill="#BA6B5D"/>
<path d="M312.93 243.519C312.93 243.519 312.863 250.412 320.656 251.729C328.449 253.046 329.73 246.464 329.73 246.464C329.73 246.464 322.084 243.11 312.93 243.519Z" fill="#E88574"/>
<path d="M319.739 254.016C319.322 253.943 319.04 253.541 319.113 253.124L319.595 250.372C319.669 249.954 320.07 249.672 320.488 249.746C320.905 249.819 321.188 250.22 321.114 250.638L320.632 253.39C320.559 253.807 320.157 254.089 319.739 254.016Z" fill="#FFD690"/>
<path d="M369.176 240.068L362.057 237.749L360.66 243.485C364.565 244.024 367.363 244.404 367.363 244.404C372.006 245.039 372.006 241.107 369.176 240.068Z" fill="#FFB1A3"/>
<path d="M342.704 231.446L330.507 212.505C323.486 204.949 316.086 214.783 319.927 220.234C319.927 220.234 333.005 239.11 337.386 240.024C340.319 240.635 352.756 242.39 360.662 243.484L362.058 237.747L342.704 231.446Z" fill="#0093FB"/>
<path d="M120.538 60.2843C122.967 45.9013 145.125 39.4085 144.692 48.7949L246.27 49.3893C253.304 49.4308 259.01 55.7576 259.016 63.5282L259.227 330.572C259.233 338.622 253.429 345.204 246.259 345.265L142.565 346.154C141.922 347.505 140.717 348.734 138.819 349.761C126.927 350.013 121.223 344.143 119.14 337.507C118.462 335.727 118.093 333.757 118.11 331.682C118.523 328.205 119.786 63.6576 120.538 60.2843Z" fill="#0088E8"/>
<path d="M139.926 349.803L258.952 349.037C266.379 348.989 272.387 342.229 272.373 333.946L271.926 59.3163C271.913 51.3297 266.001 44.8406 258.717 44.8174L142.004 44.4378C134.662 44.4134 128.659 50.8928 128.597 58.916L126.481 334.816C126.417 343.138 132.438 349.852 139.926 349.803Z" fill="#8ACCFB"/>
<path d="M138.281 347.805C138.776 347.871 139.281 347.903 139.785 347.899L258.774 347C265.156 346.951 270.373 341.026 270.362 333.796L269.951 59.4677C269.94 52.4952 264.806 46.8043 258.546 46.7774L141.84 46.2697C141.658 46.2685 141.473 46.2734 141.292 46.2807C138.356 46.4174 135.611 47.7538 133.56 50.0434C131.463 52.383 130.297 55.4829 130.272 58.7769L128.184 334.957C128.135 341.502 132.46 347.026 138.281 347.805Z" fill="#3C3D3D"/>
<path d="M134.367 60.1646L132.359 335.382L266.406 334.581L266.063 60.1646H134.367Z" fill="white"/>
<path d="M173.176 60.1658L204.96 103.318C204.959 103.338 204.959 103.355 204.959 103.373C204.646 111.847 222.774 111.864 223.325 103.392C223.328 103.372 223.329 103.355 223.33 103.337L191.982 60.1658H173.176Z" fill="#FFD4CC"/>
<path d="M191.984 60.1658L223.333 103.337C223.332 103.356 223.33 103.373 223.332 103.392C222.931 111.864 241.052 111.881 241.693 103.41C241.697 103.39 241.698 103.373 241.699 103.355L210.787 60.1658H191.984Z" fill="#FF7D7D"/>
<path d="M154.363 60.1658L186.584 103.3L186.581 103.355C186.58 103.388 186.579 103.42 186.576 103.453C186.295 111.341 204.474 112.299 204.956 103.375C204.959 103.355 204.96 103.338 204.961 103.32L173.177 60.167L154.363 60.1658Z" fill="#FF7D7D"/>
<path d="M134.246 60.1646L167.625 103.279L167.624 103.334C167.411 114.327 186.043 113.028 186.578 103.45C186.58 103.417 186.581 103.386 186.582 103.353L186.585 103.298L154.365 60.1633L134.246 60.1646Z" fill="#FFD4CC"/>
<path d="M267.164 60.167H248.379L278.414 103.393C278.413 103.412 278.41 103.43 278.411 103.448C277.753 111.917 296.49 111.934 297.399 103.467C297.403 103.448 297.404 103.431 297.406 103.412L267.164 60.167Z" fill="#FFD4CC"/>
<path d="M210.785 60.1658L241.698 103.355C241.697 103.375 241.695 103.392 241.697 103.41C241.209 111.881 259.323 111.898 260.051 103.428C260.054 103.409 260.056 103.392 260.057 103.373L229.585 60.1658H210.785Z" fill="#FFD4CC"/>
<path d="M229.586 60.167L260.058 103.375C260.057 103.394 260.055 103.411 260.055 103.43C259.48 111.899 277.59 111.917 278.405 103.448C278.408 103.428 278.41 103.411 278.411 103.393L248.376 60.167H229.586Z" fill="#FF7D7D"/>
<path opacity="0.1" d="M204.956 103.374C204.474 112.299 186.296 111.339 186.577 103.452C186.042 113.029 167.41 114.328 167.623 103.336L204.956 103.374Z" fill="black"/>
<path opacity="0.1" d="M204.961 103.373L223.329 103.392C222.776 111.864 204.648 111.847 204.961 103.373Z" fill="black"/>
<path opacity="0.1" d="M223.331 103.392L241.692 103.41C241.051 111.882 222.93 111.864 223.331 103.392Z" fill="black"/>
<path opacity="0.1" d="M241.697 103.411L260.051 103.429C259.322 111.899 241.21 111.882 241.697 103.411Z" fill="black"/>
<path opacity="0.1" d="M260.052 103.429L278.402 103.448C277.587 111.916 259.479 111.899 260.052 103.429Z" fill="black"/>
<path opacity="0.1" d="M297.395 103.467C296.487 111.934 277.749 111.916 278.408 103.448L297.395 103.467Z" fill="black"/>
<path d="M259.724 318.623H142.777V314.097L259.724 314.115V318.623Z" fill="#0093FB"/>
<path d="M259.724 274.618L142.777 274.444V269.919L259.724 270.11V274.618Z" fill="#0093FB"/>
<path d="M259.724 230.613L142.777 230.266V225.741L259.724 226.105V230.613Z" fill="#0093FB"/>
<path d="M259.724 186.608L142.777 186.088V181.563L259.724 182.1V186.608Z" fill="#0093FB"/>
<path d="M249.274 134.167L153.423 133.605C149.972 133.585 147.164 130.708 147.164 127.192C147.164 123.676 149.972 120.833 153.423 120.857L249.274 121.486C252.686 121.508 255.46 124.37 255.46 127.864C255.46 131.359 252.686 134.186 249.274 134.167ZM153.423 121.28C150.202 121.259 147.579 123.913 147.579 127.194C147.579 130.477 150.201 133.162 153.423 133.182L249.274 133.746C252.459 133.764 255.05 131.125 255.05 127.863C255.05 124.601 252.459 121.929 249.274 121.909L153.423 121.28Z" fill="#0093FB"/>
<path d="M249.273 121.698L239.301 121.632V133.897L249.273 133.956C252.577 133.975 255.255 131.248 255.255 127.863C255.255 124.48 252.577 121.718 249.273 121.698Z" fill="#0093FB"/>
<path d="M245.58 129.583C244.752 129.578 243.973 129.242 243.387 128.639C242.178 127.393 242.178 125.38 243.387 124.148C243.973 123.553 244.751 123.227 245.58 123.233C246.408 123.238 247.187 123.573 247.771 124.177C248.98 125.423 248.98 127.437 247.771 128.667C247.187 129.262 246.408 129.588 245.58 129.583ZM245.58 123.998C244.951 123.994 244.361 124.241 243.917 124.692C243 125.626 243 127.154 243.917 128.1C244.361 128.558 244.952 128.811 245.58 128.816C246.209 128.82 246.798 128.573 247.243 128.121C248.16 127.187 248.16 125.659 247.243 124.714C246.798 124.257 246.209 124.003 245.58 123.998Z" fill="white"/>
<path d="M249.592 131.105L247.242 128.662L247.771 128.124L250.121 130.566L249.592 131.105Z" fill="white"/>
<path d="M250.642 131.644C250.379 131.911 249.953 131.909 249.691 131.638L247.723 129.61L248.675 128.641L250.643 130.669C250.904 130.94 250.904 131.376 250.642 131.644Z" fill="white"/>
<path d="M179.964 177.875L147.164 177.72V144.233L179.964 144.425V177.875Z" fill="#7EBEFB"/>
<path d="M218.142 178.054L185.426 177.901V144.457L218.142 144.648V178.054Z" fill="#7EBEFB"/>
<path d="M255.369 178.23L222.734 178.076V144.675L255.369 144.865V178.23Z" fill="#7EBEFB"/>
<path d="M179.964 222.78L147.164 222.675V189.188L179.964 189.33V222.78Z" fill="#7EBEFB"/>
<path d="M218.142 222.903L185.426 222.799V189.354L218.142 189.496V222.903Z" fill="#7EBEFB"/>
<path d="M255.369 223.023L222.734 222.918V189.516L255.369 189.657V223.023Z" fill="#7EBEFB"/>
<path d="M179.964 266.903L147.164 266.847V233.359L179.964 233.453V266.903Z" fill="#7EBEFB"/>
<path d="M218.142 266.969L185.426 266.913V233.469L218.142 233.563V266.969Z" fill="#7EBEFB"/>
<path d="M255.369 267.034L222.734 266.977V233.575L255.369 233.669V267.034Z" fill="#7EBEFB"/>
<path d="M179.964 311.026L147.164 311.017V277.531L179.964 277.576V311.026Z" fill="#7EBEFB"/>
<path d="M218.142 311.036L185.426 311.027V277.583L218.142 277.628V311.036Z" fill="#7EBEFB"/>
<path d="M255.369 311.046L222.734 311.037V277.636L255.369 277.68V311.046Z" fill="#7EBEFB"/>
<path d="M172.554 169.587L171.823 169.363C171.839 169.31 173.105 163.766 173.207 161.657C173.329 159.118 172.551 156.868 170.958 155.152C169.136 153.19 166.362 152.055 163.347 152.038C160.398 152.022 157.832 153.023 156.122 154.858C154.55 156.545 153.796 158.861 153.944 161.554C154.06 163.682 155.127 169.039 155.138 169.092L154.391 169.244C154.347 169.022 153.303 163.777 153.184 161.592C153.024 158.68 153.849 156.165 155.569 154.319C157.425 152.327 160.188 151.241 163.348 151.258C166.571 151.276 169.546 152.5 171.511 154.618C173.252 156.493 174.102 158.941 173.97 161.698C173.861 163.901 172.617 169.365 172.554 169.587Z" fill="#398CDB"/>
<path d="M154.434 165.63L155.43 171.051C155.538 171.637 156.058 172.039 156.625 172.002L155.224 164.307C154.674 164.473 154.325 165.041 154.434 165.63Z" fill="#398CDB"/>
<path d="M156.762 171.986L158.905 171.587L157.489 163.879L155.346 164.278C155.306 164.285 155.266 164.295 155.227 164.307L156.628 172.002C156.672 172 156.717 171.995 156.762 171.986Z" fill="#398CDB"/>
<path d="M159.47 172.346C158.816 172.468 158.186 172.025 158.062 171.358L156.783 164.395C156.659 163.726 157.09 163.087 157.745 162.965C158.399 162.843 159.029 163.286 159.153 163.954L160.432 170.916C160.555 171.583 160.124 172.224 159.47 172.346Z" fill="#C1DFFB"/>
<path d="M172.588 165.801L171.459 171.181C171.337 171.762 170.809 172.145 170.242 172.089L171.831 164.451C172.376 164.637 172.711 165.215 172.588 165.801Z" fill="#398CDB"/>
<path d="M170.107 172.068L167.977 171.593L169.581 163.942L171.711 164.418C171.752 164.427 171.792 164.439 171.83 164.452L170.241 172.09C170.197 172.084 170.152 172.078 170.107 172.068Z" fill="#398CDB"/>
<path d="M167.391 172.331C168.041 172.477 168.681 172.057 168.82 171.393L170.27 164.483C170.409 163.82 169.994 163.163 169.343 163.018C168.692 162.873 168.052 163.293 167.913 163.956L166.464 170.867C166.326 171.531 166.74 172.186 167.391 172.331Z" fill="#C1DFFB"/>
<path d="M205.924 156.399L205.154 157.8L191.109 157.724V170.003L212.47 170.111V157.987L211.623 156.429L205.924 156.399Z" fill="#CBE4FB"/>
<path d="M204.253 158.414L199.328 158.387V156.363L204.253 156.39V158.414Z" fill="#CBE4FB"/>
<path d="M197.688 158.378L192.762 158.351V156.327L197.688 156.354V158.378Z" fill="#CBE4FB"/>
<path d="M212.47 167.73L191.109 167.623V160.536L212.47 160.649V167.73Z" fill="#398CDB"/>
<path d="M210.984 164.183C210.984 166.946 208.793 169.174 206.089 169.161C203.384 169.147 201.191 166.896 201.191 164.133C201.191 161.369 203.384 159.141 206.089 159.154C208.793 159.169 210.984 161.42 210.984 164.183Z" fill="#398CDB"/>
<path d="M209.885 164.176C209.885 166.318 208.185 168.047 206.089 168.036C203.992 168.025 202.293 166.279 202.293 164.137C202.293 161.996 203.992 160.267 206.089 160.278C208.185 160.289 209.885 162.035 209.885 164.176Z" fill="#CBE4FB"/>
<path d="M207.904 164.167C207.904 165.191 207.091 166.017 206.089 166.012C205.087 166.007 204.273 165.173 204.273 164.147C204.273 163.122 205.087 162.296 206.089 162.302C207.091 162.307 207.904 163.142 207.904 164.167Z" fill="#398CDB"/>
<path d="M176.264 259.92C176.097 256.551 168.559 254.429 168.559 254.429C168.559 254.429 161.66 246.838 158.773 243.033C153.862 244.948 152.691 247.322 153.422 251.455C155.816 249.423 159.9 253.158 164.863 259.896L176.264 259.92Z" fill="#398CDB"/>
<path d="M153.422 251.455L155.059 260.238L155.849 260.239C156.068 256.288 156.561 251.807 159.177 253.24C159.179 249.715 153.422 249.702 153.422 251.455Z" fill="#398CDB"/>
<path d="M165.787 194.456C165.637 194.019 165.545 193.56 165.5 193.094L165.134 193.093C165.124 193.511 165.031 193.952 164.969 194.188C164.712 195.149 163.989 195.873 163.133 195.917C162.277 195.866 161.553 195.137 161.297 194.172C161.233 193.935 161.142 193.494 161.132 193.076L160.766 193.074C160.72 193.541 160.629 193.998 160.479 194.434C160.109 195.507 159.475 196.411 158.727 197.156L159.311 202.645L162.974 202.66L163.294 202.661L166.956 202.676L167.54 197.192C166.791 196.44 166.157 195.532 165.787 194.456Z" fill="#D5E9FB"/>
<path d="M171.652 217.06C170.023 218.727 156.632 218.849 154.605 217.001C155.52 211.81 156.716 206.794 159.307 202.646L166.955 202.676C169.271 206.274 170.595 211.456 171.652 217.06Z" fill="#D5E9FB"/>
<path d="M163.794 203.977C160.696 203.964 159.231 202.64 159.17 202.583C159.124 202.54 159.12 202.466 159.162 202.418C159.203 202.371 159.276 202.367 159.323 202.41C159.337 202.423 160.792 203.731 163.794 203.742C163.795 203.742 163.796 203.742 163.799 203.742C166.473 203.751 166.841 202.653 166.844 202.642C166.862 202.58 166.926 202.546 166.985 202.565C167.045 202.583 167.079 202.648 167.062 202.709C167.048 202.761 166.664 203.985 163.799 203.975C163.798 203.977 163.795 203.977 163.794 203.977Z" fill="#398CDB"/>
<path d="M163.481 206.083C163.409 206.083 163.321 206.051 163.233 205.942C162.674 205.242 164.069 203.923 164.229 203.775L164.48 203.545L164.419 203.883C164.331 204.367 164.008 205.955 163.548 206.073C163.527 206.08 163.505 206.083 163.481 206.083ZM164.119 204.211C163.686 204.674 163.117 205.429 163.409 205.795C163.432 205.823 163.464 205.857 163.489 205.849C163.681 205.8 163.945 205.019 164.119 204.211Z" fill="#398CDB"/>
<path d="M164.188 204.144L164.194 203.858C164.195 203.789 164.24 202.149 164.87 201.601C165.038 201.454 165.233 201.396 165.449 201.425C165.695 201.459 165.788 201.59 165.821 201.692C166.016 202.293 164.661 203.674 164.388 203.945L164.188 204.144ZM165.346 201.651C165.225 201.651 165.118 201.692 165.019 201.779C164.615 202.13 164.483 203.072 164.441 203.562C165.014 202.958 165.709 202.084 165.605 201.767C165.598 201.745 165.577 201.679 165.419 201.657C165.394 201.652 165.369 201.651 165.346 201.651Z" fill="#398CDB"/>
<path d="M166.476 205.847C166.433 205.847 166.393 205.822 166.373 205.781C165.701 204.371 164.294 203.978 164.281 203.974C164.22 203.957 164.183 203.894 164.199 203.832C164.215 203.769 164.277 203.733 164.338 203.749C164.4 203.766 165.861 204.173 166.579 205.678C166.607 205.735 166.582 205.806 166.526 205.833C166.51 205.843 166.493 205.847 166.476 205.847Z" fill="#398CDB"/>
<path d="M204.844 286.515C204.672 286.014 204.567 285.488 204.515 284.954H204.095C204.083 285.433 203.978 285.94 203.906 286.209C203.612 287.314 202.784 288.146 201.802 288.2C200.821 288.145 199.993 287.31 199.699 286.206C199.627 285.935 199.522 285.43 199.51 284.949H199.09C199.038 285.483 198.933 286.009 198.761 286.51C198.337 287.742 197.611 288.781 196.754 289.638L197.424 295.933L201.619 295.936H201.986L206.179 295.94L206.849 289.649C205.994 288.788 205.267 287.748 204.844 286.515Z" fill="#D5E9FB"/>
<path d="M208.602 300.924C207.912 299.075 207.12 297.392 206.183 295.939L197.423 295.933C196.45 297.496 195.651 299.168 194.977 300.917C196.935 302.959 206.851 303.302 208.602 300.924Z" fill="#D5E9FB"/>
<path d="M202.566 297.441C199.018 297.439 197.339 295.924 197.27 295.86C197.216 295.81 197.212 295.725 197.26 295.672C197.307 295.617 197.39 295.613 197.444 295.662C197.46 295.677 199.127 297.172 202.566 297.174C202.568 297.174 202.57 297.174 202.571 297.174C205.633 297.175 206.055 295.913 206.059 295.9C206.08 295.83 206.153 295.79 206.221 295.812C206.29 295.833 206.329 295.906 206.309 295.977C206.292 296.037 205.854 297.442 202.571 297.441C202.57 297.441 202.568 297.441 202.566 297.441Z" fill="#398CDB"/>
<path d="M202.205 299.859C202.122 299.859 202.02 299.824 201.92 299.698C201.279 298.897 202.878 297.379 203.062 297.209L203.349 296.945L203.279 297.333C203.179 297.888 202.81 299.71 202.282 299.849C202.257 299.854 202.232 299.859 202.205 299.859ZM202.936 297.709C202.439 298.241 201.787 299.11 202.122 299.528C202.147 299.56 202.185 299.599 202.215 299.589C202.434 299.533 202.735 298.636 202.936 297.709Z" fill="#398CDB"/>
<path d="M203.012 297.632L203.019 297.305C203.02 297.225 203.072 295.343 203.793 294.712C203.986 294.544 204.208 294.477 204.456 294.508C204.739 294.546 204.844 294.695 204.882 294.814C205.106 295.501 203.554 297.091 203.24 297.403L203.012 297.632ZM204.338 294.767C204.2 294.767 204.076 294.816 203.963 294.915C203.5 295.319 203.349 296.4 203.301 296.962C203.957 296.266 204.752 295.261 204.634 294.898C204.626 294.873 204.601 294.798 204.422 294.773C204.393 294.77 204.366 294.767 204.338 294.767Z" fill="#398CDB"/>
<path d="M205.633 299.576C205.584 299.576 205.538 299.548 205.516 299.5C204.745 297.886 203.135 297.441 203.118 297.436C203.048 297.418 203.005 297.345 203.024 297.273C203.042 297.202 203.113 297.159 203.184 297.178C203.255 297.197 204.927 297.66 205.75 299.383C205.782 299.449 205.755 299.53 205.69 299.561C205.672 299.571 205.652 299.576 205.633 299.576Z" fill="#398CDB"/>
<path d="M198.017 198.066C198.017 198.066 200.318 198.84 203.688 197.972C205.847 200.638 202.045 201.909 199.671 201.331C197.296 200.753 198.017 198.066 198.017 198.066Z" fill="#CBE4FB"/>
<path d="M203.689 197.973C203.503 198.698 203.13 199.335 202.439 199.74C200.823 200.691 198.738 199.672 198.018 198.066C196.739 198.232 195.619 198.483 194.816 198.779V217.171L207.521 217.214V198.83C206.385 198.386 205.061 198.112 203.689 197.973Z" fill="#398CDB"/>
<path d="M194.814 198.779L189.34 203.087L192.94 207.908L198.299 203.847L194.814 198.779Z" fill="#398CDB"/>
<path d="M207.56 198.83L213.034 203.178L209.438 207.97L204.078 203.87L207.56 198.83Z" fill="#398CDB"/>
<path d="M226.905 214.22L226.652 214.219V215.313C226.652 215.313 240.329 216.307 245.712 215.379C251.094 214.452 251.462 212.642 251.462 212.642V211.517L251.277 211.515L226.905 214.22Z" fill="#398CDB"/>
<path d="M251.247 212.049C249.837 213.912 245.564 214.47 240.215 214.541C238.013 214.574 235.628 214.521 233.185 214.442C231.108 214.371 228.986 214.287 226.905 214.22C226.698 212.657 227.242 209.749 227.669 208.148C227.807 207.631 227.933 207.246 228.017 207.091L228.096 207.062C228.809 208.049 230.558 208.649 231.593 208.63C233.286 208.596 235.193 207.415 234.648 205.988C234.557 205.792 234.489 205.617 234.441 205.458C234.007 204.039 235.197 204.033 236.981 205.142C240.143 207.156 242.952 207.881 245.221 208.248C245.691 208.324 246.135 208.385 246.559 208.439C249.743 208.848 251.533 208.865 251.247 212.049Z" fill="#D5E9FB"/>
<path d="M251.066 212.048C249.656 213.911 245.383 214.469 240.034 214.54C239.879 213.755 239.744 211.689 242.496 211.185C244.587 210.804 245.772 209.436 246.376 208.435C249.563 208.846 251.352 208.865 251.066 212.048Z" fill="#398CDB"/>
<path d="M233.005 214.441C230.927 214.37 228.807 214.286 226.725 214.219C226.519 212.655 227.062 209.748 227.489 208.147C229.262 208.779 232.411 210.445 233.005 214.441Z" fill="#398CDB"/>
<path d="M245.221 208.246C244.816 208.888 244.19 208.909 243.59 208.906C238.182 208.528 235.44 206.374 234.441 205.456C234.007 204.037 235.197 204.03 236.981 205.14C240.143 207.154 242.954 207.879 245.221 208.246Z" fill="#398CDB"/>
<path d="M238.796 214.745C236.022 214.735 233.247 214.579 230.977 214.449C228.982 214.337 227.406 214.248 226.762 214.325L226.658 214.337L226.633 214.125L226.737 214.113C227.398 214.033 228.982 214.122 230.988 214.236C237.339 214.595 249.153 215.262 251.184 211.464L251.235 211.37L251.418 211.474L251.368 211.568C249.968 214.186 244.388 214.764 238.796 214.745Z" fill="#D5E9FB"/>
<path d="M242.788 172.493L235.914 172.458V151.074L242.788 151.113V172.493Z" fill="#398CDB"/>
<path d="M245.138 161.494C245.138 164.927 242.418 167.697 239.061 167.68C235.703 167.663 232.98 164.865 232.98 161.429C232.98 157.994 235.703 155.224 239.061 155.243C242.417 155.261 245.138 158.06 245.138 161.494Z" fill="#CBE4FB"/>
<path d="M243.952 161.488C243.952 164.252 241.762 166.482 239.059 166.468C236.356 166.455 234.164 164.202 234.164 161.437C234.164 158.671 236.356 156.441 239.059 156.456C241.762 156.471 243.952 158.723 243.952 161.488Z" fill="#398CDB"/>
<path d="M234.103 158.682L233.324 158.117L234.251 156.773L235.03 157.337L234.103 158.682Z" fill="#CBE4FB"/>
<path d="M233.388 161.404L232.445 161.529L232.661 163.165L233.604 163.04L233.388 161.404Z" fill="#CBE4FB"/>
<path d="M243.975 158.702L244.76 158.157L243.853 156.79L243.066 157.333L243.975 158.702Z" fill="#CBE4FB"/>
<path d="M244.492 163.177L245.435 163.311L245.648 161.678L244.706 161.544L244.492 163.177Z" fill="#CBE4FB"/>
<path d="M239.074 161.731L236.686 160.458C236.574 160.398 236.53 160.258 236.588 160.143C236.646 160.028 236.784 159.984 236.896 160.044L239.051 161.191L242.086 159.218C242.193 159.15 242.334 159.181 242.401 159.29C242.47 159.399 242.438 159.544 242.332 159.612L239.074 161.731Z" fill="#CBE4FB"/>
<path d="M190.025 255.385C191.163 255.742 192.798 256.028 194.663 256.233C197.731 256.571 201.432 256.693 204.603 256.565C207.736 256.44 210.352 256.072 211.336 255.43C211.336 255.43 213.428 242.753 201.105 242.44C200.967 242.437 200.825 242.434 200.685 242.434C187.886 242.401 190.025 255.385 190.025 255.385Z" fill="#398CDB"/>
<path d="M194.664 256.232C197.733 256.57 201.433 256.692 204.604 256.563C206.344 245.049 201.372 242.565 201.106 242.439C201.099 242.436 201.095 242.434 201.095 242.434L200.686 242.433C194.193 246.124 194.509 254.394 194.664 256.232Z" fill="#CBE4FB"/>
<path d="M210.005 255.912C210.005 255.912 206.519 261.827 190.342 260.457C183.417 259.87 190.025 255.385 190.025 255.385C194.386 256.457 202.781 256.965 210.005 255.912Z" fill="#599FE1"/>
<path d="M235.177 245.987L242.631 246.005C246.871 246.015 250.413 249.507 250.387 253.846C250.378 255.577 249.837 257.111 248.533 257.915L228.882 257.874C227.64 257.282 227.162 255.223 227.492 252.761C228.016 248.856 231.324 245.979 235.177 245.987Z" fill="#398CDB"/>
<path d="M236.305 246.192L236.311 246.126C236.432 244.658 237.673 243.511 239.136 243.514C240.599 243.518 241.839 244.671 241.961 246.141L241.967 246.208L242.929 246.21L242.917 246.062C242.754 244.089 241.093 242.541 239.137 242.536C237.18 242.531 235.52 244.071 235.356 246.043L235.344 246.192H236.305Z" fill="#398CDB"/>
<path d="M238.233 257.894L236.391 257.89V250.515L238.233 250.52V257.894Z" fill="#D5E9FB"/>
<path d="M241.881 257.901L240.039 257.897V250.523L241.881 250.527V257.901Z" fill="#D5E9FB"/>
<path d="M174.052 302.411C171.176 304.887 156.246 304.88 153.801 302.4C153.35 297.635 153.837 293.42 155.156 289.691C161.014 288.469 166.862 288.526 172.698 289.709C174.055 293.105 174.65 298.617 174.052 302.411Z" fill="#398CDB"/>
<path d="M155.156 289.691C155.156 289.691 156.314 296.833 164.444 296.789C172.569 296.744 172.697 289.708 172.697 289.708C172.697 289.708 164.36 287.618 155.156 289.691Z" fill="#599FE1"/>
<path d="M163.923 299.32C163.487 299.32 163.129 298.955 163.129 298.51V295.578C163.129 295.132 163.485 294.768 163.923 294.768C164.358 294.768 164.715 295.133 164.715 295.579V298.512C164.715 298.956 164.358 299.32 163.923 299.32Z" fill="#CBE4FB"/>
<path d="M236.894 286.169C236.894 286.169 238.989 286.868 242.055 286.069C244.019 288.493 240.559 289.662 238.399 289.141C236.24 288.62 236.894 286.169 236.894 286.169Z" fill="#398CDB"/>
<path d="M242.056 286.069C241.886 286.731 241.547 287.312 240.918 287.684C239.448 288.554 237.55 287.631 236.894 286.17C235.73 286.324 234.711 286.557 233.98 286.828V303.587L245.543 303.594V286.84C244.51 286.438 243.305 286.194 242.056 286.069Z" fill="#D5E9FB"/>
<path d="M233.983 286.827L229 290.768L232.277 295.152L237.153 291.437L233.983 286.827Z" fill="#D5E9FB"/>
<path d="M245.584 286.84L250.565 290.789L247.293 295.164L242.414 291.442L245.584 286.84Z" fill="#D5E9FB"/>
<path d="M243.759 291.697H240.375V295.159H243.759V291.697Z" fill="#398CDB"/>
<path d="M192.829 36.9201C195.915 36.9201 198.416 34.4197 198.416 31.3353C198.416 28.2509 195.915 25.7505 192.829 25.7505C189.744 25.7505 187.242 28.2509 187.242 31.3353C187.242 34.4197 189.744 36.9201 192.829 36.9201Z" fill="#7EBEFB"/>
<path d="M212.606 13.8315L214.978 11.133C201.677 -2.21259 180.946 -1.72075 168.297 12.2327L170.797 14.8127C182.137 2.34579 200.684 1.90643 212.606 13.8315Z" fill="#7EBEFB"/>
<path d="M207.679 19.4346L210.051 16.7362C199.615 6.34282 183.421 6.72483 173.488 17.5893L175.989 20.1693C184.612 10.7914 198.622 10.4618 207.679 19.4346Z" fill="#7EBEFB"/>
<path d="M202.911 24.8595L205.283 22.1611C197.618 14.6236 185.818 14.8982 178.516 22.775L181.016 25.355C187.01 18.9635 196.627 18.7426 202.911 24.8595Z" fill="#7EBEFB"/>
<path d="M377.323 139.461H300.758C295.509 139.461 291.254 135.208 291.254 129.961C291.254 124.714 295.509 120.461 300.758 120.461H377.323C382.572 120.461 386.827 124.714 386.827 129.961C386.827 135.208 382.572 139.461 377.323 139.461Z" fill="white"/>
<path d="M306.517 125.933L307.517 129.01H310.752L308.134 130.912L309.134 133.987L306.517 132.087L303.899 133.987L304.899 130.912L302.281 129.01H305.517L306.517 125.933Z" fill="#FFF37C"/>
<path d="M322.424 125.933L323.423 129.01H326.66L324.042 130.912L325.042 133.987L322.424 132.087L319.805 133.987L320.805 130.912L318.188 129.01H321.424L322.424 125.933Z" fill="#FFF37C"/>
<path d="M338.333 125.933L339.333 129.01H342.568L339.951 130.912L340.951 133.987L338.333 132.087L335.715 133.987L336.715 130.912L334.098 129.01H337.333L338.333 125.933Z" fill="#FFF37C"/>
<path d="M354.241 125.933L355.24 129.01H358.476L355.858 130.912L356.858 133.987L354.241 132.087L351.622 133.987L352.622 130.912L350.004 129.01H353.241L354.241 125.933Z" fill="#FFF37C"/>
<path d="M370.149 125.933L371.149 129.01H374.385L371.767 130.912L372.767 133.987L370.149 132.087L367.532 133.987L368.532 130.912L365.914 129.01H369.15L370.149 125.933Z" fill="#FFF37C"/>
<path d="M341.872 66.2779H284.971C282.99 66.2779 281.383 64.6718 281.383 62.691V30.1868C281.383 28.206 282.99 26.5999 284.971 26.5999H341.872C343.854 26.5999 345.461 28.206 345.461 30.1868V62.691C345.461 64.6718 343.854 66.2779 341.872 66.2779Z" fill="#7EBEFB"/>
<path d="M292.212 36.6246H296.918V34.7402C296.918 34.1129 296.409 33.604 295.781 33.604H289.195V38.1538C289.195 38.426 289.05 38.6469 288.778 38.6469C288.506 38.6469 288.398 38.426 288.398 38.1538V33.604H287.259C286.631 33.604 286.122 34.1129 286.122 34.7402V40.2518H292.298C292.489 40.2518 292.665 40.3897 292.684 40.5813C292.706 40.801 292.533 40.9865 292.319 40.9865H286.121V43.2602C286.121 43.8875 286.63 44.3965 287.258 44.3965H295.78C296.407 44.3965 296.917 43.8875 296.917 43.2602V37.3752H292.189C291.969 37.3752 291.795 37.186 291.817 36.9627C291.839 36.765 292.017 36.6246 292.212 36.6246Z" fill="#FFE5A6"/>
<path d="M340.648 55.228H327.594V61.8124H340.648V55.228Z" fill="#0093FB"/>
<path d="M298.302 48.4094H286.121V51.4825H298.302V48.4094Z" fill="#0093FB"/>
<path d="M312.424 48.4094H300.016V51.4825H312.424V48.4094Z" fill="#0093FB"/>
<path d="M340.573 48.4094H327.898V51.4825H340.573V48.4094Z" fill="#0093FB"/>
<path d="M326.093 48.4094H314.367V51.4825H326.093V48.4094Z" fill="#0093FB"/>
<path d="M323.763 55.228H286.195V59.1945H323.763V55.228Z" fill="#0093FB"/>
<path d="M340.651 30.3308H324.488V34.9563H340.651V30.3308Z" fill="#0093FB"/>
<path d="M110.507 39.6488C106.231 28.7343 100.129 28.8869 53.1902 28.8869C48.8742 28.8869 45.375 25.389 45.375 21.0748V7.81211C45.3762 3.49781 48.8742 0 53.1902 0H102.693C107.009 0 110.508 3.49781 110.508 7.81211V39.6488H110.507Z" fill="#7EBEFB"/>
<path d="M58.7626 14.3528C59.0135 12.9092 58.0462 11.5355 56.602 11.2846C55.1577 11.0337 53.7835 12.0007 53.5325 13.4444C53.2816 14.888 54.2489 16.2617 55.6931 16.5126C57.1374 16.7635 58.5116 15.7965 58.7626 14.3528Z" fill="white"/>
<path d="M72.5164 14.7758C73.0009 13.3928 72.2721 11.879 70.8885 11.3947C69.505 10.9104 67.9906 11.639 67.5062 13.022C67.0217 14.405 67.7505 15.9187 69.134 16.403C70.5176 16.8873 72.0319 16.1588 72.5164 14.7758Z" fill="white"/>
<path d="M86.456 14.5101C86.7928 13.084 85.9094 11.655 84.4828 11.3182C83.0561 10.9815 81.6265 11.8646 81.2896 13.2906C80.9528 14.7167 81.8362 16.1458 83.2628 16.4825C84.6895 16.8193 86.1191 15.9362 86.456 14.5101Z" fill="white"/>
<path d="M99.6032 15.7726C100.64 14.7365 100.64 13.0565 99.6032 12.0204C98.5667 10.9842 96.8861 10.9842 95.8495 12.0204C94.813 13.0565 94.813 14.7365 95.8495 15.7726C96.8861 16.8088 98.5667 16.8088 99.6032 15.7726Z" fill="white"/>
<path d="M416.056 132.04C417.19 127.239 414.216 122.428 409.413 121.294C404.61 120.161 399.797 123.134 398.663 127.935C397.529 132.736 400.503 137.547 405.306 138.68C410.109 139.814 414.922 136.841 416.056 132.04Z" fill="#18C787"/>
<path d="M406.807 134.153L402.73 127.593L403.44 126.865L406.846 130.175L417.404 121.029L418.07 121.9L406.807 134.153Z" fill="white"/>
</g>
<defs>
<clipPath id="clip0_540_2467">
<rect width="508" height="355" fill="white"/>
</clipPath>
</defs>
</svg>
