<svg width="593" height="576" viewBox="0 0 593 576" fill="none" xmlns="http://www.w3.org/2000/svg">
<path d="M30.9976 135.239C68.0768 63.2737 136.932 8.82803 222.654 1.16509C281.612 -3.97558 340.371 13.0242 387.477 48.8502C410.882 66.897 431.677 89.8719 445.49 116.095C461.344 146.219 465.966 180.953 482.278 210.938C502.56 248.211 540.652 263.593 566.237 295.799C587.296 322.328 594.529 357.88 592.113 391.669C587.699 453.348 551.564 511.902 498.409 543.512C453.472 570.235 399.304 577.607 347.094 575.177C266.577 571.443 186.422 544.886 123.008 495.147C59.5948 445.407 14.0198 371.873 3.21948 292.01C-4.12416 237.744 6.55119 182.674 30.9976 135.239Z" fill="#EFEFEF"/>
<path opacity="0.2064" d="M509.398 387.375L314.395 315.604L102.693 389.777C88.3805 396.454 89.2412 417.083 104.053 422.552L296.127 500.625L509.398 387.375Z" fill="#191D23"/>
<path d="M95.2793 367.579L293.974 437.753L484.715 341.592L321.169 278.483L95.2793 367.579Z" fill="#F45A16"/>
<path d="M294.363 486.48C294.363 486.48 96.2099 410.725 96.1822 410.711C86.2426 406.907 83.3412 395.08 84.2574 385.529C84.7294 380.642 85.8122 375.811 88.6858 371.744C91.3373 367.996 95.1827 365.039 99.6527 363.873C103.345 362.929 107.246 363.304 110.731 364.858L286.006 442.682L294.363 486.48Z" fill="#027396"/>
<path d="M95.2793 409.17L293.974 487.631L484.715 387.874V376.519L320.545 306.414L95.2793 409.17Z" fill="#027396"/>
<path d="M293.239 481.801L484.715 382.363V339.564L293.239 435.768V481.801Z" fill="#E3E3E3"/>
<path d="M95.2793 365.595L293.225 435.81L484.715 339.607L484.784 334.651L321.169 276.499L95.2793 365.595Z" fill="#027396"/>
<path d="M85.6455 377.797C85.6455 377.797 86.7006 374.715 91.7537 369.745C101.86 359.819 114.576 363.79 114.576 363.79L293.239 430.577L484.701 334.595L320.434 271.293L103.206 356.293C103.206 356.293 96.1543 360.541 92.0174 365.58C86.2564 372.633 85.6455 377.797 85.6455 377.797Z" fill="#216FA7"/>
<path d="M293.239 481.801L103.775 406.38C96.3068 403.409 91.3926 396.176 91.3926 388.139C91.3926 374.409 105.108 364.928 117.949 369.759L293.225 435.768V481.801H293.239Z" fill="white"/>
<path d="M112.869 373.174L286.021 440.502" stroke="white" stroke-width="1.08253" stroke-miterlimit="10"/>
<path d="M103.304 377.686L286.02 448.443" stroke="white" stroke-width="1.08253" stroke-miterlimit="10"/>
<path d="M99.6943 384.182L286.02 456.383" stroke="white" stroke-width="1.08253" stroke-miterlimit="10"/>
<path d="M98.251 390.86L286.021 464.325" stroke="white" stroke-width="1.08253" stroke-miterlimit="10"/>
<path d="M100.778 400.063L286.021 472.264" stroke="white" stroke-width="1.08253" stroke-miterlimit="10"/>
<path opacity="0.5481" d="M174.283 295.669C174.283 295.78 174.27 295.891 174.27 295.988L174.283 295.669Z" fill="#191D23"/>
<path opacity="0.5481" d="M174.256 296.295C174.256 296.198 174.256 296.087 174.27 295.976V296.67C174.256 296.545 174.256 296.434 174.256 296.295Z" fill="#191D23"/>
<path d="M297.251 440.654L477.149 352.697" stroke="white" stroke-width="1.08253" stroke-miterlimit="10"/>
<path d="M297.793 447.513L477.692 359.556" stroke="white" stroke-width="1.08253" stroke-miterlimit="10"/>
<path d="M298.334 454.356L478.232 366.413" stroke="white" stroke-width="1.08253" stroke-miterlimit="10"/>
<path d="M298.875 461.215L478.773 373.271" stroke="white" stroke-width="1.08253" stroke-miterlimit="10"/>
<path d="M299.417 468.071L479.315 380.114" stroke="white" stroke-width="1.08253" stroke-miterlimit="10"/>
<path d="M257.369 162.985V202.507C257.369 203.562 257.883 204.464 258.771 204.881C258.813 204.895 258.855 204.922 258.882 204.936L271.807 210.17L298.488 220.97C298.96 221.165 299.488 221.012 299.89 220.651L305.124 216.32C305.596 215.945 305.873 215.376 305.873 214.848V176.645C305.873 175.145 305.11 173.91 303.833 173.424L264.616 157.515C264.102 157.307 263.477 157.446 262.964 157.848L257.994 161.93C257.938 161.957 257.869 162.013 257.813 162.068C257.55 162.304 257.369 162.638 257.369 162.985Z" fill="#FFD05A"/>
<path d="M257.369 162.984V202.507C257.369 203.562 257.883 204.464 258.771 204.881C258.813 204.895 258.855 204.922 258.882 204.936L271.807 210.17L298.488 220.97C298.96 221.164 299.488 221.012 299.89 220.651C300.223 220.359 300.473 219.915 300.473 219.443V180.92C300.473 179.518 299.751 178.38 298.571 177.88L258.868 161.804C258.577 161.693 258.258 161.735 257.98 161.915C257.924 161.943 257.855 161.999 257.799 162.054C257.55 162.304 257.369 162.637 257.369 162.984Z" fill="#FFDC79"/>
<path d="M276.971 180.586L274.319 185.098C274.166 185.362 273.861 185.528 273.597 185.473L267.864 184.473C267.323 184.376 266.823 185.098 267.142 185.515L271.709 191.428C271.793 191.539 271.834 191.692 271.793 191.859L270.613 198.355C270.543 198.744 270.821 199.022 271.196 198.939L277.318 197.675C277.484 197.648 277.637 197.675 277.748 197.772L283.343 202.506C283.745 202.853 284.467 202.34 284.37 201.784L283.384 195.732C283.343 195.468 283.481 195.177 283.731 195.01L288.062 192.178C288.493 191.9 288.548 191.289 288.16 191.109L281.274 187.902C281.177 187.861 281.094 187.777 281.052 187.666L277.984 180.475C277.845 180.073 277.234 180.128 276.971 180.586Z" fill="white"/>
<path d="M401.256 206.641V246.732C401.256 247.815 401.769 248.718 402.672 249.148C402.713 249.162 402.755 249.19 402.797 249.204L415.901 254.52L442.972 265.473C443.444 265.668 443.985 265.515 444.388 265.154L449.691 260.767C450.163 260.393 450.454 259.809 450.454 259.268V220.509C450.454 218.996 449.677 217.747 448.386 217.233L408.613 201.102C408.1 200.894 407.461 201.033 406.934 201.435L401.88 205.572C401.825 205.6 401.756 205.655 401.7 205.711C401.436 205.947 401.256 206.28 401.256 206.641Z" fill="#E83D83"/>
<path d="M401.256 206.641V246.732C401.256 247.815 401.769 248.717 402.672 249.148C402.713 249.162 402.755 249.189 402.797 249.203L415.901 254.52L442.972 265.473C443.444 265.667 443.985 265.515 444.388 265.154C444.721 264.862 444.985 264.404 444.985 263.932V224.854C444.985 223.438 444.249 222.272 443.055 221.772L402.783 205.461C402.477 205.35 402.158 205.391 401.88 205.572C401.825 205.599 401.756 205.655 401.7 205.711C401.436 205.947 401.256 206.28 401.256 206.641Z" fill="#FE5C99"/>
<path d="M416.971 226.049C416.971 229.214 419.539 232.795 422.718 234.031C425.883 235.266 428.465 233.698 428.465 230.519C428.465 227.354 425.897 223.772 422.718 222.537C419.539 221.301 416.971 222.884 416.971 226.049Z" fill="white"/>
<path d="M409.71 243.345L435.697 253.466C435.67 246.302 429.881 238.265 422.704 235.46C419.122 234.072 415.874 234.253 413.514 235.696C411.168 237.14 409.71 239.764 409.71 243.345Z" fill="white"/>
<path opacity="0.16" d="M292.893 86.2012V104.831C292.893 105.331 293.129 105.747 293.545 105.955C293.559 105.955 293.587 105.969 293.601 105.983L299.695 108.454L312.272 113.549C312.494 113.646 312.744 113.563 312.924 113.396C313.077 113.257 313.202 113.049 313.202 112.827V94.6692C313.202 94.0168 312.855 93.4754 312.3 93.2394L293.587 85.6598C293.448 85.6042 293.295 85.632 293.17 85.7153C293.142 85.7292 293.115 85.7569 293.087 85.7847C292.976 85.868 292.893 86.0346 292.893 86.2012Z" fill="#575757"/>
<path opacity="0.16" d="M308.288 104.304V122.934C308.288 123.433 308.524 123.85 308.941 124.058C308.954 124.058 308.982 124.072 308.996 124.086L315.09 126.557L327.668 131.651C327.89 131.749 328.14 131.665 328.32 131.499C328.473 131.36 328.598 131.152 328.598 130.93V112.772C328.598 112.119 328.251 111.578 327.695 111.342L308.982 103.762C308.843 103.707 308.691 103.735 308.566 103.818C308.538 103.832 308.51 103.859 308.482 103.887C308.371 103.984 308.288 104.137 308.288 104.304Z" fill="#575757"/>
<path opacity="0.1" d="M238.766 113.59V141.465C238.766 142.215 239.127 142.839 239.751 143.145C239.779 143.159 239.807 143.173 239.835 143.186L248.941 146.879L267.765 154.5C268.099 154.639 268.473 154.528 268.751 154.278C268.987 154.07 269.167 153.765 269.167 153.431V126.264C269.167 125.278 268.654 124.473 267.821 124.126L239.821 112.785C239.612 112.701 239.39 112.743 239.196 112.868C239.154 112.896 239.113 112.923 239.071 112.965C238.891 113.104 238.766 113.34 238.766 113.59Z" fill="white"/>
<path opacity="0.1" d="M182.183 147.046V178.808C182.183 179.655 182.599 180.377 183.307 180.724C183.335 180.738 183.376 180.752 183.404 180.765L193.788 184.972L215.236 193.648C215.611 193.801 216.041 193.69 216.36 193.398C216.624 193.162 216.832 192.801 216.832 192.426V161.469C216.832 160.345 216.249 159.429 215.305 159.026L183.39 146.102C183.154 146.005 182.905 146.046 182.682 146.185C182.641 146.213 182.585 146.254 182.544 146.296C182.321 146.49 182.183 146.754 182.183 147.046Z" fill="white"/>
<path opacity="0.2" d="M407.296 296.043V320.753C407.296 321.42 407.615 321.975 408.17 322.239C408.198 322.253 408.226 322.266 408.24 322.266L416.319 325.543L433.006 332.289C433.297 332.414 433.63 332.317 433.88 332.095C434.088 331.915 434.255 331.637 434.255 331.345V307.26C434.255 306.385 433.797 305.677 433.061 305.358L408.24 295.307C408.059 295.238 407.865 295.266 407.685 295.377C407.643 295.391 407.615 295.432 407.574 295.46C407.407 295.613 407.296 295.821 407.296 296.043Z" fill="white"/>
<path opacity="0.2" d="M160.665 154.793V186.555C160.665 187.402 161.081 188.124 161.789 188.471C161.817 188.485 161.859 188.499 161.887 188.513L172.271 192.719L193.718 201.395C194.093 201.548 194.524 201.437 194.843 201.145C195.107 200.909 195.315 200.548 195.315 200.174V169.216C195.315 168.092 194.732 167.176 193.788 166.773L161.873 153.849C161.637 153.752 161.387 153.793 161.165 153.932C161.123 153.96 161.068 154.002 161.026 154.043C160.804 154.251 160.665 154.515 160.665 154.793Z" fill="white"/>
<path opacity="0.1" d="M448.524 272.416V303.346C448.524 304.178 448.927 304.873 449.621 305.206C449.649 305.22 449.677 305.234 449.718 305.247L459.824 309.343L480.703 317.797C481.078 317.95 481.494 317.825 481.8 317.547C482.064 317.325 482.258 316.978 482.258 316.603V286.451C482.258 285.354 481.689 284.466 480.759 284.077L449.69 271.5C449.454 271.417 449.218 271.444 448.996 271.583C448.955 271.611 448.899 271.653 448.858 271.694C448.663 271.875 448.524 272.139 448.524 272.416Z" fill="white"/>
<path opacity="0.1" d="M108.663 283.077V309.717C108.663 310.439 109.01 311.036 109.607 311.328C109.635 311.341 109.663 311.355 109.69 311.369L118.394 314.895L136.386 322.183C136.705 322.308 137.066 322.211 137.33 321.975C137.552 321.781 137.732 321.475 137.732 321.156V295.183C137.732 294.239 137.246 293.475 136.441 293.128L109.676 282.286C109.482 282.203 109.26 282.245 109.08 282.356C109.038 282.383 108.996 282.411 108.955 282.453C108.774 282.605 108.663 282.841 108.663 283.077Z" fill="white"/>
<path d="M332.332 211.155V237.794C332.332 238.516 332.679 239.113 333.276 239.405C333.304 239.419 333.332 239.433 333.359 239.446L342.063 242.972L360.055 250.261C360.374 250.386 360.735 250.288 360.999 250.052L364.525 247.137C364.844 246.887 365.024 246.499 365.024 246.138V220.386C365.024 219.373 364.511 218.554 363.65 218.207L337.219 207.49C336.872 207.351 336.455 207.434 336.108 207.712L332.748 210.461C332.707 210.488 332.665 210.516 332.624 210.558C332.457 210.697 332.332 210.919 332.332 211.155Z" fill="#06548B"/>
<path d="M332.332 211.155V237.794C332.332 238.516 332.679 239.113 333.276 239.405C333.304 239.419 333.332 239.432 333.359 239.446L342.063 242.972L360.055 250.261C360.374 250.385 360.735 250.288 360.999 250.052C361.221 249.858 361.401 249.553 361.401 249.233V223.26C361.401 222.316 360.915 221.552 360.11 221.205L333.345 210.363C333.151 210.28 332.929 210.322 332.748 210.433C332.707 210.46 332.665 210.488 332.624 210.53C332.457 210.696 332.332 210.919 332.332 211.155Z" fill="#216FA7"/>
<path d="M337.829 228.077L341.952 235.282L355.779 226.578" stroke="white" stroke-width="3.55035" stroke-miterlimit="10" stroke-linecap="round"/>
<path d="M131.596 221.246V247.886C131.596 248.608 131.943 249.205 132.54 249.497C132.567 249.51 132.595 249.524 132.623 249.538L141.327 253.064L159.318 260.352C159.638 260.477 159.999 260.38 160.262 260.144L163.788 257.229C164.108 256.979 164.288 256.59 164.288 256.229V230.478C164.288 229.465 163.774 228.632 162.914 228.299L136.482 217.582C136.135 217.443 135.719 217.526 135.372 217.804L132.012 220.552C131.971 220.58 131.929 220.608 131.887 220.65C131.721 220.788 131.596 221.01 131.596 221.246Z" fill="#00E0C1"/>
<path d="M131.596 221.246V247.886C131.596 248.608 131.943 249.205 132.54 249.497C132.567 249.51 132.595 249.524 132.623 249.538L141.327 253.064L159.318 260.352C159.638 260.477 159.999 260.38 160.262 260.144C160.484 259.95 160.665 259.644 160.665 259.325V233.352C160.665 232.408 160.179 231.644 159.374 231.297L132.609 220.455C132.415 220.372 132.193 220.413 132.012 220.525C131.971 220.552 131.929 220.58 131.887 220.622C131.721 220.788 131.596 221.01 131.596 221.246Z" fill="#02F5D0"/>
<path d="M150.711 245.832C151.433 247.025 152.752 247.317 153.668 246.47C154.57 245.623 154.723 243.971 154.001 242.764C153.279 241.57 151.96 241.278 151.044 242.125C150.142 242.972 149.989 244.638 150.711 245.832Z" fill="white"/>
<path d="M143.687 242.929C144.409 244.137 145.728 244.429 146.63 243.582C147.546 242.735 147.699 241.083 146.991 239.875C146.269 238.668 144.95 238.376 144.048 239.223C143.132 240.07 142.965 241.736 143.687 242.929Z" fill="white"/>
<path d="M136.648 240.043C137.356 241.251 138.675 241.543 139.591 240.71C140.508 239.877 140.674 238.211 139.966 237.017C139.258 235.809 137.94 235.518 137.023 236.351C136.107 237.17 135.94 238.836 136.648 240.043Z" fill="white"/>
<path opacity="0.2064" d="M429.395 430.45L440.862 427.146C442.57 426.646 443.972 428.548 443 430.047L439.307 435.725C438.558 436.891 437.516 437.835 436.295 438.502L349.837 485.145C346.241 487.089 341.869 486.825 338.537 484.465C336.607 483.105 336.788 480.203 338.856 479.079L427.743 431.13C428.285 430.839 428.826 430.616 429.395 430.45Z" fill="#191D23"/>
<path d="M431.214 422.482L432.13 424.453L435.601 431.977L446.012 421.218C446.193 421.038 446.123 420.76 445.943 420.663C445.86 420.58 445.776 420.552 445.679 420.566L431.214 422.482Z" fill="#FFDC79"/>
<path d="M431.214 422.482L432.13 424.453L435.323 424.481L445.943 420.663C445.86 420.58 445.776 420.552 445.679 420.566L431.214 422.482Z" fill="#FFE6A6"/>
<path d="M340.176 471.25L341.522 473.999L344.993 481.079L434.269 432.922H434.283C434.533 432.825 434.755 432.7 434.963 432.547C435.56 432.144 436.018 431.575 436.323 430.895C436.92 429.562 436.962 427.827 436.296 426.161C436.046 425.536 435.713 424.981 435.324 424.495C435.324 424.495 435.324 424.495 435.324 424.481C434.255 423.149 432.77 422.385 431.34 422.455C430.937 422.468 430.521 422.552 430.146 422.704C430.076 422.732 430.007 422.76 429.951 422.788L429.702 422.927C429.66 422.94 429.632 422.954 429.604 422.982C429.577 422.996 429.563 423.01 429.535 423.038L340.176 471.25Z" fill="#011A5F"/>
<path d="M340.176 471.25L341.522 473.999L345.395 473.083L435.31 424.495C435.31 424.495 435.31 424.495 435.31 424.482C435.31 424.482 435.31 424.482 435.31 424.468C434.241 423.135 432.756 422.371 431.326 422.441C430.923 422.455 430.507 422.538 430.132 422.691C430.063 422.719 429.993 422.746 429.938 422.774L429.688 422.913C429.646 422.927 429.618 422.941 429.591 422.968C429.563 422.982 429.549 422.996 429.521 423.024L340.176 471.25Z" fill="#0C3184"/>
<path d="M338.163 478.01C339.315 480.828 342.05 482.369 344.312 481.453C344.562 481.356 344.784 481.231 344.993 481.078C345.576 480.676 346.048 480.106 346.353 479.412C346.964 478.08 346.992 476.344 346.325 474.692C345.368 472.36 343.327 470.903 341.369 471C340.967 471.014 340.564 471.097 340.176 471.25C340.106 471.277 340.037 471.305 339.981 471.333L339.731 471.472C339.704 471.486 339.676 471.499 339.648 471.527C337.788 472.679 337.122 475.428 338.163 478.01Z" fill="#FFA15A"/>
<path d="M355.363 463.074L347.783 467.183C347.811 467.169 347.853 467.141 347.866 467.141C348.227 466.988 348.602 466.933 348.977 466.919C350.435 466.863 351.934 467.641 352.989 469.001C353.378 469.473 353.711 470.015 353.947 470.625C354.613 472.291 354.572 474.027 353.961 475.359C353.739 475.873 353.419 476.317 353.031 476.678C352.92 476.803 352.809 476.9 352.67 476.97L359.916 473.096C359.916 473.096 360.222 472.93 360.374 472.833C360.943 472.43 361.429 471.861 361.721 471.181C362.332 469.848 362.373 468.113 361.693 466.447C361.457 465.836 361.124 465.267 360.735 464.809C359.68 463.462 358.181 462.685 356.737 462.754C356.335 462.768 355.932 462.851 355.543 463.018C355.488 463.018 355.418 463.046 355.363 463.074Z" fill="#E0F9FE"/>
<path d="M347.589 467.265C347.658 467.224 347.7 467.182 347.769 467.168C347.728 467.182 347.7 467.21 347.686 467.21L347.589 467.265Z" fill="white"/>
<path d="M340.092 471.306C340.48 471.139 340.869 471.056 341.286 471.056C342.729 470.973 344.201 471.736 345.256 473.097C345.645 473.583 345.978 474.138 346.228 474.763C346.908 476.415 346.866 478.136 346.255 479.469C345.936 480.149 345.478 480.732 344.881 481.135L352.197 477.206C352.197 477.206 352.516 477.053 352.655 476.942C352.78 476.859 352.891 476.762 353.016 476.651C353.433 476.317 353.78 475.832 354.029 475.29C354.64 473.958 354.654 472.222 354.002 470.556C353.738 469.946 353.432 469.376 353.072 468.918C351.989 467.558 350.489 466.794 349.06 466.864C348.629 466.878 348.227 466.961 347.866 467.127C347.838 467.127 347.796 467.141 347.782 467.169H347.755C347.713 467.183 347.685 467.211 347.671 467.211L347.588 467.266L340.092 471.306Z" fill="#FF9136"/>
<path opacity="0.2064" d="M484.451 434.683L496.237 432.767C498 432.476 499.166 434.53 498.028 435.891L493.683 441.096C492.794 442.165 491.656 442.984 490.365 443.484L398.979 479.536C395.189 481.035 390.872 480.258 387.845 477.523C386.096 475.941 386.61 473.081 388.803 472.22L482.758 435.155C483.299 434.933 483.868 434.78 484.451 434.683Z" fill="#191D23"/>
<path d="M487.034 429.839L487.714 431.907L490.324 439.764L501.874 430.255C502.069 430.102 502.041 429.811 501.86 429.7C501.791 429.603 501.708 429.561 501.61 429.575L487.034 429.839Z" fill="#FFDC79"/>
<path d="M487.035 429.839L487.715 431.907L490.881 432.296L501.861 429.7C501.792 429.603 501.709 429.561 501.611 429.575L487.035 429.839Z" fill="#FFE6A6"/>
<path d="M391.066 468.029L392.094 470.916L394.745 478.343L488.88 440.556H488.894C489.158 440.487 489.393 440.39 489.616 440.265C490.254 439.931 490.782 439.418 491.157 438.765C491.906 437.516 492.142 435.795 491.656 434.059C491.476 433.407 491.212 432.81 490.879 432.296C490.879 432.296 490.879 432.296 490.879 432.282C489.963 430.839 488.588 429.909 487.159 429.825C486.756 429.798 486.339 429.825 485.937 429.95C485.867 429.964 485.798 429.992 485.729 430.02L485.465 430.131C485.423 430.145 485.395 430.158 485.368 430.172C485.34 430.186 485.326 430.2 485.298 430.214L391.066 468.029Z" fill="#06548B"/>
<path opacity="0.44" d="M391.066 468.029L392.094 470.916L396.05 470.444L490.879 432.31C490.879 432.31 490.879 432.31 490.879 432.296C490.879 432.296 490.879 432.296 490.879 432.282C489.963 430.839 488.588 429.909 487.159 429.825C486.756 429.798 486.339 429.825 485.937 429.95C485.867 429.964 485.798 429.992 485.729 430.02L485.465 430.131C485.423 430.145 485.395 430.158 485.368 430.172C485.34 430.186 485.326 430.2 485.298 430.214L391.066 468.029Z" fill="#216FA7"/>
<path d="M388.304 474.525C389.123 477.454 391.678 479.301 394.024 478.634C394.287 478.565 394.524 478.468 394.746 478.343C395.37 478.01 395.898 477.496 396.287 476.843C397.036 475.594 397.272 473.873 396.786 472.137C396.106 469.708 394.232 468.028 392.275 467.903C391.872 467.876 391.456 467.903 391.053 468.028C390.984 468.042 390.914 468.07 390.845 468.098L390.581 468.209C390.539 468.223 390.512 468.237 390.484 468.25C388.54 469.181 387.569 471.846 388.304 474.525Z" fill="#FFA15A"/>
<path d="M407.087 461.615L399.091 464.836C399.119 464.822 399.16 464.808 399.188 464.808C399.577 464.697 399.938 464.683 400.312 464.711C401.77 464.822 403.172 465.766 404.061 467.237C404.394 467.751 404.657 468.334 404.824 468.959C405.296 470.694 405.06 472.402 404.297 473.665C404.019 474.151 403.644 474.553 403.228 474.873C403.103 474.984 402.978 475.067 402.839 475.122L410.474 472.096C410.474 472.096 410.793 471.957 410.96 471.888C411.571 471.541 412.112 471.041 412.487 470.403C413.237 469.139 413.473 467.432 412.987 465.696C412.82 465.072 412.556 464.461 412.223 463.961C411.321 462.504 409.919 461.573 408.489 461.462C408.086 461.435 407.67 461.476 407.267 461.587C407.212 461.573 407.142 461.601 407.087 461.615Z" fill="#E0F9FE"/>
<path d="M398.882 464.906C398.951 464.879 399.007 464.837 399.062 464.837C399.021 464.851 398.993 464.865 398.965 464.865L398.882 464.906Z" fill="white"/>
<path d="M390.984 468.085C391.387 467.96 391.79 467.918 392.206 467.974C393.65 468.057 395.024 468.987 395.926 470.445C396.26 470.972 396.523 471.555 396.704 472.208C397.19 473.915 396.954 475.637 396.204 476.9C395.815 477.539 395.288 478.066 394.663 478.399L402.368 475.317C402.368 475.317 402.715 475.206 402.854 475.109C402.992 475.054 403.117 474.956 403.242 474.859C403.7 474.582 404.103 474.137 404.394 473.624C405.144 472.36 405.366 470.653 404.894 468.918C404.7 468.279 404.464 467.682 404.145 467.182C403.228 465.711 401.826 464.781 400.383 464.684C399.966 464.656 399.55 464.684 399.161 464.809C399.133 464.809 399.092 464.823 399.064 464.836H399.05C399.008 464.85 398.98 464.864 398.953 464.864L398.856 464.906L390.984 468.085Z" fill="#FF9136"/>
<path d="M288.922 248.024C289.685 249.759 288.908 251.161 287.186 251.161C285.451 251.161 283.424 249.759 282.661 248.024C281.897 246.289 282.675 244.887 284.396 244.887C286.117 244.887 288.144 246.289 288.922 248.024Z" stroke="#0081B4" stroke-width="1.38821" stroke-miterlimit="10"/>
<path d="M428.979 289.337C429.743 291.072 428.965 292.474 427.244 292.474C425.523 292.474 423.482 291.072 422.718 289.337C421.955 287.601 422.732 286.199 424.454 286.199C426.189 286.199 428.216 287.601 428.979 289.337Z" stroke="#0081B4" stroke-width="1.38821" stroke-miterlimit="10"/>
<path d="M376.38 204.267C377.143 206.003 376.366 207.405 374.644 207.405C372.909 207.405 370.882 206.003 370.119 204.267C369.355 202.532 370.133 201.13 371.854 201.13C373.575 201.144 375.602 202.546 376.38 204.267Z" stroke="#0081B4" stroke-width="1.38821" stroke-miterlimit="10"/>
<path d="M107.622 208.557C108.385 210.293 107.608 211.695 105.887 211.695C104.151 211.695 102.124 210.293 101.361 208.557C100.597 206.822 101.375 205.42 103.096 205.42C104.831 205.42 106.858 206.822 107.622 208.557Z" stroke="#0081B4" stroke-width="1.38821" stroke-miterlimit="10"/>
<path d="M254.689 239.168V244.887" stroke="#0081B4" stroke-width="1.38821" stroke-miterlimit="10" stroke-linecap="round" stroke-linejoin="round"/>
<path d="M257.368 243.388L251.996 240.307" stroke="#0081B4" stroke-width="1.38821" stroke-miterlimit="10" stroke-linecap="round" stroke-linejoin="round"/>
<path d="M318.448 170.909V176.629" stroke="#0081B4" stroke-width="1.38821" stroke-miterlimit="10" stroke-linecap="round" stroke-linejoin="round"/>
<path d="M321.142 175.144L315.77 172.048" stroke="#0081B4" stroke-width="1.38821" stroke-miterlimit="10" stroke-linecap="round" stroke-linejoin="round"/>
<path d="M142.132 165.994V171.727" stroke="#0081B4" stroke-width="1.38821" stroke-miterlimit="10" stroke-linecap="round" stroke-linejoin="round"/>
<path d="M144.826 170.228L139.453 167.146" stroke="#0081B4" stroke-width="1.38821" stroke-miterlimit="10" stroke-linecap="round" stroke-linejoin="round"/>
<path d="M478.232 261.31V267.043" stroke="#0081B4" stroke-width="1.38821" stroke-miterlimit="10" stroke-linecap="round" stroke-linejoin="round"/>
<path d="M480.912 265.544L475.539 262.462" stroke="#0081B4" stroke-width="1.38821" stroke-miterlimit="10" stroke-linecap="round" stroke-linejoin="round"/>
<path d="M183.253 279.801C183.253 279.801 182.198 302.776 180.546 308.357C178.894 313.937 181.628 322.739 160 336.94L167.094 345.783C167.094 345.783 192.915 334.261 197.607 313.34C199.772 303.651 204.326 279.385 204.326 279.385" fill="#F2B1A0"/>
<path opacity="0.2064" d="M186.653 487.866C184.904 490.504 181.336 493.322 174.992 496.029C168.676 498.722 163.956 504.788 159.153 506.496C153.697 508.425 144.452 506.121 138.274 499.749C136.039 497.445 138.552 496.39 138.51 494.224C138.468 492.405 139.024 490.712 139.69 489.49C141.148 486.825 145.382 485.312 150.504 483.66C155.627 482.008 157.709 480.536 161.318 477.607C164.928 474.664 166.149 470.93 167.413 469.236C168.065 468.389 173.118 470.416 174.715 473.567C175.506 475.164 175.242 475.719 174.909 476.219C174.576 476.733 174.631 477.385 174.951 477.912C175.201 478.315 175.603 478.634 176.089 478.745C182.766 480.106 181.85 474.567 181.85 474.567C186.528 477.552 190.138 482.605 186.653 487.866Z" fill="#191D23"/>
<path opacity="0.2064" d="M169.036 459.727C167.287 462.365 163.719 465.183 157.375 467.89C151.059 470.583 146.339 476.65 141.536 478.357C136.08 480.287 126.834 477.982 120.657 471.61C118.422 469.306 120.935 468.251 120.893 466.085C120.851 464.267 121.407 462.573 122.073 461.351C123.53 458.686 127.764 457.173 132.887 455.521C138.01 453.869 140.092 452.398 143.701 449.468C147.311 446.525 148.532 442.791 149.795 441.097C150.448 440.251 155.501 442.277 157.097 445.429C157.889 447.025 157.625 447.58 157.292 448.08C156.959 448.594 157.014 449.246 157.333 449.774C157.583 450.176 157.986 450.496 158.472 450.607C165.149 451.967 164.233 446.428 164.233 446.428C168.911 449.413 172.52 454.48 169.036 459.727Z" fill="#191D23"/>
<path d="M194.343 348.074C192.219 348.449 157.569 362.983 152.516 372.853C150.586 376.616 150.295 393.219 148.712 405.962C147.699 414.07 147.81 431.741 144.145 439.432C143.631 440.501 142.937 441.584 142.118 442.681C146.255 449.913 156.347 448.525 163.275 444.041C164.08 441.514 162.997 438.683 163.163 436.475C163.649 435.351 177.032 402.881 173.908 390.428C179.683 389.942 207.447 378.642 209.502 377.074C211.57 375.505 202.38 346.63 194.343 348.074Z" fill="#F2B1A0"/>
<path d="M165.358 455.201C165.358 455.201 166.108 456.076 165.969 457.075C165.844 458.075 164.608 459.657 161.957 460.934C159.305 462.212 157.279 462.684 154.544 464.919C151.809 467.14 146.687 471.957 143.771 474.317C140.842 476.677 136.733 477.649 134.456 477.774C132.18 477.912 128.598 477.482 123.92 475.33C120.047 473.553 118.409 470.097 117.937 468.237C117.465 466.376 117.617 463.336 117.617 463.336" fill="#A37676"/>
<path d="M165.011 456.992C162.707 459.102 161.18 459.31 155.002 462.531C148.852 465.724 142.758 474.289 137.733 475.455C132.707 476.649 126.141 473.525 121.241 470.471C118.575 468.805 117.562 466.473 117.409 464.238C117.284 462.364 117.743 460.559 118.339 459.268C119.644 456.423 123.795 454.576 128.807 452.522C133.818 450.481 135.595 448.44 139.038 445.178C142.48 441.888 143.508 437.945 144.674 436.113C145.271 435.183 150.421 436.96 152.17 440.125C153.031 441.735 152.809 442.318 152.489 442.86C152.184 443.415 152.267 444.081 152.614 444.609C152.878 445.011 153.309 445.317 153.781 445.386C160.499 446.344 163.276 438.834 163.276 438.834C168.135 441.61 167.316 454.882 165.011 456.992Z" fill="white"/>
<path d="M165.011 456.992C162.707 459.102 161.18 459.31 155.002 462.531C148.852 465.724 142.758 474.289 137.733 475.455C132.707 476.649 127.141 475.441 121.588 471.874C118.95 470.18 117.562 466.474 117.396 464.238C119.658 467.195 121.99 471.263 129.237 471.499C135.054 471.679 139.898 472.151 144.257 466.529C148.63 460.907 151.462 458.2 156.265 456.589C161.055 454.979 163.262 452.564 162.568 450.023C161.846 447.469 160.083 445.734 156.599 446.261C153.114 446.803 152.614 444.595 152.614 444.595C152.878 444.998 153.309 445.303 153.781 445.373C160.5 446.331 163.276 438.82 163.276 438.82C167.107 441.486 167.316 454.882 165.011 456.992Z" fill="#F2F2F2"/>
<path d="M211.988 377.184C209.864 377.559 175.214 392.094 170.161 401.964C168.232 405.726 167.94 422.329 166.358 435.073C165.344 443.18 165.455 460.852 161.79 468.542C161.277 469.611 160.583 470.694 159.764 471.791C163.901 479.024 173.993 477.635 180.92 473.151C181.725 470.625 180.642 467.793 180.809 465.586C181.295 464.461 194.677 431.991 191.554 419.539C197.329 419.053 225.093 407.753 227.148 406.184C229.216 404.629 220.026 375.754 211.988 377.184Z" fill="#FFC5B3"/>
<path d="M218.054 320.739L177.629 349.17C177.629 349.17 192.399 354.417 196.495 363.621C201.076 373.936 200.757 383.362 200.757 383.362L240.029 371.215C240.029 371.215 241.626 328.444 218.054 320.739Z" fill="#353535"/>
<path d="M270.751 328.749C270.751 328.749 282.801 361.414 261.811 385.249C249.303 399.451 222.15 416.54 222.15 416.54C222.15 416.54 213.848 410.487 205.477 397.771C201.021 391.01 196.218 383.75 196.218 383.75L234.199 344.269L270.751 328.749Z" fill="#353535"/>
<path d="M178.99 288.769C178.99 288.769 184.682 292.892 192.622 294.502C200.563 296.126 206.796 296.071 206.796 296.071C206.796 296.071 218.318 259.963 211.016 254.147C203.7 248.33 195.26 248.011 189.235 256.951C183.321 265.738 178.99 288.769 178.99 288.769Z" fill="#1B557E"/>
<path d="M200.702 333.983C211.905 342.923 228.48 354.445 241.321 351.127C253.149 348.073 264.144 338.064 270.752 328.749C266.878 312.257 260.812 271.555 248.457 255.965C235.644 239.792 225.399 238.015 225.399 238.015C225.399 238.015 215.612 228.173 199.245 249.135C182.878 270.097 190.61 291.031 196.288 307.218C203.09 326.5 198.426 323.474 200.702 333.983Z" fill="#216FA7"/>
<path d="M196.219 383.721C197.968 381.583 199.87 379.598 201.813 377.683C203.757 375.753 205.77 373.907 207.81 372.088C209.879 370.297 211.947 368.534 214.113 366.855C216.265 365.175 218.472 363.537 220.818 362.079C219.069 364.217 217.167 366.202 215.223 368.118C213.28 370.047 211.267 371.894 209.226 373.712C207.158 375.503 205.076 377.266 202.924 378.946C200.772 380.626 198.565 382.264 196.219 383.721Z" fill="#4F4F4F"/>
<path d="M182.975 483.327C182.975 483.327 183.725 484.202 183.586 485.201C183.461 486.201 182.226 487.783 179.574 489.06C176.923 490.338 174.896 490.81 172.161 493.045C169.426 495.266 164.304 500.083 161.388 502.443C158.459 504.803 154.35 505.775 152.074 505.899C149.797 506.038 146.215 505.608 141.537 503.456C137.664 501.679 136.026 498.223 135.554 496.362C135.082 494.502 135.235 491.462 135.235 491.462" fill="#A37676"/>
<path d="M182.628 485.132C180.324 487.242 178.797 487.45 172.619 490.67C166.47 493.863 160.375 502.429 155.35 503.595C150.325 504.789 143.758 501.665 138.858 498.611C136.193 496.945 135.179 494.613 135.027 492.378C134.902 490.504 135.36 488.699 135.957 487.408C137.262 484.562 141.412 482.716 146.424 480.661C151.435 478.621 153.212 476.58 156.655 473.318C160.098 470.028 161.125 466.085 162.291 464.253C162.888 463.323 168.038 465.086 169.787 468.265C170.648 469.875 170.426 470.458 170.107 471C169.801 471.555 169.885 472.221 170.232 472.749C170.495 473.151 170.926 473.457 171.398 473.526C178.117 474.484 180.893 466.974 180.893 466.974C185.752 469.75 184.933 483.021 182.628 485.132Z" fill="white"/>
<path d="M182.628 485.132C180.324 487.242 178.797 487.45 172.619 490.671C166.47 493.864 160.375 502.429 155.35 503.595C150.325 504.789 144.758 503.581 139.205 500.013C136.568 498.32 135.179 494.613 135.013 492.378C137.275 495.335 139.608 499.403 146.854 499.638C152.671 499.819 157.516 500.291 161.875 494.669C166.247 489.046 169.079 486.339 173.883 484.729C178.672 483.119 180.879 480.703 180.185 478.163C179.463 475.609 177.7 473.873 174.216 474.401C170.731 474.942 170.232 472.735 170.232 472.735C170.495 473.138 170.926 473.443 171.398 473.512C178.117 474.47 180.893 466.96 180.893 466.96C184.738 469.611 184.933 483.022 182.628 485.132Z" fill="#F2F2F2"/>
<path d="M233.729 228.159L233.215 243.138C233.215 243.138 217.514 253.675 209.435 251.787C205.965 250.981 204.271 246.442 205.229 240.139L212.683 238.89L233.729 228.159Z" fill="#F2BA88"/>
<path d="M190.375 204.56C190.375 204.56 185.793 213.153 188.723 229.686C190.347 238.876 195.539 244.998 200.092 247.192C204.645 249.385 208.796 249.746 216.723 245.026C224.663 240.306 229.189 232.31 229.189 232.31C229.189 232.31 230.272 233.074 233.159 230.033C237.671 225.286 238.587 222.856 238.809 216.207C239.031 209.557 237.657 201.131 232.784 192.26C227.912 183.389 211.906 185.624 204.576 189.081C197.232 192.524 191.999 197.174 190.375 204.56Z" fill="#FFD1A4"/>
<path d="M188.694 207.544C196.149 221.842 213.377 212.875 213.377 212.875C214.626 219.024 218.874 219.732 220.887 220.912C222.872 222.106 222.872 226.049 222.872 226.049L224.732 226.118C224.732 226.118 225.274 222.176 226.301 219.233C227.328 216.304 232.951 214.207 235.574 218.65C237.948 222.62 234.922 226.868 233.159 230.033C232.451 235.128 233.423 237.293 233.423 237.293C233.423 237.293 236.532 234.42 238.767 228.381C241.002 222.356 242.418 213.402 239.364 199.589C239.045 198.146 238.559 196.813 237.879 195.591C232.159 185.138 214.918 182.542 208.046 184.624C202.118 186.415 190.763 189.178 187.723 198.465C186.82 201.214 186.987 204.268 188.694 207.544Z" fill="#713E23"/>
<path opacity="0.34" d="M188.694 207.543C196.149 221.842 213.377 212.874 213.377 212.874C214.626 219.024 218.874 219.732 220.887 220.912C222.872 222.106 222.872 226.048 222.872 226.048L224.732 226.118C224.732 226.118 225.274 222.175 226.301 219.232C227.328 216.303 232.95 214.207 235.574 218.649C237.948 222.619 234.922 226.867 233.159 230.032C232.451 235.127 233.422 237.293 233.422 237.293C233.422 237.293 236.532 234.419 238.767 228.38C241.002 222.356 242.418 213.402 239.364 199.589C239.045 198.145 238.559 196.812 237.879 195.591C234.45 198.326 225.135 201.99 214.987 205.864C202.368 210.653 195.635 209.626 192.623 206.849C189.596 204.087 188.042 201.866 187.764 198.492L187.736 198.464C186.82 201.213 186.987 204.267 188.694 207.543Z" fill="#442312"/>
<path opacity="0.15" d="M160.014 365.481C160.014 365.481 160.847 367.966 164.817 368.48L190.638 384.18L242.71 363.954L160.014 365.481Z" fill="#444444"/>
<path d="M163.206 360.983L159.166 363.191L161.29 364.981L165.927 366.592L170.202 364.051L163.206 360.983Z" fill="#1B91A8"/>
<path d="M213.125 343.562L133.15 348.531L160.082 364.246L213.125 345.102V343.562Z" fill="#004559"/>
<path d="M185.445 327.735L132.429 346.726L159.374 362.302L212.39 343.297L185.445 327.735Z" fill="#46BCE0"/>
<path d="M132.429 346.726V348.267L158.125 363.107L161.192 364.87L159.18 363.703C158.569 363.023 158.708 362.44 158.208 361.621L132.429 346.726Z" fill="#007394"/>
<path d="M244.874 361.774L165.927 367.147L191.859 382.32L244.874 363.315V361.774Z" fill="#004559"/>
<path d="M219.471 347.115L166.247 365.995L191.86 380.779L244.875 361.775L219.471 347.115Z" fill="#46BCE0"/>
<path d="M191.858 382.32V380.779L166.246 365.994L165.288 366.966L191.858 382.32Z" fill="#007394"/>
<path d="M165.511 362.234L215.306 344.853L214.501 342.077L186.779 324.183L137.108 342.715L165.511 362.234Z" fill="#BFCADE"/>
<path d="M241.82 355.501L165.773 363.803L192.136 379.059L241.82 361.984V355.501Z" fill="#74869B"/>
<path d="M166.621 360.373L214.251 344.562C214.778 344.256 215.25 343.909 215.75 343.576C216.361 343.173 218.388 342.91 220.678 343.09C230.285 343.867 241.807 355.501 241.807 355.501L192.123 372.576L166.621 360.373Z" fill="#BFCADE"/>
<path d="M166.621 359.555L214.251 343.743C214.778 343.438 215.25 343.091 215.75 342.758C216.361 342.355 218.388 342.091 220.678 342.272C230.285 343.049 241.807 354.696 241.807 354.696L192.123 371.771L166.621 359.555Z" fill="#F5FAFF"/>
<path d="M164.816 363.219V362.122C164.816 359.859 163.928 357.708 162.373 356.069C153.836 347.06 137.094 342.715 137.094 342.715V347.213L164.816 363.219Z" fill="#D8E2ED"/>
<path d="M186.778 324.183L137.094 342.715C137.094 342.715 162.054 345.075 164.816 359.138L214.501 342.063C211.738 328 186.778 324.183 186.778 324.183Z" fill="#EBF6FA"/>
<path d="M164.816 363.234L165.774 363.789V363.817L165.941 363.886L192.136 379.073V371.785C192.136 371.785 181.544 361.096 172.202 359.513C171.799 359.444 171.397 359.388 171.008 359.36C169.883 359.263 168.814 359.291 167.954 359.374C167.815 359.36 167.69 359.36 167.551 359.374C166.774 359.402 166.066 359.735 165.58 360.277C165.177 360.707 164.9 361.262 164.844 361.901C164.83 361.984 164.83 362.054 164.83 362.137V363.234H164.816Z" fill="#BFCADE"/>
<path d="M164.816 363.233L165.774 363.788V363.816L165.941 363.885L192.136 379.072V372.603C192.136 372.603 179.837 361.72 172.202 359.943C171.785 359.846 166.621 358.777 165.58 360.012C165.191 360.47 164.886 361.248 164.844 361.914C164.83 361.997 164.83 362.067 164.83 362.15V363.233H164.816Z" fill="#D8E2ED"/>
<path d="M158.209 361.622C158.376 362.177 158.556 363.094 158.792 363.552C160.513 366.925 165.691 367.133 165.691 367.133L166.51 367.647L166.635 367.119L166.233 365.995C166.233 365.995 162.721 365.856 160.444 363.843C159.889 363.357 159.861 363.121 159.361 362.302L158.209 361.622Z" fill="#007394"/>
<path d="M214.417 346.726C217.79 345.491 224.232 351.738 217.304 358.998C215.694 360.692 214.931 362.163 212.682 363.065C211.571 363.51 209.988 364.454 208.545 364.787C205.505 366.592 203.353 367.161 201.52 368.008C199.105 369.118 199.938 369.784 194.579 367.23C189.207 364.676 192.261 363.065 192.261 363.065C192.261 363.065 192.261 363.065 191.095 361.705C189.929 360.345 191.4 359.595 191.4 359.595L200.424 353.431C200.59 352.959 200.826 352.487 201.118 352.029C198.675 351.89 193.497 351.391 193.163 349.78C192.719 347.67 199.549 348.975 202.367 348.475C203.367 348.295 204.922 348.101 206.518 347.906C206.837 347.809 207.143 347.698 207.448 347.656C209.822 347.254 212.043 347.573 214.417 346.726Z" fill="#FFC5B3"/>
<path d="M236.115 290.768C236.115 290.768 240.544 309.703 238.822 315.256C237.101 320.809 233.964 333.678 212.183 347.615L219.179 356.555C219.179 356.555 250.9 341.327 255.842 320.462C258.132 310.8 257.202 290.615 257.202 290.615" fill="#FFC5B3"/>
<path d="M231.562 292.655C231.562 292.655 237.711 294.974 243.889 295.057C250.066 295.14 261.353 290.351 261.353 290.351C261.353 290.351 262.588 270.999 255.883 259.463C249.178 247.927 240.571 246.872 233.533 255.271C226.481 263.67 231.562 292.655 231.562 292.655Z" fill="#1B557E"/>
<path opacity="0.3" d="M357.375 384.389C357.486 385.027 357.278 385.721 356.723 386.207L304.054 415.165C303.499 415.665 302.721 415.804 302.027 415.513L293.101 411.945L290.436 410.876L263.379 400.089L262.074 399.548L260.409 398.896C259.756 398.646 259.367 398.104 259.229 397.494C259.062 396.841 259.27 396.091 259.839 395.592L312.369 366.759C312.925 366.287 313.688 366.148 314.396 366.411L317.936 367.814L319.241 368.327L346.394 379.044L349.004 380.071L356.154 382.89C356.834 383.167 357.264 383.75 357.375 384.389Z" fill="#1796CE"/>
<path d="M262.047 389.997L311.772 363.607C312.286 363.163 313.022 363.038 313.66 363.288L352.697 378.697C353.974 379.211 354.266 380.891 353.224 381.793L303.36 408.308C302.846 408.766 302.11 408.891 301.472 408.627L262.574 393.093C261.297 392.58 261.005 390.9 262.047 389.997Z" fill="#B3E8F4"/>
<path d="M350.753 380.266C350.559 380.405 350.503 380.682 350.503 380.974L314.229 366.648C313.59 366.398 312.869 366.523 312.341 366.967L264.156 392.01C262.976 391.899 261.449 391.774 261.449 391.774L262.032 395.231H262.088C262.24 395.745 262.574 396.217 263.143 396.439L302.041 411.973C302.679 412.223 303.415 412.112 303.929 411.653L353.793 385.139C354.196 384.778 354.348 384.306 354.376 383.82L354.473 383.806L353.835 380.058C353.835 380.085 351.211 379.933 350.753 380.266Z" fill="#77BDC9"/>
<path d="M353.836 380.099L354.474 383.833L354.377 383.847C354.363 384.319 354.21 384.805 353.794 385.152L303.929 411.667C303.416 412.111 302.68 412.236 302.041 411.986L293.712 408.655L291.172 407.641L263.13 396.452C262.574 396.244 262.227 395.744 262.089 395.231L262.047 395.245L261.464 391.788C261.464 391.788 263.005 391.913 264.157 392.024L312.342 366.981C312.855 366.536 313.577 366.411 314.23 366.661L341.078 377.267L343.521 378.225L350.49 380.988C350.518 380.696 350.559 380.405 350.754 380.28C351.198 379.919 353.836 380.099 353.836 380.099Z" fill="#EDEDED"/>
<path d="M353.834 380.099C353.931 380.696 353.737 381.349 353.223 381.793L303.359 408.308C302.845 408.78 302.109 408.905 301.471 408.627L293.128 405.296L290.629 404.296L265.336 394.204L264.114 393.704L262.559 393.093C261.948 392.871 261.574 392.357 261.463 391.788C261.31 391.177 261.504 390.483 262.032 390.011L311.771 363.607C312.285 363.163 313.007 363.038 313.659 363.288L316.963 364.607L318.185 365.093L343.562 375.116L346.005 376.074L352.696 378.711C353.335 378.947 353.737 379.489 353.834 380.099Z" fill="#30C6C6"/>
<path d="M315.354 371.16L308.871 376.81L324.96 383.21L331.457 377.546L315.354 371.16Z" fill="#E0F9FE"/>
<path d="M260.075 379.545L309.801 353.155C310.314 352.711 311.05 352.586 311.689 352.836L350.725 368.245C352.016 368.759 352.294 370.439 351.253 371.341L301.388 397.856C300.874 398.314 300.139 398.439 299.5 398.175L260.602 382.641C259.325 382.127 259.034 380.448 260.075 379.545Z" fill="#B3E8F4"/>
<path d="M348.781 369.814C348.587 369.953 348.531 370.23 348.531 370.522L312.257 356.195C311.619 355.946 310.897 356.071 310.369 356.515L262.185 381.558C261.005 381.447 259.478 381.322 259.478 381.322L260.061 384.779H260.116C260.269 385.292 260.602 385.764 261.171 385.987L300.069 401.521C300.707 401.77 301.443 401.659 301.957 401.201L351.821 374.686C352.224 374.325 352.377 373.853 352.405 373.368L352.502 373.354L351.863 369.606C351.863 369.633 349.239 369.481 348.781 369.814Z" fill="#77BDC9"/>
<path d="M351.863 369.647L352.502 373.381L352.404 373.395C352.39 373.867 352.238 374.353 351.821 374.7L301.957 401.215C301.443 401.659 300.707 401.784 300.069 401.534L291.739 398.203L289.199 397.189L261.157 386C260.602 385.792 260.255 385.306 260.116 384.779L260.074 384.792L259.491 381.336C259.491 381.336 261.032 381.461 262.184 381.572L310.369 356.528C310.883 356.084 311.605 355.959 312.257 356.209L339.105 366.815L341.548 367.773L348.517 370.535C348.545 370.244 348.587 369.952 348.781 369.827C349.225 369.48 351.863 369.647 351.863 369.647Z" fill="#EDEDED"/>
<path d="M351.864 369.647C351.961 370.244 351.766 370.897 351.253 371.341L301.388 397.856C300.875 398.328 300.139 398.453 299.5 398.175L291.157 394.843L288.658 393.844L263.365 383.752L262.143 383.252L260.589 382.641C259.978 382.405 259.603 381.905 259.492 381.336C259.339 380.725 259.534 380.031 260.061 379.559L309.801 353.155C310.314 352.711 311.036 352.586 311.689 352.836L314.993 354.155L316.214 354.641L341.591 364.664L344.034 365.621L350.725 368.259C351.364 368.495 351.766 369.05 351.864 369.647Z" fill="#4DE4E8"/>
<path d="M291.143 394.774L291.157 394.844L291.754 398.203L289.199 397.19L288.616 393.872L288.658 393.844L339.119 366.802L342.465 364.928L344.908 365.886L341.563 367.76L291.143 394.774Z" fill="#4D8E93"/>
<path d="M317.366 359.818L308.884 364.441L324.973 370.841L333.469 366.19L317.366 359.818Z" fill="#E0F9FE"/>
<path d="M387.652 176.241H377.823C377.823 176.241 373.228 172.867 377.837 172.409C382.446 171.951 382.446 171.951 382.446 171.951L387.652 176.241Z" fill="#ED8406"/>
<path d="M378.767 94.9609H368.563V96.2797L374.172 97.5985L379.35 97.1543L378.767 94.9609Z" fill="#ED8406"/>
<path d="M391.281 175.804C406.736 172.474 415.387 151.778 410.605 129.577C405.822 107.377 389.416 92.0787 373.961 95.4081C358.506 98.7375 349.855 119.434 354.637 141.634C359.42 163.835 375.826 179.133 391.281 175.804Z" fill="#ED8406"/>
<path d="M382.812 175.804C398.267 172.474 406.918 151.778 402.136 129.577C397.353 107.377 380.948 92.0787 365.493 95.4081C350.038 98.7375 341.386 119.434 346.168 141.634C350.951 163.835 367.357 179.133 382.812 175.804Z" fill="#FBC006"/>
<path d="M380.818 166.549C392.72 163.984 399.385 148.053 395.703 130.964C392.022 113.875 379.389 102.1 367.487 104.664C355.584 107.228 348.92 123.16 352.601 140.249C356.283 157.338 368.916 169.113 380.818 166.549Z" fill="white"/>
<path d="M375.171 137.301C375.477 138.911 374.81 140.383 373.686 140.577C372.548 140.771 371.381 139.605 371.076 137.995C370.771 136.385 371.437 134.913 372.561 134.719C373.686 134.524 374.852 135.677 375.171 137.301Z" fill="#ED8406"/>
<path d="M373.118 138.689C372.535 138.689 372.062 138.217 372.062 137.634V119.462C372.062 118.879 372.535 118.407 373.118 118.407C373.701 118.407 374.173 118.879 374.173 119.462V137.634C374.173 138.217 373.701 138.689 373.118 138.689Z" fill="#ED8406"/>
<path d="M373.117 138.689C372.617 138.689 372.173 138.328 372.075 137.814C371.978 137.245 372.367 136.704 372.936 136.607L385.388 134.524C385.971 134.413 386.499 134.816 386.596 135.385C386.693 135.954 386.305 136.496 385.735 136.593L373.283 138.675C373.242 138.689 373.172 138.689 373.117 138.689Z" fill="#ED8406"/>
<path opacity="0.3" d="M323.211 280.953C323.211 280.106 322.281 279.578 321.545 280.009L295.474 291.947C295.044 292.211 294.808 292.711 294.891 293.211L300.222 324.112C300.305 324.598 300.097 325.084 299.681 325.348L283.494 335.718C282.717 336.217 282.745 337.37 283.564 337.814L296.946 345.296C297.904 345.838 299.084 345.824 300.028 345.269C305.678 341.951 325.349 330.387 331.735 326.639C332.581 326.139 332.512 324.89 331.624 324.473L328.805 323.168C328.347 322.96 328.07 322.488 328.097 321.988L323.211 280.953Z" fill="#1796CE"/>
<path d="M316.714 265.891L287.409 283.049L297.432 288.727L318.408 271.388L318.38 266.834C318.366 265.988 317.45 265.46 316.714 265.891Z" fill="#30C6C6"/>
<path d="M287.423 284.618L316.561 267.57L327.126 273.567L298.001 290.615L287.423 284.618Z" fill="#E0F9FE"/>
<path d="M327.916 271.736C327.542 271.5 327.084 271.375 326.639 271.624L297.431 288.727L287.408 283.049L316.714 265.891C317.033 265.711 317.366 265.711 317.671 265.822C317.671 265.822 316.644 265.322 316.242 265.086C315.881 264.878 315.422 264.767 315.006 265.003L284.174 283.049L284.535 335.052L296.085 328.291L296.182 341.674L327.708 323.224C328.291 322.877 328.652 322.239 328.652 321.559L329.291 272.499C329.291 272.499 328.361 272.013 327.916 271.736Z" fill="#8EEFEF"/>
<path d="M297.445 290.588L284.174 283.063L284.535 335.08L297.82 342.59L297.445 290.588Z" fill="#4DE4E8"/>
<path d="M328.279 272.541L297.446 290.588L297.807 342.59L329.334 324.141C329.917 323.794 330.278 323.155 330.278 322.475L329.93 273.485C329.93 272.638 329.014 272.111 328.279 272.541Z" fill="#30C6C6"/>
<path opacity="0.42" d="M325.432 280.954L310.759 289.547L310.925 298.779L325.599 290.172L325.432 280.954Z" fill="#E0F9FE"/>
<path opacity="0.3" d="M389.333 339.55C382.17 339.758 376.478 343.339 376.603 347.532C376.603 347.532 376.575 349.128 376.603 349.85C376.617 350.239 376.672 350.614 376.783 350.975C377.117 352.113 377.88 353.168 378.977 354.056L376.311 355.722C375.964 355.556 375.59 355.472 375.229 355.514C375.034 355.528 374.854 355.583 374.673 355.667C374.646 355.681 374.604 355.694 374.576 355.708L374.465 355.778C374.451 355.792 374.437 355.792 374.423 355.806C374.41 355.819 374.41 355.819 374.396 355.833L359.542 365.009C359.514 365.023 359.486 365.037 359.445 365.051L359.334 365.12C359.32 365.134 359.306 365.134 359.292 365.148C358.459 365.731 358.223 367.036 358.792 368.216C359.403 369.493 360.736 370.146 361.749 369.646C361.86 369.591 361.971 369.535 362.054 369.452L376.867 360.289C376.978 360.234 377.075 360.178 377.172 360.095C377.436 359.887 377.644 359.609 377.755 359.29C377.88 358.957 377.936 358.568 377.894 358.166L381.517 355.903C381.587 355.875 381.642 355.833 381.698 355.792C381.725 355.764 381.739 355.722 381.767 355.695C383.988 356.625 386.751 357.138 389.735 357.055C396.232 356.861 401.535 353.904 402.354 350.211C402.438 349.836 402.465 346.754 402.465 346.754C402.382 342.562 396.482 339.341 389.333 339.55Z" fill="#1796CE"/>
<path d="M374.937 348.406C374.951 348.795 375.007 349.17 375.118 349.531C376.159 353.168 381.628 355.806 388.125 355.611C394.622 355.417 399.925 352.46 400.744 348.767C400.827 348.392 400.855 345.311 400.855 345.311C400.855 345.311 397.454 338.536 387.681 338.675C381.767 338.758 374.951 346.074 374.951 346.074C374.951 346.074 374.91 347.671 374.937 348.406ZM376.992 348.337C376.964 347.421 377.27 346.532 377.839 345.727C379.463 343.437 383.253 341.757 387.695 341.618C392.151 341.493 396.024 342.937 397.773 345.13C398.398 345.908 398.745 346.768 398.773 347.684C398.87 351.211 394.081 352.585 388.056 352.765C382.059 352.946 377.103 351.863 376.992 348.337Z" fill="#4A86CE"/>
<path opacity="0.2" d="M376.491 346.074C376.602 349.683 381.766 352.446 388.041 352.266C394.316 352.085 399.313 349.017 399.202 345.408C399.091 341.798 393.927 339.036 387.652 339.216C381.378 339.411 376.38 342.479 376.491 346.074Z" fill="url(#paint0_linear_13_2007)"/>
<path opacity="0.5" d="M381.322 340.48C392.636 340.73 396.037 346.297 396.981 349.448C398.425 348.31 399.258 346.907 399.216 345.408C399.105 341.813 393.969 339.161 387.708 339.342C385.376 339.411 383.085 339.758 381.322 340.48Z" fill="white"/>
<path opacity="0.5" d="M377.615 346.213C377.712 349.406 382.28 351.849 387.832 351.697C393.385 351.544 397.8 348.823 397.703 345.63C397.703 345.533 397.689 345.45 397.689 345.353C397.383 348.351 393.122 350.808 387.832 350.975C382.446 351.141 377.99 348.837 377.629 345.783C377.615 345.922 377.615 346.074 377.615 346.213Z" fill="white"/>
<path d="M376.074 343.84L379.017 340.786L387.499 338.689L396.092 340.286L399.202 343.159L400.007 344.95L398.772 345.381C398.772 345.381 397.328 339.55 387.513 339.828C377.713 340.119 376.602 346.033 376.602 346.033L375.353 345.672L376.074 343.84Z" fill="#0A2982"/>
<path d="M374.937 346.074C374.95 346.463 375.006 346.838 375.117 347.198C376.158 350.836 381.628 353.473 388.125 353.279C394.621 353.084 399.924 350.128 400.743 346.435C400.827 346.06 400.868 345.685 400.854 345.297C400.73 341.104 394.83 337.87 387.68 338.078C380.503 338.314 374.812 341.882 374.937 346.074ZM376.991 346.018C376.963 345.102 377.269 344.214 377.838 343.409C379.462 341.118 383.252 339.438 387.694 339.3C392.15 339.175 396.024 340.618 397.773 342.812C398.397 343.589 398.744 344.45 398.772 345.366C398.869 348.892 394.08 351.904 388.055 352.071C382.058 352.265 377.102 349.545 376.991 346.018Z" fill="#80C4E7"/>
<path d="M374.937 346.074C374.95 346.463 375.006 346.838 375.117 347.198C376.158 350.836 381.628 353.473 388.125 353.279C394.621 353.084 399.924 350.128 400.743 346.435C400.827 346.06 400.868 345.685 400.854 345.297C400.73 341.104 394.83 337.87 387.68 338.078C380.503 338.314 374.812 341.882 374.937 346.074ZM376.991 346.018C376.963 345.102 377.269 344.214 377.838 343.409C379.462 341.118 383.252 339.438 387.694 339.3C392.15 339.175 396.024 340.618 397.773 342.812C398.397 343.589 398.744 344.45 398.772 345.366C398.869 348.892 394.08 351.904 388.055 352.071C382.058 352.265 377.102 349.545 376.991 346.018Z" fill="#D5EBFF"/>
<path d="M373.382 355.07L373.632 355.43L374.742 357.069L375.034 357.485L379.906 354.445C379.976 354.417 380.031 354.375 380.087 354.334C380.24 354.223 380.351 354.056 380.42 353.862C380.462 353.765 380.476 353.667 380.489 353.556C380.531 353.251 380.476 352.918 380.323 352.599C380.129 352.196 379.823 351.918 379.49 351.779C379.309 351.71 379.115 351.668 378.935 351.696C378.824 351.71 378.713 351.738 378.615 351.779C378.602 351.793 378.574 351.793 378.56 351.807L378.49 351.849C378.477 351.849 378.477 351.863 378.463 351.863L373.382 355.07Z" fill="#D5EBFF"/>
<path d="M373.382 355.069L373.632 355.43L379.49 351.793C379.309 351.724 379.115 351.682 378.935 351.71C378.824 351.724 378.713 351.752 378.615 351.793C378.602 351.807 378.574 351.807 378.56 351.821L378.49 351.863C378.477 351.863 378.477 351.876 378.463 351.876L373.382 355.069Z" fill="white"/>
<path d="M374.741 357.082L375.033 357.499L379.905 354.459C379.975 354.431 380.03 354.389 380.086 354.348C380.239 354.237 380.35 354.07 380.419 353.876C380.461 353.779 380.475 353.681 380.488 353.57L374.741 357.082Z" fill="#396BB3"/>
<path d="M357.876 363.565L358.584 364.814L360.402 368.021L375.229 358.859C375.34 358.803 375.437 358.748 375.534 358.664C375.798 358.456 376.006 358.178 376.117 357.859C376.353 357.221 376.325 356.415 375.964 355.652C375.826 355.374 375.659 355.11 375.465 354.902C374.923 354.305 374.215 354 373.549 354.069C373.355 354.083 373.174 354.139 372.994 354.222C372.966 354.236 372.924 354.25 372.896 354.264L372.785 354.333C372.771 354.347 372.758 354.347 372.744 354.361C372.73 354.375 372.73 354.375 372.716 354.389L357.876 363.565Z" fill="#2D2D2D"/>
<path d="M357.876 363.565L358.584 364.814L360.361 364.273L375.465 354.902C374.923 354.305 374.215 354 373.549 354.069C373.355 354.083 373.174 354.139 372.994 354.222C372.966 354.236 372.924 354.25 372.896 354.264L372.785 354.333C372.771 354.347 372.758 354.347 372.744 354.361C372.73 354.375 372.73 354.375 372.716 354.389L357.876 363.565Z" fill="#3A3A3A"/>
<path d="M357.126 366.772C357.736 368.049 359.069 368.702 360.082 368.202C360.194 368.146 360.305 368.091 360.388 368.008C360.652 367.799 360.846 367.522 360.971 367.189C361.221 366.55 361.179 365.745 360.818 364.981C360.305 363.912 359.305 363.302 358.403 363.399C358.208 363.413 358.028 363.468 357.847 363.551C357.82 363.565 357.792 363.579 357.75 363.593L357.639 363.663C357.625 363.676 357.612 363.676 357.598 363.69C356.806 364.301 356.57 365.606 357.126 366.772Z" fill="#4B4C4C"/>
<path opacity="0.3" d="M347.56 355.349C353.004 355.349 357.417 352.844 357.417 349.755C357.417 346.665 353.004 344.16 347.56 344.16C342.117 344.16 337.704 346.665 337.704 349.755C337.704 352.844 342.117 355.349 347.56 355.349Z" fill="#1796CE"/>
<path d="M347.56 353.349C353.004 353.349 357.417 350.844 357.417 347.755C357.417 344.665 353.004 342.16 347.56 342.16C342.117 342.16 337.704 344.665 337.704 347.755C337.704 350.844 342.117 353.349 347.56 353.349Z" fill="#06548B"/>
<path d="M361.151 318.532L357.417 347.754L337.704 348.198L333.97 318.532H361.151Z" fill="#06548B"/>
<path d="M347.56 326.251C355.066 326.251 361.151 322.796 361.151 318.533C361.151 314.27 355.066 310.814 347.56 310.814C340.054 310.814 333.97 314.27 333.97 318.533C333.97 322.796 340.054 326.251 347.56 326.251Z" fill="#216FA7"/>
<path d="M347.561 324.489C340.592 324.489 335.733 321.352 335.733 318.534C335.733 315.715 340.592 312.578 347.561 312.578C354.53 312.578 359.389 315.715 359.389 318.534C359.389 321.352 354.53 324.489 347.561 324.489Z" fill="#272C91"/>
<path d="M347.561 324.489C340.592 324.489 335.733 321.352 335.733 318.534C335.733 315.715 340.592 312.578 347.561 312.578C354.53 312.578 359.389 315.715 359.389 318.534C359.389 321.352 354.53 324.489 347.561 324.489Z" fill="#617704"/>
<mask id="mask0_13_2007" style="mask-type:luminance" maskUnits="userSpaceOnUse" x="335" y="275" width="25" height="50">
<path d="M347.56 324.489C340.591 324.489 335.732 321.352 335.732 318.533C335.732 315.715 332.581 274.583 353.654 275.999C360.609 276.471 359.388 315.715 359.388 318.533C359.388 321.352 354.529 324.489 347.56 324.489Z" fill="white"/>
</mask>
<g mask="url(#mask0_13_2007)">
<path d="M352.447 315.841C352.197 315.8 352.044 315.564 352.086 315.314L352.905 311.08C352.947 310.83 353.183 310.677 353.433 310.719C353.682 310.76 353.835 310.996 353.793 311.246L352.974 315.48C352.933 315.73 352.697 315.883 352.447 315.841Z" fill="#FD9220"/>
<path d="M354.529 304.819L348.435 336.943L351.364 338.15L357.458 306.027L354.529 304.819Z" fill="#FBC006"/>
<path d="M357.457 306.026C357.374 306.429 356.666 306.498 355.847 306.165C355.042 305.832 354.445 305.235 354.528 304.819C354.612 304.416 355.32 304.347 356.139 304.68C356.944 305.013 357.541 305.61 357.457 306.026Z" fill="#205CE1"/>
</g>
<mask id="mask1_13_2007" style="mask-type:luminance" maskUnits="userSpaceOnUse" x="335" y="275" width="25" height="50">
<path d="M347.56 324.489C340.591 324.489 335.732 321.352 335.732 318.533C335.732 315.715 332.581 274.583 353.654 275.999C360.609 276.471 359.388 315.715 359.388 318.533C359.388 321.352 354.529 324.489 347.56 324.489Z" fill="white"/>
</mask>
<g mask="url(#mask1_13_2007)">
<path d="M350.003 297.849L349.975 298.876L349.961 299.293L349.919 300.695V301.111L349.878 302.513L349.864 302.93L349.836 304.29L349.822 304.707L349.781 306.095L349.767 306.511L349.739 307.913L349.725 308.316L349.683 309.718L349.669 310.135L349.642 311.523L349.628 311.925L349.586 313.314V313.73L349.545 315.118L349.531 315.521L349.503 316.937L349.489 317.353L349.447 318.755L349.434 319.158L349.406 320.56L349.392 320.963L349.35 322.379L349.336 322.781L349.309 324.169L349.295 324.586L349.253 325.988V326.391L349.114 332.138C349.086 333.457 348.142 334.373 347.212 333.984L344.158 332.679C343.534 332.401 343.117 331.596 343.145 330.694L344.186 296.974C344.228 295.78 345.019 294.892 345.88 295.086L348.739 295.739C349.503 295.975 350.03 296.849 350.003 297.849Z" fill="#FE5C99"/>
<path d="M349.975 298.875L349.962 299.292C349.962 299.292 349.948 299.292 349.934 299.278L348.629 298.945C348.546 298.917 348.504 298.82 348.504 298.695C348.518 298.584 348.601 298.501 348.684 298.542L349.975 298.875Z" fill="white"/>
<path d="M349.934 300.709V301.125C349.92 301.125 349.92 301.125 349.907 301.111L348.602 300.764C348.518 300.751 348.463 300.639 348.477 300.528C348.491 300.417 348.574 300.334 348.657 300.362L349.934 300.709Z" fill="white"/>
<path d="M349.892 302.526L349.878 302.943C349.864 302.943 349.864 302.929 349.85 302.929L348.545 302.582C348.462 302.568 348.406 302.457 348.42 302.346C348.434 302.235 348.503 302.151 348.587 302.179L349.892 302.526Z" fill="white"/>
<path d="M349.851 304.317L349.837 304.734C349.823 304.734 349.823 304.734 349.809 304.72L348.504 304.373C348.421 304.359 348.365 304.248 348.379 304.137C348.393 304.026 348.462 303.942 348.546 303.97L349.851 304.317Z" fill="white"/>
<path d="M349.808 306.108L349.795 306.525C349.795 306.525 349.781 306.525 349.767 306.511L348.462 306.164C348.379 306.15 348.337 306.039 348.337 305.928C348.351 305.817 348.434 305.733 348.517 305.761L349.808 306.108Z" fill="white"/>
<path d="M349.766 307.941L349.753 308.344H349.725L348.42 307.996C348.337 307.969 348.295 307.872 348.295 307.747C348.309 307.636 348.392 307.552 348.475 307.594L349.766 307.941Z" fill="white"/>
<path d="M349.711 309.759L349.697 310.175C349.697 310.175 349.683 310.175 349.683 310.161L348.378 309.814C348.295 309.8 348.253 309.689 348.253 309.578C348.267 309.467 348.35 309.384 348.433 309.412L349.711 309.759Z" fill="white"/>
<path d="M349.67 311.55L349.656 311.952H349.628L348.323 311.605C348.24 311.577 348.185 311.48 348.198 311.369C348.212 311.258 348.296 311.175 348.365 311.203L349.67 311.55Z" fill="white"/>
<path d="M349.627 313.355V313.772C349.627 313.772 349.613 313.772 349.599 313.758L348.294 313.411C348.211 313.397 348.155 313.286 348.169 313.175C348.183 313.064 348.252 312.981 348.336 313.008L349.627 313.355Z" fill="white"/>
<path d="M349.587 315.16L349.573 315.563H349.545L348.254 315.216C348.171 315.188 348.115 315.091 348.129 314.98C348.143 314.869 348.226 314.785 348.296 314.813L349.587 315.16Z" fill="white"/>
<path d="M349.545 316.992L349.531 317.409C349.517 317.409 349.517 317.409 349.503 317.395L348.212 317.048C348.129 317.034 348.087 316.923 348.087 316.812C348.101 316.701 348.17 316.617 348.267 316.645L349.545 316.992Z" fill="white"/>
<path d="M349.489 318.812L349.475 319.214C349.475 319.214 349.462 319.2 349.448 319.2L348.143 318.853C348.059 318.839 348.004 318.728 348.018 318.617C348.032 318.506 348.101 318.423 348.184 318.451L349.489 318.812Z" fill="white"/>
<path d="M349.446 320.615L349.432 321.018C349.432 321.018 349.432 321.018 349.419 321.018C349.405 321.018 349.405 321.018 349.391 321.004L348.086 320.657C348.003 320.643 347.961 320.532 347.961 320.421C347.975 320.31 348.058 320.227 348.128 320.254L349.446 320.615Z" fill="white"/>
<path d="M349.406 322.448L349.392 322.851H349.378L348.073 322.504C347.99 322.476 347.948 322.379 347.948 322.268C347.962 322.157 348.032 322.073 348.129 322.101L349.406 322.448Z" fill="white"/>
<path d="M349.365 324.253L349.351 324.669C349.351 324.669 349.337 324.669 349.337 324.655L348.046 324.308C347.963 324.294 347.907 324.183 347.921 324.072C347.935 323.961 348.004 323.878 348.088 323.906L349.365 324.253Z" fill="white"/>
</g>
<defs>
<linearGradient id="paint0_linear_13_2007" x1="376.491" y1="345.745" x2="399.198" y2="345.745" gradientUnits="userSpaceOnUse">
<stop stop-color="#B3BAE0" stop-opacity="0.1"/>
<stop offset="1" stop-color="#B3BAE0" stop-opacity="0.3"/>
</linearGradient>
</defs>
</svg>
