<svg width="246" height="31" viewBox="0 0 246 31" fill="none" xmlns="http://www.w3.org/2000/svg">
<path d="M22.4252 8.02268L11.3408 30.5919C14.5946 31.9264 19.6988 29.8559 21.3972 26.2252L32.1688 4.14667C26.7338 3.36165 23.4085 6.40358 22.4252 8.02268Z" fill="url(#paint0_linear_221_6)"/>
<path d="M32.9214 8.00315L21.7139 30.5723C25.0038 31.9068 30.1647 29.8364 31.882 26.2057L42.7733 4.12713C37.2779 3.34212 33.9157 6.38405 32.9214 8.00315Z" fill="url(#paint1_linear_221_6)"/>
<path d="M12.9433 22.3025C10.8891 25.7232 8.5135 23.7278 7.5825 22.3025L0.304227 8.85714C-0.86938 5.45334 1.63414 4.21382 3.0326 4.01953H16.9075C21.1241 4.1768 20.6165 7.62371 19.8357 9.3275L12.9433 22.3025Z" fill="url(#paint2_linear_221_6)"/>
<path d="M50.74 19L46.68 4.6H49.8L53.16 17.78H52.18L55.18 4.6H58.68L61.64 17.78H60.68L64.06 4.6H67.04L62.98 19H59.54L56.48 6.08H57.28L54.18 19H50.74ZM74.8198 19.2C73.7532 19.2 72.7665 19.02 71.8598 18.66C70.9665 18.3 70.1865 17.7933 69.5198 17.14C68.8665 16.4733 68.3532 15.6867 67.9798 14.78C67.6198 13.86 67.4398 12.8467 67.4398 11.74C67.4398 10.2733 67.7532 8.99333 68.3798 7.9C69.0065 6.79333 69.8732 5.93333 70.9798 5.32C72.0998 4.70667 73.3732 4.4 74.7998 4.4C76.2532 4.4 77.5332 4.70667 78.6398 5.32C79.7465 5.93333 80.6132 6.79333 81.2398 7.9C81.8798 9.00667 82.1998 10.2933 82.1998 11.76C82.1998 12.8533 82.0132 13.86 81.6398 14.78C81.2798 15.6867 80.7665 16.4733 80.0998 17.14C79.4465 17.7933 78.6665 18.3 77.7598 18.66C76.8665 19.02 75.8865 19.2 74.8198 19.2ZM74.7998 16.76C75.6398 16.76 76.3798 16.5467 77.0198 16.12C77.6598 15.6933 78.1598 15.1067 78.5198 14.36C78.8932 13.6 79.0798 12.72 79.0798 11.72C79.0798 10.7333 78.8998 9.87333 78.5398 9.14C78.1798 8.40667 77.6798 7.84 77.0398 7.44C76.3998 7.04 75.6532 6.84 74.7998 6.84C73.9598 6.84 73.2198 7.04 72.5798 7.44C71.9398 7.84 71.4398 8.40667 71.0798 9.14C70.7332 9.86 70.5598 10.72 70.5598 11.72C70.5598 12.7333 70.7398 13.62 71.0998 14.38C71.4598 15.1267 71.9598 15.7133 72.5998 16.14C73.2398 16.5533 73.9732 16.76 74.7998 16.76ZM83.7169 19V4.6H90.1569C91.1969 4.6 92.1035 4.78 92.8769 5.14C93.6502 5.48667 94.2502 5.98 94.6769 6.62C95.1035 7.26 95.3169 8.00667 95.3169 8.86C95.3169 9.7 95.1035 10.44 94.6769 11.08C94.2502 11.7067 93.6502 12.2 92.8769 12.56C92.1035 12.9067 91.1969 13.08 90.1569 13.08H86.1569V10.82H90.0769C90.8102 10.82 91.3702 10.6533 91.7569 10.32C92.1569 9.97333 92.3569 9.49333 92.3569 8.88C92.3569 8.25333 92.1635 7.78 91.7769 7.46C91.3902 7.12667 90.8235 6.96 90.0769 6.96H86.7969V19H83.7169ZM91.8369 19L86.0569 11.52H89.3169L95.9969 19H91.8369ZM97.1563 19V4.6H100.236V19H97.1563ZM98.5963 19V16.64H107.156V19H98.5963ZM108.953 19V4.6H112.033V19H108.953ZM110.393 19V16.64H119.673V19H110.393ZM110.393 12.8V10.48H118.973V12.8H110.393ZM110.393 6.96V4.6H119.433V6.96H110.393ZM125.955 19V13.18L120.595 4.6H124.295L128.535 12.22H126.795L131.015 4.6H134.395L129.035 13.18V19H125.955Z" fill="#1F58C5"/>
<path d="M144.062 19L138.902 4.6H142.102L146.042 16.6H145.662L149.622 4.6H152.662L147.502 19H144.062ZM154.148 19V4.6H157.228V19H154.148ZM155.588 19V16.64H164.868V19H155.588ZM155.588 12.8V10.48H164.168V12.8H155.588ZM155.588 6.96V4.6H164.628V6.96H155.588ZM166.668 19V4.6H170.648L177.048 17.32L176.068 17.56V4.6H179.068V19H175.088L168.688 6.28L169.668 6.04V19H166.668ZM185.243 19V6.96H180.543V4.6H193.023V6.96H188.323V19H185.243ZM200.48 19.2C198.427 19.2 196.887 18.64 195.86 17.52C194.847 16.3867 194.34 14.74 194.34 12.58V4.6H197.42V13.12C197.42 14.3733 197.693 15.2933 198.24 15.88C198.787 16.4667 199.54 16.76 200.5 16.76C201.46 16.76 202.213 16.4667 202.76 15.88C203.307 15.2933 203.58 14.38 203.58 13.14V4.6H206.66V12.62C206.66 14.7533 206.147 16.3867 205.12 17.52C204.093 18.64 202.547 19.2 200.48 19.2ZM208.287 19V4.6H214.727C215.767 4.6 216.674 4.78 217.447 5.14C218.221 5.48667 218.821 5.98 219.247 6.62C219.674 7.26 219.887 8.00667 219.887 8.86C219.887 9.7 219.674 10.44 219.247 11.08C218.821 11.7067 218.221 12.2 217.447 12.56C216.674 12.9067 215.767 13.08 214.727 13.08H210.727V10.82H214.647C215.381 10.82 215.941 10.6533 216.327 10.32C216.727 9.97333 216.927 9.49333 216.927 8.88C216.927 8.25333 216.734 7.78 216.347 7.46C215.961 7.12667 215.394 6.96 214.647 6.96H211.367V19H208.287ZM216.407 19L210.627 11.52H213.887L220.567 19H216.407ZM221.727 19V4.6H224.807V19H221.727ZM223.167 19V16.64H232.447V19H223.167ZM223.167 12.8V10.48H231.747V12.8H223.167ZM223.167 6.96V4.6H232.207V6.96H223.167ZM239.6 19.18C237.733 19.18 236.24 18.7667 235.12 17.94C234 17.1 233.346 15.92 233.16 14.4H236.12C236.213 15.1733 236.586 15.7867 237.24 16.24C237.893 16.68 238.726 16.9 239.74 16.9C240.566 16.9 241.2 16.7533 241.64 16.46C242.093 16.1667 242.32 15.7733 242.32 15.28C242.32 14.8133 242.186 14.44 241.92 14.16C241.653 13.8667 241.193 13.6333 240.54 13.46L237.86 12.72C236.486 12.3333 235.48 11.8067 234.84 11.14C234.213 10.46 233.9 9.61333 233.9 8.6C233.9 7.73333 234.12 6.98667 234.56 6.36C235.013 5.72 235.646 5.23333 236.46 4.9C237.273 4.55333 238.226 4.38 239.32 4.38C241 4.38 242.34 4.78 243.34 5.58C244.34 6.36667 244.906 7.41333 245.04 8.72H242.08C241.946 8.01333 241.62 7.49333 241.1 7.16C240.593 6.82667 239.94 6.66 239.14 6.66C238.446 6.66 237.893 6.79333 237.48 7.06C237.066 7.32667 236.86 7.68667 236.86 8.14C236.86 8.48667 236.973 8.80667 237.2 9.1C237.426 9.38 237.9 9.62 238.62 9.82L241.3 10.56C242.713 10.9467 243.726 11.48 244.34 12.16C244.966 12.8267 245.28 13.6733 245.28 14.7C245.28 16.14 244.78 17.2467 243.78 18.02C242.78 18.7933 241.386 19.18 239.6 19.18Z" fill="#093281"/>
<path d="M53.224 27.88C53.1547 27.7893 53.096 27.6907 53.048 27.584C53 27.472 52.9493 27.3387 52.896 27.184C52.8853 27.1573 52.8533 27.0773 52.8 26.944C52.752 26.8107 52.696 26.696 52.632 26.6C52.296 26.648 52.0213 26.672 51.808 26.672C51.6907 26.672 51.56 26.6693 51.416 26.664C51.2773 26.6533 51.1733 26.648 51.104 26.648C50.8373 26.6267 50.624 26.616 50.464 26.616C50.4 26.7013 50.344 26.792 50.296 26.888C50.2533 26.984 50.1973 27.128 50.128 27.32C50.032 27.5973 49.9493 27.7947 49.88 27.912C49.832 27.992 49.7387 28.032 49.6 28.032C49.4827 28.032 49.3733 28.008 49.272 27.96C49.176 27.9067 49.128 27.8347 49.128 27.744C49.1707 27.5413 49.2373 27.328 49.328 27.104C49.424 26.8747 49.56 26.5707 49.736 26.192L50.056 25.408C50.232 24.96 50.392 24.576 50.536 24.256C50.6853 23.936 50.88 23.5573 51.12 23.12C51.152 23.056 51.2053 23.0027 51.28 22.96C51.3547 22.912 51.4373 22.888 51.528 22.888C51.6293 22.888 51.7013 22.896 51.744 22.912C51.792 22.9227 51.8293 22.944 51.856 22.976C51.8827 23.0027 51.9227 23.0613 51.976 23.152C52.1573 23.4347 52.312 23.7253 52.44 24.024C52.5733 24.3227 52.7413 24.736 52.944 25.264L53.112 25.688C53.2613 26.072 53.3893 26.3947 53.496 26.656C53.608 26.912 53.7307 27.1467 53.864 27.36C53.9493 27.4987 53.992 27.5947 53.992 27.648C53.992 27.776 53.952 27.8747 53.872 27.944C53.7973 28.008 53.6987 28.04 53.576 28.04C53.4213 28.04 53.304 27.9867 53.224 27.88ZM52.4 25.944C52.3147 25.7627 52.192 25.448 52.032 25C51.8667 24.52 51.7013 24.1387 51.536 23.856C51.4347 24.112 51.2853 24.4427 51.088 24.848C50.9547 25.0987 50.8027 25.4613 50.632 25.936C50.9733 25.9787 51.3413 26 51.736 26C52.0187 26 52.24 25.9813 52.4 25.944ZM60.4212 25.328C60.4212 25.5627 60.3012 25.68 60.0612 25.68C59.9812 25.68 59.9145 25.6613 59.8612 25.624C59.8079 25.5867 59.7492 25.5307 59.6852 25.456C59.5252 25.28 59.3865 25.192 59.2692 25.192C59.1145 25.192 58.9625 25.2373 58.8132 25.328C58.6692 25.4187 58.5519 25.5467 58.4612 25.712C58.3705 25.8773 58.3252 26.0613 58.3252 26.264C58.3252 26.488 58.3679 26.6747 58.4532 26.824C58.5439 26.9733 58.6825 27.1013 58.8692 27.208C58.9385 27.2453 59.0185 27.2747 59.1092 27.296C59.2052 27.3173 59.2879 27.328 59.3572 27.328C59.5119 27.328 59.7065 27.2667 59.9412 27.144C60.0265 27.1013 60.0985 27.0693 60.1572 27.048C60.2159 27.0267 60.2772 27.016 60.3412 27.016C60.3999 27.016 60.4665 27.0427 60.5412 27.096C60.6159 27.1493 60.6532 27.216 60.6532 27.296C60.6532 27.456 60.5785 27.592 60.4292 27.704C60.2799 27.8107 60.0959 27.8933 59.8772 27.952C59.6639 28.0053 59.4585 28.032 59.2612 28.032C58.9465 28.032 58.6532 27.96 58.3812 27.816C58.1145 27.672 57.9012 27.4747 57.7412 27.224C57.5812 26.968 57.5012 26.68 57.5012 26.36C57.5012 26.0187 57.5785 25.7067 57.7332 25.424C57.8879 25.1413 58.0959 24.92 58.3572 24.76C58.6185 24.6 58.9039 24.52 59.2132 24.52C59.3892 24.52 59.5705 24.552 59.7572 24.616C59.9439 24.68 60.1012 24.7733 60.2292 24.896C60.3572 25.0187 60.4212 25.1627 60.4212 25.328ZM66.8592 25.576C66.7792 25.576 66.7099 25.5573 66.6512 25.52C66.5979 25.4773 66.5419 25.4213 66.4832 25.352C66.4245 25.2827 66.3605 25.2373 66.2912 25.216C66.2272 25.1947 66.1525 25.184 66.0672 25.184C65.9125 25.184 65.7605 25.232 65.6112 25.328C65.4672 25.4187 65.3472 25.5467 65.2512 25.712C65.1605 25.8773 65.1152 26.0613 65.1152 26.264C65.1152 26.488 65.1579 26.6747 65.2432 26.824C65.3339 26.9733 65.4752 27.104 65.6672 27.216C65.7365 27.2533 65.8165 27.2827 65.9072 27.304C66.0032 27.3253 66.0859 27.336 66.1552 27.336C66.3205 27.336 66.5339 27.264 66.7952 27.12C66.8165 27.1093 66.8565 27.0907 66.9152 27.064C66.9792 27.032 67.0272 27.016 67.0592 27.016C67.1179 27.016 67.1845 27.0453 67.2592 27.104C67.3339 27.1573 67.3712 27.224 67.3712 27.304C67.3712 27.464 67.3019 27.6 67.1632 27.712C67.0299 27.824 66.8619 27.9067 66.6592 27.96C66.4565 28.0133 66.2565 28.04 66.0592 28.04C65.7445 28.04 65.4512 27.968 65.1792 27.824C64.9072 27.68 64.6912 27.48 64.5312 27.224C64.3712 26.968 64.2912 26.68 64.2912 26.36C64.2912 26.0133 64.3685 25.7013 64.5232 25.424C64.6779 25.1413 64.8859 24.92 65.1472 24.76C65.4139 24.5947 65.7019 24.512 66.0112 24.512C66.3099 24.512 66.5845 24.5707 66.8352 24.688C67.0912 24.8053 67.2192 24.984 67.2192 25.224C67.2192 25.4587 67.0992 25.576 66.8592 25.576ZM70.8998 25.304C70.8571 25.304 70.8171 25.288 70.7798 25.256C70.7478 25.2187 70.7318 25.176 70.7318 25.128C70.7318 25.0053 70.7851 24.8907 70.8918 24.784C70.9238 24.768 70.9878 24.7413 71.0838 24.704C71.1798 24.6667 71.2651 24.648 71.3398 24.648C71.5425 24.648 71.7078 24.704 71.8358 24.816C71.9638 24.9227 72.0278 25.0773 72.0278 25.28C72.0278 25.3387 72.0171 25.464 71.9958 25.656C71.9745 25.88 71.9638 26.0533 71.9638 26.176C71.9638 26.5493 72.0145 26.8507 72.1158 27.08C72.1531 27.1547 72.2118 27.2133 72.2918 27.256C72.3718 27.2987 72.4438 27.32 72.5078 27.32C72.6625 27.32 72.7878 27.2933 72.8838 27.24C72.9798 27.1867 73.0838 27.1013 73.1958 26.984C73.3078 26.8667 73.3798 26.7333 73.4118 26.584C73.4491 26.4347 73.4758 26.2293 73.4918 25.968C73.5025 25.7973 73.5131 25.672 73.5238 25.592C73.5505 25.336 73.5638 25.1173 73.5638 24.936C73.5638 24.8187 73.5958 24.7227 73.6598 24.648C73.7238 24.568 73.8118 24.528 73.9238 24.528C73.9878 24.528 74.0598 24.5493 74.1398 24.592C74.2251 24.6293 74.2811 24.6747 74.3078 24.728C74.3398 24.7813 74.3558 24.8693 74.3558 24.992C74.3558 25.056 74.3478 25.1173 74.3318 25.176C74.2945 25.3093 74.2758 25.4693 74.2758 25.656L74.2838 26.072C74.2838 26.4507 74.3105 26.7307 74.3638 26.912C74.3905 26.9973 74.4278 27.0853 74.4758 27.176C74.5238 27.2613 74.5691 27.3333 74.6118 27.392C74.7185 27.5093 74.7878 27.592 74.8198 27.64C74.8518 27.6827 74.8678 27.7253 74.8678 27.768C74.8678 27.832 74.8358 27.8933 74.7718 27.952C74.7131 28.0053 74.6491 28.032 74.5798 28.032C74.3825 28.032 74.2118 27.9653 74.0678 27.832C73.9238 27.6987 73.8171 27.5253 73.7478 27.312C73.5665 27.52 73.3985 27.688 73.2438 27.816C73.1371 27.8907 73.0065 27.9467 72.8518 27.984C72.6971 28.016 72.5425 28.032 72.3878 28.032C72.1798 28.032 71.9691 27.9467 71.7558 27.776C71.5425 27.6053 71.3985 27.408 71.3238 27.184C71.3185 27.1733 71.3025 27.1307 71.2758 27.056C71.2545 26.9813 71.2438 26.8693 71.2438 26.72C71.2438 26.5227 71.2545 26.2747 71.2758 25.976C71.2918 25.784 71.2998 25.608 71.2998 25.448C71.2998 25.4 71.2811 25.36 71.2438 25.328C71.2118 25.296 71.1745 25.28 71.1318 25.28C71.0998 25.28 71.0625 25.2853 71.0198 25.296C70.9825 25.3013 70.9425 25.304 70.8998 25.304ZM79.6257 27.68C79.615 27.7707 79.5777 27.8507 79.5137 27.92C79.4497 27.9893 79.367 28.024 79.2657 28.024C79.1057 28.024 78.9884 27.9947 78.9137 27.936C78.839 27.872 78.8017 27.7573 78.8017 27.592C78.8017 27.368 78.815 27.1227 78.8417 26.856C78.863 26.5467 78.8737 26.3093 78.8737 26.144C78.8737 26.0587 78.8684 25.952 78.8577 25.824C78.847 25.7067 78.8417 25.6187 78.8417 25.56C78.8257 25.4693 78.7884 25.3973 78.7297 25.344C78.6764 25.2907 78.591 25.2453 78.4737 25.208C78.4257 25.1867 78.3857 25.152 78.3537 25.104C78.3217 25.0507 78.3057 25.0027 78.3057 24.96C78.3057 24.8373 78.3537 24.744 78.4497 24.68C78.5457 24.616 78.663 24.584 78.8017 24.584C78.9564 24.584 79.0897 24.6373 79.2017 24.744C79.3137 24.8507 79.399 24.984 79.4577 25.144C79.5804 24.968 79.7297 24.8267 79.9057 24.72C80.087 24.6133 80.263 24.56 80.4337 24.56C80.6524 24.56 80.8364 24.5973 80.9857 24.672C81.1404 24.7413 81.2177 24.864 81.2177 25.04C81.2177 25.1413 81.1724 25.248 81.0817 25.36C80.9964 25.4667 80.9084 25.52 80.8177 25.52C80.7484 25.52 80.6657 25.488 80.5697 25.424C80.5324 25.3973 80.4897 25.376 80.4417 25.36C80.399 25.3387 80.3537 25.328 80.3057 25.328C80.2204 25.328 80.1404 25.3413 80.0657 25.368C79.991 25.3947 79.9404 25.4267 79.9137 25.464C79.8284 25.5973 79.7644 25.7173 79.7217 25.824C79.6844 25.9307 79.6657 26.0453 79.6657 26.168C79.6657 26.2587 79.663 26.3307 79.6577 26.384L79.6497 26.84L79.6577 27.144C79.6577 27.368 79.647 27.5467 79.6257 27.68ZM87.7734 28.032C87.592 28.032 87.4534 28.0053 87.3574 27.952C87.2614 27.8933 87.1574 27.7867 87.0454 27.632C86.9067 27.7547 86.6987 27.8533 86.4214 27.928C86.1494 28.0027 85.9147 28.04 85.7174 28.04C85.392 28.04 85.128 27.952 84.9254 27.776C84.728 27.5947 84.6294 27.3307 84.6294 26.984C84.6294 26.8347 84.6694 26.6987 84.7494 26.576C84.8347 26.448 84.944 26.336 85.0774 26.24C85.2267 26.1387 85.4027 26.0587 85.6054 26C85.8134 25.9413 86.0027 25.912 86.1734 25.912C86.4614 25.912 86.7174 25.9387 86.9414 25.992V25.984C86.9414 25.696 86.8694 25.4987 86.7254 25.392C86.5867 25.28 86.3627 25.224 86.0534 25.224C85.856 25.224 85.6854 25.312 85.5414 25.488C85.488 25.5573 85.376 25.592 85.2054 25.592C85.12 25.592 85.056 25.5573 85.0134 25.488C84.976 25.4133 84.9574 25.3387 84.9574 25.264C84.9574 25.1093 85.0214 24.976 85.1494 24.864C85.2827 24.752 85.4427 24.6693 85.6294 24.616C85.816 24.5573 85.9894 24.528 86.1494 24.528C86.304 24.528 86.488 24.56 86.7014 24.624C86.9147 24.688 87.088 24.7733 87.2214 24.88C87.3814 25.0187 87.504 25.1813 87.5894 25.368C87.68 25.5493 87.7254 25.7493 87.7254 25.968C87.7254 26.0373 87.72 26.1413 87.7094 26.28C87.6987 26.44 87.6934 26.5707 87.6934 26.672C87.6934 26.72 87.688 26.7813 87.6774 26.856C87.6667 26.952 87.6614 27.032 87.6614 27.096C87.6614 27.1653 87.6827 27.232 87.7254 27.296C87.768 27.36 87.8267 27.4133 87.9014 27.456C87.9707 27.4933 88.016 27.5333 88.0374 27.576C88.0587 27.6187 88.0694 27.6667 88.0694 27.72C88.0694 27.7733 88.0347 27.84 87.9654 27.92C87.9014 27.9947 87.8374 28.032 87.7734 28.032ZM86.1734 26.504C85.9654 26.504 85.7814 26.544 85.6214 26.624C85.4614 26.704 85.3814 26.8453 85.3814 27.048C85.3814 27.1493 85.416 27.2347 85.4854 27.304C85.56 27.3733 85.64 27.408 85.7254 27.408C85.9547 27.408 86.1467 27.384 86.3014 27.336C86.456 27.288 86.6427 27.2 86.8614 27.072C86.888 26.9867 86.904 26.8667 86.9094 26.712C86.9094 26.6533 86.912 26.608 86.9174 26.576C86.6294 26.528 86.3814 26.504 86.1734 26.504ZM94.5509 25.328C94.5509 25.5627 94.4309 25.68 94.1909 25.68C94.1109 25.68 94.0442 25.6613 93.9909 25.624C93.9375 25.5867 93.8789 25.5307 93.8149 25.456C93.6549 25.28 93.5162 25.192 93.3989 25.192C93.2442 25.192 93.0922 25.2373 92.9429 25.328C92.7989 25.4187 92.6815 25.5467 92.5909 25.712C92.5002 25.8773 92.4549 26.0613 92.4549 26.264C92.4549 26.488 92.4975 26.6747 92.5829 26.824C92.6735 26.9733 92.8122 27.1013 92.9989 27.208C93.0682 27.2453 93.1482 27.2747 93.2389 27.296C93.3349 27.3173 93.4175 27.328 93.4869 27.328C93.6415 27.328 93.8362 27.2667 94.0709 27.144C94.1562 27.1013 94.2282 27.0693 94.2869 27.048C94.3455 27.0267 94.4069 27.016 94.4709 27.016C94.5295 27.016 94.5962 27.0427 94.6709 27.096C94.7455 27.1493 94.7829 27.216 94.7829 27.296C94.7829 27.456 94.7082 27.592 94.5589 27.704C94.4095 27.8107 94.2255 27.8933 94.0069 27.952C93.7935 28.0053 93.5882 28.032 93.3909 28.032C93.0762 28.032 92.7829 27.96 92.5109 27.816C92.2442 27.672 92.0309 27.4747 91.8709 27.224C91.7109 26.968 91.6309 26.68 91.6309 26.36C91.6309 26.0187 91.7082 25.7067 91.8629 25.424C92.0175 25.1413 92.2255 24.92 92.4869 24.76C92.7482 24.6 93.0335 24.52 93.3429 24.52C93.5189 24.52 93.7002 24.552 93.8869 24.616C94.0735 24.68 94.2309 24.7733 94.3589 24.896C94.4869 25.0187 94.5509 25.1627 94.5509 25.328ZM99.3729 29.632C99.0795 29.632 98.8662 29.5787 98.7329 29.472C98.6049 29.3707 98.5409 29.2587 98.5409 29.136C98.5409 28.9493 98.6289 28.856 98.8049 28.856C98.8582 28.856 98.9275 28.872 99.0129 28.904C99.0982 28.9413 99.1782 28.96 99.2529 28.96C99.3702 28.96 99.4662 28.8827 99.5409 28.728C99.6155 28.5733 99.6902 28.3227 99.7649 27.976C99.5995 27.784 99.3969 27.48 99.1569 27.064C98.9222 26.648 98.7195 26.24 98.5489 25.84C98.3782 25.4347 98.2929 25.1467 98.2929 24.976C98.2929 24.8427 98.3382 24.744 98.4289 24.68C98.5249 24.616 98.6342 24.584 98.7569 24.584C98.8529 24.584 98.9275 24.6027 98.9809 24.64C99.0342 24.672 99.0715 24.7333 99.0929 24.824C99.2209 25.2773 99.3569 25.6747 99.5009 26.016C99.6502 26.3573 99.8395 26.728 100.069 27.128C100.16 26.92 100.28 26.5653 100.429 26.064C100.594 25.504 100.733 25.1067 100.845 24.872C100.893 24.776 100.952 24.6987 101.021 24.64C101.096 24.5813 101.178 24.552 101.269 24.552C101.36 24.552 101.456 24.5867 101.557 24.656C101.664 24.72 101.717 24.7973 101.717 24.888C101.717 24.9413 101.698 25.0053 101.661 25.08C101.453 25.56 101.269 26.0133 101.109 26.44C100.954 26.8613 100.805 27.3253 100.661 27.832C100.576 28.1147 100.485 28.384 100.389 28.64C100.298 28.896 100.234 29.0533 100.197 29.112C100.09 29.2613 99.9702 29.384 99.8369 29.48C99.7035 29.5813 99.5489 29.632 99.3729 29.632ZM110.144 25.232C110.069 25.2213 110.008 25.1893 109.96 25.136C109.917 25.0827 109.896 25.0187 109.896 24.944C109.896 24.9067 109.904 24.8667 109.92 24.824C109.941 24.7813 109.97 24.744 110.008 24.712C110.077 24.6533 110.17 24.5973 110.288 24.544C110.41 24.496 110.498 24.4373 110.552 24.368C110.605 24.2987 110.632 24.168 110.632 23.976C110.632 23.896 110.626 23.8267 110.616 23.768C110.61 23.7093 110.608 23.664 110.608 23.632C110.608 23.5147 110.65 23.4267 110.736 23.368C110.821 23.3093 110.92 23.28 111.032 23.28C111.17 23.28 111.264 23.3147 111.312 23.384C111.365 23.4533 111.392 23.5813 111.392 23.768C111.392 23.9493 111.384 24.1067 111.368 24.24C111.352 24.368 111.317 24.4827 111.264 24.584C111.338 24.584 111.461 24.5787 111.632 24.568C111.866 24.5573 112.029 24.552 112.12 24.552C112.21 24.552 112.29 24.576 112.36 24.624C112.429 24.6667 112.464 24.728 112.464 24.808C112.464 24.92 112.44 25.0027 112.392 25.056C112.344 25.1093 112.274 25.144 112.184 25.16C111.965 25.2187 111.656 25.2533 111.256 25.264C111.245 25.472 111.24 25.6987 111.24 25.944C111.24 26.3547 111.264 26.6693 111.312 26.888C111.344 27.0587 111.397 27.184 111.472 27.264C111.552 27.3387 111.669 27.376 111.824 27.376C111.904 27.376 111.968 27.3653 112.016 27.344C112.069 27.3227 112.098 27.3093 112.104 27.304C112.168 27.2667 112.226 27.248 112.28 27.248C112.354 27.248 112.408 27.272 112.44 27.32C112.477 27.368 112.496 27.432 112.496 27.512C112.496 27.6613 112.416 27.7867 112.256 27.888C112.096 27.984 111.89 28.032 111.64 28.032C111.357 28.032 111.117 27.9493 110.92 27.784C110.728 27.6133 110.613 27.3893 110.576 27.112C110.522 26.8613 110.496 26.5093 110.496 26.056C110.496 25.8587 110.506 25.5947 110.528 25.264L110.144 25.232ZM117.144 22.928C117.144 23.0667 117.141 23.2293 117.136 23.416C117.13 23.5973 117.125 23.736 117.12 23.832C117.104 24.104 117.096 24.376 117.096 24.648C117.096 24.8507 117.104 25.0613 117.12 25.28C117.285 25.04 117.464 24.864 117.656 24.752C117.848 24.64 118.08 24.584 118.352 24.584C118.549 24.584 118.733 24.672 118.904 24.848C119.074 25.024 119.184 25.2293 119.232 25.464C119.248 25.672 119.256 25.9253 119.256 26.224C119.256 26.416 119.266 26.6667 119.288 26.976C119.298 27.0933 119.328 27.2027 119.376 27.304C119.429 27.4053 119.504 27.456 119.6 27.456C119.648 27.456 119.685 27.4533 119.712 27.448C119.744 27.4427 119.773 27.44 119.8 27.44C119.874 27.44 119.925 27.4587 119.952 27.496C119.984 27.5333 120 27.5867 120 27.656C120 27.784 119.936 27.88 119.808 27.944C119.68 28.008 119.562 28.04 119.456 28.04C119.072 28.04 118.808 27.88 118.664 27.56C118.584 27.3787 118.533 27.144 118.512 26.856C118.49 26.5627 118.48 26.2213 118.48 25.832C118.48 25.448 118.349 25.256 118.088 25.256C117.944 25.256 117.797 25.3333 117.648 25.488C117.504 25.6373 117.384 25.8373 117.288 26.088C117.192 26.3333 117.144 26.5893 117.144 26.856L117.152 27.688C117.152 27.8053 117.106 27.8933 117.016 27.952C116.925 28.0053 116.84 28.032 116.76 28.032C116.642 28.032 116.536 27.9973 116.44 27.928C116.344 27.8533 116.296 27.7707 116.296 27.68C116.333 27.28 116.352 26.6107 116.352 25.672C116.352 25.5013 116.338 24.8693 116.312 23.776L116.288 23.04C116.288 22.9227 116.341 22.8213 116.448 22.736C116.554 22.6453 116.674 22.6 116.808 22.6C116.925 22.6 117.01 22.6267 117.064 22.68C117.117 22.7333 117.144 22.816 117.144 22.928ZM127.152 27.616C127.152 27.7333 127.088 27.832 126.96 27.912C126.832 27.992 126.715 28.032 126.608 28.032C126.411 28.032 126.251 28.008 126.128 27.96C126.011 27.9067 125.899 27.8107 125.792 27.672C125.659 27.7947 125.472 27.888 125.232 27.952C124.992 28.0107 124.771 28.04 124.568 28.04C124.238 28.04 123.963 27.952 123.744 27.776C123.531 27.5947 123.424 27.3307 123.424 26.984C123.424 26.8347 123.47 26.6853 123.56 26.536C123.651 26.3813 123.763 26.2587 123.896 26.168C124.04 26.072 124.203 26.008 124.384 25.976C124.566 25.9387 124.776 25.92 125.016 25.92C125.128 25.92 125.262 25.9413 125.416 25.984C125.571 26.0267 125.694 26.072 125.784 26.12V25.992C125.784 25.704 125.712 25.5067 125.568 25.4C125.43 25.288 125.206 25.232 124.896 25.232C124.8 25.232 124.712 25.248 124.632 25.28C124.558 25.3067 124.47 25.3467 124.368 25.4C124.272 25.4533 124.182 25.48 124.096 25.48C124.022 25.48 123.95 25.4507 123.88 25.392C123.811 25.328 123.776 25.2613 123.776 25.192C123.776 24.968 123.915 24.8053 124.192 24.704C124.475 24.5973 124.763 24.544 125.056 24.544C125.206 24.544 125.376 24.576 125.568 24.64C125.76 24.6987 125.923 24.7813 126.056 24.888C126.216 25.0213 126.339 25.1813 126.424 25.368C126.515 25.5547 126.56 25.7573 126.56 25.976C126.56 26.0453 126.555 26.1493 126.544 26.288C126.534 26.4373 126.528 26.5653 126.528 26.672L126.52 26.888C126.51 27.0053 126.504 27.0987 126.504 27.168C126.504 27.232 126.526 27.288 126.568 27.336C126.616 27.3787 126.672 27.4 126.736 27.4L126.96 27.392C127.019 27.392 127.064 27.416 127.096 27.464C127.134 27.5067 127.152 27.5573 127.152 27.616ZM124.568 27.408C124.798 27.408 124.99 27.384 125.144 27.336C125.299 27.288 125.486 27.2 125.704 27.072C125.726 26.9813 125.739 26.8613 125.744 26.712C125.451 26.5733 125.208 26.504 125.016 26.504C124.835 26.504 124.688 26.512 124.576 26.528C124.464 26.5387 124.363 26.584 124.272 26.664C124.182 26.744 124.136 26.872 124.136 27.048C124.136 27.1493 124.184 27.2347 124.28 27.304C124.382 27.3733 124.478 27.408 124.568 27.408ZM130.709 25.216C130.634 25.2053 130.573 25.176 130.525 25.128C130.482 25.0747 130.461 25.0107 130.461 24.936C130.461 24.84 130.498 24.76 130.573 24.696C130.589 24.68 130.615 24.6667 130.653 24.656C130.69 24.64 130.719 24.6267 130.741 24.616C130.858 24.5787 130.933 24.5493 130.965 24.528C131.087 24.4533 131.17 24.3307 131.213 24.16C131.255 23.9573 131.282 23.8187 131.293 23.744C131.303 23.6267 131.341 23.5387 131.405 23.48C131.474 23.416 131.559 23.384 131.661 23.384C131.794 23.384 131.887 23.4187 131.941 23.488C131.994 23.5573 132.021 23.6853 132.021 23.872C132.021 24.1173 131.962 24.3493 131.845 24.568C131.919 24.568 132.042 24.5627 132.213 24.552C132.469 24.5413 132.647 24.536 132.749 24.536C132.839 24.536 132.917 24.56 132.981 24.608C133.05 24.6507 133.085 24.7147 133.085 24.8C133.085 25.0027 132.991 25.1227 132.805 25.16C132.634 25.208 132.325 25.2373 131.877 25.248C131.839 25.7707 131.821 26.184 131.821 26.488C131.821 26.6747 131.829 26.808 131.845 26.888C131.877 27.0533 131.93 27.176 132.005 27.256C132.085 27.3307 132.202 27.368 132.357 27.368C132.431 27.368 132.543 27.3493 132.693 27.312C132.783 27.2853 132.855 27.272 132.909 27.272C132.978 27.272 133.031 27.296 133.069 27.344C133.106 27.392 133.125 27.456 133.125 27.536C133.125 27.68 133.031 27.8 132.845 27.896C132.658 27.9867 132.437 28.032 132.181 28.032C132.021 28.032 131.863 27.9947 131.709 27.92C131.554 27.84 131.423 27.744 131.317 27.632C131.295 27.6213 131.263 27.5627 131.221 27.456C131.183 27.3493 131.146 27.232 131.109 27.104C131.093 27.04 131.085 26.8853 131.085 26.64C131.085 26.4053 131.101 26 131.133 25.424L131.141 25.248C131.103 25.248 131.034 25.2453 130.933 25.24C130.831 25.2293 130.757 25.2213 130.709 25.216ZM144.77 22.992C144.77 23.0453 144.762 23.112 144.746 23.192C144.74 23.224 144.735 23.2587 144.73 23.296C144.724 23.3333 144.719 23.3787 144.714 23.432C144.666 23.912 144.642 24.5067 144.642 25.216C144.642 25.888 144.671 26.3867 144.73 26.712C144.788 27.0373 144.879 27.232 145.002 27.296L145.154 27.36C145.234 27.3867 145.292 27.416 145.33 27.448C145.372 27.48 145.394 27.5333 145.394 27.608C145.394 27.7147 145.338 27.808 145.226 27.888C145.114 27.9627 144.991 28 144.858 28C144.719 28 144.583 27.944 144.45 27.832C144.316 27.7147 144.207 27.568 144.122 27.392C144.031 27.584 143.871 27.7387 143.642 27.856C143.412 27.968 143.194 28.024 142.986 28.024C142.799 28.024 142.636 28 142.498 27.952C142.359 27.8987 142.215 27.8187 142.066 27.712C141.884 27.584 141.746 27.4213 141.65 27.224C141.559 27.0267 141.514 26.8107 141.514 26.576C141.514 26.3413 141.559 26.0933 141.65 25.832C141.74 25.5653 141.844 25.3467 141.962 25.176C142.1 24.9787 142.284 24.832 142.514 24.736C142.743 24.6347 142.98 24.584 143.226 24.584C143.364 24.584 143.484 24.6107 143.586 24.664C143.687 24.712 143.791 24.7813 143.898 24.872C143.898 24.6053 143.892 24.3813 143.882 24.2C143.876 24.152 143.874 24.096 143.874 24.032C143.874 23.5733 143.911 23.2107 143.986 22.944C144.044 22.72 144.186 22.608 144.41 22.608C144.532 22.608 144.623 22.6347 144.682 22.688C144.74 22.7413 144.77 22.8427 144.77 22.992ZM142.29 26.56C142.29 26.832 142.378 27.04 142.554 27.184C142.634 27.2587 142.7 27.3093 142.754 27.336C142.807 27.3627 142.874 27.376 142.954 27.376C143.108 27.376 143.255 27.3333 143.394 27.248C143.538 27.1573 143.65 27.04 143.73 26.896C143.815 26.752 143.858 26.5973 143.858 26.432L143.85 25.64C143.738 25.512 143.634 25.424 143.538 25.376C143.447 25.3227 143.351 25.296 143.25 25.296C142.908 25.296 142.674 25.4267 142.546 25.688C142.476 25.8107 142.415 25.9493 142.362 26.104C142.314 26.2587 142.29 26.4107 142.29 26.56ZM150.153 27.68C150.153 27.7707 150.119 27.8507 150.049 27.92C149.98 27.9893 149.895 28.024 149.793 28.024C149.633 28.024 149.516 27.9947 149.441 27.936C149.367 27.872 149.329 27.7573 149.329 27.592C149.329 27.3947 149.324 27.136 149.313 26.816C149.303 26.5493 149.297 26.3253 149.297 26.144C149.297 26.0587 149.303 25.9467 149.313 25.808C149.324 25.68 149.329 25.584 149.329 25.52C149.313 25.4187 149.273 25.336 149.209 25.272C149.145 25.2027 149.063 25.168 148.961 25.168C148.913 25.168 148.873 25.1467 148.841 25.104C148.809 25.056 148.793 25.008 148.793 24.96C148.793 24.8373 148.841 24.744 148.937 24.68C149.039 24.616 149.159 24.584 149.297 24.584C149.585 24.584 149.785 24.7547 149.897 25.096C150.036 24.936 150.193 24.808 150.369 24.712C150.551 24.6107 150.724 24.56 150.889 24.56C151.087 24.56 151.265 24.6133 151.425 24.72C151.591 24.8267 151.673 24.9707 151.673 25.152C151.673 25.2533 151.628 25.3573 151.537 25.464C151.452 25.5707 151.364 25.624 151.273 25.624C151.225 25.624 151.183 25.6133 151.145 25.592C151.113 25.5653 151.073 25.528 151.025 25.48C150.972 25.4267 150.927 25.3893 150.889 25.368C150.852 25.3413 150.809 25.328 150.761 25.328C150.676 25.328 150.596 25.3413 150.521 25.368C150.447 25.3947 150.396 25.4267 150.369 25.464C150.284 25.5973 150.22 25.7173 150.177 25.824C150.14 25.9307 150.121 26.0453 150.121 26.168C150.121 26.2587 150.119 26.3307 150.113 26.384L150.105 26.84C150.105 26.9093 150.108 26.9867 150.113 27.072C150.119 27.1573 150.124 27.2213 150.129 27.264C150.145 27.408 150.153 27.5467 150.153 27.68ZM155.597 22.864C155.784 22.88 155.946 22.9307 156.085 23.016C156.224 23.096 156.293 23.2187 156.293 23.384C156.293 23.5067 156.234 23.6053 156.117 23.68C156.005 23.7493 155.869 23.784 155.709 23.784C155.554 23.784 155.448 23.744 155.389 23.664C155.33 23.584 155.301 23.5013 155.301 23.416C155.301 23.256 155.317 23.1227 155.349 23.016C155.386 22.9093 155.469 22.8587 155.597 22.864ZM156.237 26.408V26.64C156.237 26.848 156.242 27.0453 156.253 27.232C156.269 27.4133 156.288 27.5973 156.309 27.784C156.304 27.8373 156.264 27.8933 156.189 27.952C156.114 28.0053 156.048 28.032 155.989 28.032C155.888 28.032 155.784 28.0133 155.677 27.976C155.576 27.9333 155.514 27.8827 155.493 27.824C155.461 27.6533 155.445 27.5013 155.445 27.368C155.445 26.9307 155.432 26.44 155.405 25.896C155.384 25.416 155.373 25.08 155.373 24.888C155.373 24.792 155.421 24.7093 155.517 24.64C155.613 24.5707 155.714 24.536 155.821 24.536C155.976 24.536 156.082 24.5707 156.141 24.64C156.205 24.7093 156.237 24.8187 156.237 24.968V26.408ZM162.132 25.944C162.148 25.9013 162.204 25.7467 162.3 25.48C162.401 25.2133 162.495 25.0107 162.58 24.872C162.719 24.6533 162.841 24.544 162.948 24.544C163.097 24.544 163.212 24.5733 163.292 24.632C163.372 24.6853 163.412 24.7627 163.412 24.864C163.412 24.912 163.391 24.9787 163.348 25.064C163.311 25.1493 163.289 25.2 163.284 25.216C163.071 25.6853 162.879 26.1893 162.708 26.728L162.54 27.352C162.476 27.5547 162.367 27.72 162.212 27.848C162.057 27.9707 161.876 28.032 161.668 28.032C161.481 28.032 161.308 27.9467 161.148 27.776C161.052 27.6267 160.951 27.4373 160.844 27.208C160.743 26.9787 160.655 26.7547 160.58 26.536L160.3 25.696C160.241 25.5307 160.193 25.3893 160.156 25.272C160.124 25.1547 160.108 25.048 160.108 24.952C160.103 24.84 160.135 24.7493 160.204 24.68C160.273 24.6107 160.369 24.576 160.492 24.576C160.631 24.576 160.729 24.6053 160.788 24.664C160.847 24.7173 160.9 24.8027 160.948 24.92C160.969 25.0427 161.028 25.2933 161.124 25.672L161.18 25.896C161.228 26.0773 161.289 26.2613 161.364 26.448C161.439 26.6347 161.513 26.8133 161.588 26.984C161.577 26.9573 161.615 27.0453 161.7 27.248C161.753 27.0933 161.815 26.904 161.884 26.68L162.132 25.944ZM166.939 26.168C166.939 25.8427 167.011 25.5733 167.155 25.36C167.299 25.1413 167.499 24.936 167.755 24.744C167.83 24.6907 167.955 24.6453 168.131 24.608C168.307 24.5653 168.462 24.544 168.595 24.544C168.755 24.544 168.923 24.5787 169.099 24.648C169.28 24.712 169.427 24.7867 169.539 24.872C169.736 25.016 169.872 25.184 169.947 25.376C170.022 25.5627 170.059 25.7867 170.059 26.048C170.059 26.16 169.995 26.2693 169.867 26.376C169.744 26.4773 169.611 26.528 169.467 26.528L169.163 26.52C169.008 26.52 168.787 26.5253 168.499 26.536L168.331 26.544C168.214 26.5547 168.126 26.56 168.067 26.56C167.982 26.56 167.864 26.5493 167.715 26.528C167.736 26.7787 167.83 26.976 167.995 27.12C168.16 27.2587 168.339 27.328 168.531 27.328C168.867 27.328 169.102 27.2613 169.235 27.128C169.347 27.048 169.422 26.9973 169.459 26.976C169.496 26.9547 169.555 26.944 169.635 26.944C169.72 26.944 169.795 26.984 169.859 27.064C169.923 27.144 169.955 27.224 169.955 27.304C169.955 27.3947 169.899 27.488 169.787 27.584C169.68 27.6747 169.534 27.7707 169.347 27.872C169.246 27.9147 169.107 27.952 168.931 27.984C168.755 28.016 168.608 28.032 168.491 28.032C168.304 28.032 168.096 27.9787 167.867 27.872C167.638 27.76 167.467 27.6373 167.355 27.504C167.243 27.3707 167.144 27.1813 167.059 26.936C166.979 26.6907 166.939 26.4347 166.939 26.168ZM168.531 25.952C168.91 25.952 169.187 25.9387 169.363 25.912C169.352 25.7573 169.304 25.632 169.219 25.536C169.134 25.4347 169.016 25.3493 168.867 25.28C168.819 25.2587 168.776 25.2427 168.739 25.232C168.702 25.2213 168.659 25.216 168.611 25.216C168.366 25.216 168.158 25.2827 167.987 25.416C167.822 25.5493 167.723 25.72 167.691 25.928C167.958 25.944 168.238 25.952 168.531 25.952ZM176.128 26.168C176.341 26.2907 176.491 26.4133 176.576 26.536C176.661 26.6533 176.704 26.808 176.704 27C176.704 27.192 176.648 27.3627 176.536 27.512C176.424 27.656 176.28 27.768 176.104 27.848C175.976 27.9067 175.816 27.952 175.624 27.984C175.437 28.016 175.291 28.032 175.184 28.032C174.997 28.032 174.795 27.9973 174.576 27.928C174.357 27.8587 174.171 27.76 174.016 27.632C173.867 27.504 173.792 27.3547 173.792 27.184C173.792 27.0773 173.827 26.9947 173.896 26.936C173.965 26.872 174.056 26.84 174.168 26.84C174.259 26.84 174.355 26.904 174.456 27.032C174.557 27.144 174.675 27.2293 174.808 27.288C174.947 27.3467 175.083 27.376 175.216 27.376C175.723 27.376 175.976 27.2613 175.976 27.032C175.976 26.984 175.96 26.9387 175.928 26.896C175.896 26.848 175.867 26.816 175.84 26.8C175.792 26.7627 175.725 26.7307 175.64 26.704C175.555 26.6773 175.469 26.656 175.384 26.64C175.299 26.6187 175.235 26.6027 175.192 26.592C175.149 26.5813 175.059 26.5627 174.92 26.536C174.787 26.5093 174.659 26.464 174.536 26.4C174.333 26.304 174.168 26.1867 174.04 26.048C173.917 25.9093 173.856 25.7307 173.856 25.512C173.856 25.3893 173.885 25.2667 173.944 25.144C174.008 25.016 174.093 24.92 174.2 24.856C174.36 24.7547 174.536 24.6773 174.728 24.624C174.92 24.5707 175.099 24.544 175.264 24.544C175.397 24.544 175.547 24.5573 175.712 24.584C175.883 24.6107 176.005 24.648 176.08 24.696C176.219 24.7707 176.32 24.848 176.384 24.928C176.448 25.008 176.48 25.1093 176.48 25.232C176.48 25.2907 176.467 25.3493 176.44 25.408C176.413 25.4613 176.381 25.4987 176.344 25.52C176.259 25.552 176.184 25.568 176.12 25.568C176.072 25.568 176.032 25.56 176 25.544C175.968 25.5227 175.939 25.5013 175.912 25.48C175.891 25.4587 175.877 25.4453 175.872 25.44C175.803 25.3653 175.725 25.3067 175.64 25.264C175.555 25.2213 175.429 25.2 175.264 25.2C175.157 25.2 175.053 25.216 174.952 25.248C174.856 25.2747 174.781 25.3093 174.728 25.352C174.685 25.384 174.656 25.4133 174.64 25.44C174.624 25.4613 174.616 25.4907 174.616 25.528C174.616 25.6773 174.765 25.7867 175.064 25.856C175.368 25.9253 175.528 25.9627 175.544 25.968C175.576 25.9787 175.664 26.0053 175.808 26.048C175.957 26.0907 176.064 26.1307 176.128 26.168ZM186.518 27.68C186.518 27.7707 186.484 27.8507 186.414 27.92C186.345 27.9893 186.26 28.024 186.158 28.024C185.998 28.024 185.881 27.9947 185.806 27.936C185.732 27.872 185.694 27.7573 185.694 27.592C185.694 27.3947 185.689 27.136 185.678 26.816C185.668 26.5493 185.662 26.3253 185.662 26.144C185.662 26.0587 185.668 25.9467 185.678 25.808C185.689 25.68 185.694 25.584 185.694 25.52C185.678 25.4187 185.638 25.336 185.574 25.272C185.51 25.2027 185.428 25.168 185.326 25.168C185.278 25.168 185.238 25.1467 185.206 25.104C185.174 25.056 185.158 25.008 185.158 24.96C185.158 24.8373 185.206 24.744 185.302 24.68C185.404 24.616 185.524 24.584 185.662 24.584C185.95 24.584 186.15 24.7547 186.262 25.096C186.401 24.936 186.558 24.808 186.734 24.712C186.916 24.6107 187.089 24.56 187.254 24.56C187.452 24.56 187.63 24.6133 187.79 24.72C187.956 24.8267 188.038 24.9707 188.038 25.152C188.038 25.2533 187.993 25.3573 187.902 25.464C187.817 25.5707 187.729 25.624 187.638 25.624C187.59 25.624 187.548 25.6133 187.51 25.592C187.478 25.5653 187.438 25.528 187.39 25.48C187.337 25.4267 187.292 25.3893 187.254 25.368C187.217 25.3413 187.174 25.328 187.126 25.328C187.041 25.328 186.961 25.3413 186.886 25.368C186.812 25.3947 186.761 25.4267 186.734 25.464C186.649 25.5973 186.585 25.7173 186.542 25.824C186.505 25.9307 186.486 26.0453 186.486 26.168C186.486 26.2587 186.484 26.3307 186.478 26.384L186.47 26.84C186.47 26.9093 186.473 26.9867 186.478 27.072C186.484 27.1573 186.489 27.2213 186.494 27.264C186.51 27.408 186.518 27.5467 186.518 27.68ZM191.49 26.192C191.49 26 191.525 25.8213 191.594 25.656C191.663 25.4853 191.765 25.3093 191.898 25.128C192.031 24.9467 192.215 24.8053 192.45 24.704C192.685 24.5973 192.941 24.544 193.218 24.544C193.431 24.544 193.637 24.5893 193.834 24.68C194.037 24.7653 194.218 24.872 194.378 25C194.399 25.0373 194.437 25.1067 194.49 25.208C194.543 25.304 194.581 25.392 194.602 25.472C194.629 25.552 194.642 25.6347 194.642 25.72C194.642 26.0773 194.511 26.3173 194.25 26.44C193.989 26.5573 193.658 26.616 193.258 26.616C192.858 26.616 192.533 26.5893 192.282 26.536C192.293 26.6373 192.319 26.7387 192.362 26.84C192.405 26.9413 192.455 27.0187 192.514 27.072C192.621 27.1733 192.725 27.24 192.826 27.272C192.933 27.2987 193.074 27.312 193.25 27.312C193.517 27.312 193.725 27.2613 193.874 27.16C194.013 27.0693 194.119 27.024 194.194 27.024C194.295 27.024 194.373 27.056 194.426 27.12C194.479 27.1787 194.506 27.256 194.506 27.352C194.506 27.5547 194.375 27.72 194.114 27.848C193.858 27.976 193.567 28.04 193.242 28.04C192.986 28.04 192.733 27.9947 192.482 27.904C192.231 27.8133 192.031 27.6853 191.882 27.52C191.781 27.3493 191.69 27.1413 191.61 26.896C191.53 26.6507 191.49 26.416 191.49 26.192ZM193.25 25.2C193.133 25.2 193.01 25.2213 192.882 25.264C192.759 25.3013 192.663 25.36 192.594 25.44C192.509 25.5307 192.445 25.6133 192.402 25.688C192.365 25.7627 192.341 25.856 192.33 25.968C192.389 25.968 192.445 25.9707 192.498 25.976C192.551 25.9813 192.602 25.9867 192.65 25.992C192.885 26.0133 193.061 26.024 193.178 26.024C193.413 26.024 193.591 25.9893 193.714 25.92C193.842 25.8507 193.906 25.7573 193.906 25.64C193.906 25.528 193.834 25.4267 193.69 25.336C193.551 25.2453 193.405 25.2 193.25 25.2ZM200.693 26.272C200.736 26.2987 200.819 26.3493 200.941 26.424C201.069 26.4933 201.155 26.576 201.197 26.672C201.24 26.768 201.261 26.9013 201.261 27.072C201.261 27.264 201.205 27.4347 201.093 27.584C200.981 27.728 200.837 27.84 200.661 27.92C200.539 27.9733 200.405 28.0053 200.261 28.016C200.123 28.0267 199.955 28.032 199.757 28.032C199.651 28.032 199.512 28.016 199.341 27.984C199.176 27.952 199.061 27.9227 198.997 27.896C198.827 27.8 198.683 27.688 198.565 27.56C198.448 27.432 198.389 27.3013 198.389 27.168C198.389 27.0613 198.424 26.976 198.493 26.912C198.563 26.848 198.653 26.816 198.765 26.816C198.824 26.816 198.88 26.832 198.933 26.864C198.992 26.8907 199.032 26.9227 199.053 26.96C199.112 27.0987 199.211 27.2027 199.349 27.272C199.488 27.3413 199.629 27.376 199.773 27.376C200.28 27.376 200.533 27.2853 200.533 27.104C200.533 27.056 200.52 27.0187 200.493 26.992C200.472 26.96 200.44 26.928 200.397 26.896C200.328 26.848 200.229 26.7973 200.101 26.744C199.979 26.6907 199.869 26.6507 199.773 26.624C199.555 26.576 199.341 26.504 199.133 26.408C198.941 26.312 198.784 26.1867 198.661 26.032C198.539 25.872 198.477 25.6773 198.477 25.448C198.477 25.3093 198.528 25.1733 198.629 25.04C198.736 24.9013 198.859 24.7973 198.997 24.728C199.093 24.6907 199.251 24.6507 199.469 24.608C199.688 24.5653 199.837 24.544 199.917 24.544C200.04 24.544 200.173 24.5573 200.317 24.584C200.461 24.6053 200.571 24.6427 200.645 24.696C200.789 24.7813 200.907 24.872 200.997 24.968C201.088 25.0587 201.133 25.1627 201.133 25.28C201.133 25.3387 201.12 25.4027 201.093 25.472C201.067 25.536 201.035 25.576 200.997 25.592C200.917 25.6293 200.824 25.648 200.717 25.648C200.669 25.648 200.629 25.6347 200.597 25.608C200.571 25.5813 200.533 25.5387 200.485 25.48C200.427 25.3893 200.371 25.336 200.317 25.32C200.253 25.304 200.16 25.2853 200.037 25.264C199.915 25.2373 199.832 25.224 199.789 25.224C199.656 25.224 199.528 25.2507 199.405 25.304C199.288 25.3573 199.229 25.4293 199.229 25.52C199.229 25.6267 199.317 25.7173 199.493 25.792C199.605 25.8453 199.728 25.8907 199.861 25.928C200 25.9653 200.085 25.9893 200.117 26C200.192 26.016 200.288 26.0533 200.405 26.112C200.528 26.1707 200.624 26.224 200.693 26.272ZM204.904 25.304C204.861 25.304 204.821 25.288 204.784 25.256C204.752 25.2187 204.736 25.176 204.736 25.128C204.736 25.0053 204.789 24.8907 204.896 24.784C204.928 24.768 204.992 24.7413 205.088 24.704C205.184 24.6667 205.269 24.648 205.344 24.648C205.547 24.648 205.712 24.704 205.84 24.816C205.968 24.9227 206.032 25.0773 206.032 25.28C206.032 25.3387 206.021 25.464 206 25.656C205.979 25.88 205.968 26.0533 205.968 26.176C205.968 26.5493 206.019 26.8507 206.12 27.08C206.157 27.1547 206.216 27.2133 206.296 27.256C206.376 27.2987 206.448 27.32 206.512 27.32C206.667 27.32 206.792 27.2933 206.888 27.24C206.984 27.1867 207.088 27.1013 207.2 26.984C207.312 26.8667 207.384 26.7333 207.416 26.584C207.453 26.4347 207.48 26.2293 207.496 25.968C207.507 25.7973 207.517 25.672 207.528 25.592C207.555 25.336 207.568 25.1173 207.568 24.936C207.568 24.8187 207.6 24.7227 207.664 24.648C207.728 24.568 207.816 24.528 207.928 24.528C207.992 24.528 208.064 24.5493 208.144 24.592C208.229 24.6293 208.285 24.6747 208.312 24.728C208.344 24.7813 208.36 24.8693 208.36 24.992C208.36 25.056 208.352 25.1173 208.336 25.176C208.299 25.3093 208.28 25.4693 208.28 25.656L208.288 26.072C208.288 26.4507 208.315 26.7307 208.368 26.912C208.395 26.9973 208.432 27.0853 208.48 27.176C208.528 27.2613 208.573 27.3333 208.616 27.392C208.723 27.5093 208.792 27.592 208.824 27.64C208.856 27.6827 208.872 27.7253 208.872 27.768C208.872 27.832 208.84 27.8933 208.776 27.952C208.717 28.0053 208.653 28.032 208.584 28.032C208.387 28.032 208.216 27.9653 208.072 27.832C207.928 27.6987 207.821 27.5253 207.752 27.312C207.571 27.52 207.403 27.688 207.248 27.816C207.141 27.8907 207.011 27.9467 206.856 27.984C206.701 28.016 206.547 28.032 206.392 28.032C206.184 28.032 205.973 27.9467 205.76 27.776C205.547 27.6053 205.403 27.408 205.328 27.184C205.323 27.1733 205.307 27.1307 205.28 27.056C205.259 26.9813 205.248 26.8693 205.248 26.72C205.248 26.5227 205.259 26.2747 205.28 25.976C205.296 25.784 205.304 25.608 205.304 25.448C205.304 25.4 205.285 25.36 205.248 25.328C205.216 25.296 205.179 25.28 205.136 25.28C205.104 25.28 205.067 25.2853 205.024 25.296C204.987 25.3013 204.947 25.304 204.904 25.304ZM213.414 26.76C213.414 26.9627 213.443 27.12 213.502 27.232C213.566 27.3387 213.646 27.392 213.742 27.392C213.795 27.392 213.846 27.3893 213.894 27.384C213.942 27.3733 213.99 27.368 214.038 27.368C214.091 27.368 214.136 27.3947 214.174 27.448C214.216 27.5013 214.238 27.56 214.238 27.624C214.238 27.752 214.176 27.8533 214.054 27.928C213.936 27.9973 213.776 28.032 213.574 28.032C213.43 28.032 213.283 27.9893 213.134 27.904C212.99 27.8133 212.87 27.6747 212.774 27.488C212.678 27.296 212.63 27.0587 212.63 26.776C212.63 26.168 212.64 25.6533 212.662 25.232C212.688 24.7307 212.702 24.0987 212.702 23.336C212.702 23.096 212.715 22.928 212.742 22.832C212.774 22.7573 212.824 22.7013 212.894 22.664C212.968 22.6213 213.046 22.6 213.126 22.6C213.206 22.6 213.275 22.6133 213.334 22.64C213.398 22.6667 213.44 22.7093 213.462 22.768C213.483 22.832 213.496 22.896 213.502 22.96C213.512 23.0187 213.518 23.104 213.518 23.216C213.518 23.4347 213.51 23.6453 213.494 23.848C213.483 24.0933 213.478 24.272 213.478 24.384C213.435 25.3227 213.414 26.1147 213.414 26.76ZM217.823 25.232C217.749 25.2213 217.687 25.1893 217.639 25.136C217.597 25.0827 217.575 25.0187 217.575 24.944C217.575 24.9067 217.583 24.8667 217.599 24.824C217.621 24.7813 217.65 24.744 217.687 24.712C217.757 24.6427 217.943 24.608 218.247 24.608C218.29 24.4 218.311 24.1893 218.311 23.976C218.311 23.896 218.309 23.8267 218.303 23.768C218.298 23.7093 218.295 23.664 218.295 23.632C218.295 23.5147 218.338 23.4267 218.423 23.368C218.514 23.3093 218.615 23.28 218.727 23.28C218.866 23.28 218.959 23.3147 219.007 23.384C219.061 23.4533 219.087 23.5813 219.087 23.768C219.087 24.0453 219.063 24.3173 219.015 24.584C219.101 24.584 219.218 24.5787 219.367 24.568C219.57 24.5573 219.717 24.552 219.807 24.552C219.898 24.552 219.975 24.576 220.039 24.624C220.109 24.6667 220.143 24.728 220.143 24.808C220.143 25.016 220.05 25.1387 219.863 25.176C219.666 25.224 219.359 25.2533 218.943 25.264C218.927 25.472 218.919 25.6987 218.919 25.944C218.919 26.328 218.943 26.6427 218.991 26.888C219.023 27.0587 219.077 27.184 219.151 27.264C219.231 27.3387 219.349 27.376 219.503 27.376C219.594 27.376 219.687 27.352 219.783 27.304C219.847 27.2667 219.906 27.248 219.959 27.248C220.034 27.248 220.087 27.272 220.119 27.32C220.157 27.368 220.175 27.432 220.175 27.512C220.175 27.6613 220.095 27.7867 219.935 27.888C219.775 27.984 219.57 28.032 219.319 28.032C219.165 28.032 219.007 27.9947 218.847 27.92C218.693 27.8453 218.562 27.752 218.455 27.64C218.439 27.624 218.41 27.5627 218.367 27.456C218.325 27.3493 218.287 27.2347 218.255 27.112C218.202 26.8613 218.175 26.5093 218.175 26.056C218.175 25.8587 218.186 25.5947 218.207 25.264L217.823 25.232ZM226.111 26.272C226.154 26.2987 226.237 26.3493 226.359 26.424C226.487 26.4933 226.573 26.576 226.615 26.672C226.658 26.768 226.679 26.9013 226.679 27.072C226.679 27.264 226.623 27.4347 226.511 27.584C226.399 27.728 226.255 27.84 226.079 27.92C225.957 27.9733 225.823 28.0053 225.679 28.016C225.541 28.0267 225.373 28.032 225.175 28.032C225.069 28.032 224.93 28.016 224.759 27.984C224.594 27.952 224.479 27.9227 224.415 27.896C224.245 27.8 224.101 27.688 223.983 27.56C223.866 27.432 223.807 27.3013 223.807 27.168C223.807 27.0613 223.842 26.976 223.911 26.912C223.981 26.848 224.071 26.816 224.183 26.816C224.242 26.816 224.298 26.832 224.351 26.864C224.41 26.8907 224.45 26.9227 224.471 26.96C224.53 27.0987 224.629 27.2027 224.767 27.272C224.906 27.3413 225.047 27.376 225.191 27.376C225.698 27.376 225.951 27.2853 225.951 27.104C225.951 27.056 225.938 27.0187 225.911 26.992C225.89 26.96 225.858 26.928 225.815 26.896C225.746 26.848 225.647 26.7973 225.519 26.744C225.397 26.6907 225.287 26.6507 225.191 26.624C224.973 26.576 224.759 26.504 224.551 26.408C224.359 26.312 224.202 26.1867 224.079 26.032C223.957 25.872 223.895 25.6773 223.895 25.448C223.895 25.3093 223.946 25.1733 224.047 25.04C224.154 24.9013 224.277 24.7973 224.415 24.728C224.511 24.6907 224.669 24.6507 224.887 24.608C225.106 24.5653 225.255 24.544 225.335 24.544C225.458 24.544 225.591 24.5573 225.735 24.584C225.879 24.6053 225.989 24.6427 226.063 24.696C226.207 24.7813 226.325 24.872 226.415 24.968C226.506 25.0587 226.551 25.1627 226.551 25.28C226.551 25.3387 226.538 25.4027 226.511 25.472C226.485 25.536 226.453 25.576 226.415 25.592C226.335 25.6293 226.242 25.648 226.135 25.648C226.087 25.648 226.047 25.6347 226.015 25.608C225.989 25.5813 225.951 25.5387 225.903 25.48C225.845 25.3893 225.789 25.336 225.735 25.32C225.671 25.304 225.578 25.2853 225.455 25.264C225.333 25.2373 225.25 25.224 225.207 25.224C225.074 25.224 224.946 25.2507 224.823 25.304C224.706 25.3573 224.647 25.4293 224.647 25.52C224.647 25.6267 224.735 25.7173 224.911 25.792C225.023 25.8453 225.146 25.8907 225.279 25.928C225.418 25.9653 225.503 25.9893 225.535 26C225.61 26.016 225.706 26.0533 225.823 26.112C225.946 26.1707 226.042 26.224 226.111 26.272ZM231.586 27.56C231.586 27.6933 231.532 27.8187 231.426 27.936C231.319 28.048 231.202 28.104 231.074 28.104C230.924 28.104 230.788 28.064 230.666 27.984C230.543 27.8987 230.482 27.792 230.482 27.664C230.482 27.4613 230.519 27.312 230.594 27.216C230.674 27.12 230.791 27.072 230.946 27.072C231.127 27.072 231.279 27.1173 231.402 27.208C231.524 27.2933 231.586 27.4107 231.586 27.56ZM236.594 27.56C236.594 27.6933 236.541 27.8187 236.434 27.936C236.328 28.048 236.21 28.104 236.082 28.104C235.933 28.104 235.797 28.064 235.674 27.984C235.552 27.8987 235.49 27.792 235.49 27.664C235.49 27.4613 235.528 27.312 235.602 27.216C235.682 27.12 235.8 27.072 235.954 27.072C236.136 27.072 236.288 27.1173 236.41 27.208C236.533 27.2933 236.594 27.4107 236.594 27.56ZM241.603 27.56C241.603 27.6933 241.55 27.8187 241.443 27.936C241.337 28.048 241.219 28.104 241.091 28.104C240.942 28.104 240.806 28.064 240.683 27.984C240.561 27.8987 240.499 27.792 240.499 27.664C240.499 27.4613 240.537 27.312 240.611 27.216C240.691 27.12 240.809 27.072 240.963 27.072C241.145 27.072 241.297 27.1173 241.419 27.208C241.542 27.2933 241.603 27.4107 241.603 27.56Z" fill="black"/>
<defs>
<linearGradient id="paint0_linear_221_6" x1="21.7548" y1="4.01953" x2="21.7548" y2="30.8905" gradientUnits="userSpaceOnUse">
<stop stop-color="#69C2FE"/>
<stop offset="1" stop-color="#2568FA"/>
</linearGradient>
<linearGradient id="paint1_linear_221_6" x1="32.2436" y1="4" x2="32.2436" y2="30.8709" gradientUnits="userSpaceOnUse">
<stop stop-color="#093281"/>
<stop offset="1" stop-color="#5412CB"/>
</linearGradient>
<linearGradient id="paint2_linear_221_6" x1="10.1826" y1="4.01953" x2="10.1826" y2="24.1913" gradientUnits="userSpaceOnUse">
<stop stop-color="#093281"/>
<stop offset="1" stop-color="#3C87FC"/>
</linearGradient>
</defs>
</svg>
